<svg id="書き出し" xmlns="http://www.w3.org/2000/svg" viewBox="0 0 604 240"><defs><style>.cls-1{fill:#fff;}</style></defs><title>catch-copy-en</title><g id="catch-copy"><path class="cls-1" d="M55.13,64.75a26.49,26.49,0,0,1-2.46,11.52,25.71,25.71,0,0,1-6.47,8.57,29.37,29.37,0,0,1-9.27,5.35A31.73,31.73,0,0,1,26.23,92H6.88l.47-2.06a22.09,22.09,0,0,0,2.3-.16,9,9,0,0,0,2.11-.4,3.72,3.72,0,0,0,1.7-1.24,4.75,4.75,0,0,0,.8-1.89l7.37-31.91c.07-.25.12-.52.18-.82a4.72,4.72,0,0,0,.07-.74,2.79,2.79,0,0,0-.23-1.2,1.84,1.84,0,0,0-.95-.86,10.48,10.48,0,0,0-2-.64c-.8-.18-1.4-.3-1.82-.36l.47-2.06H36.13a26.37,26.37,0,0,1,6.13.79,19,19,0,0,1,6.19,2.74,14.91,14.91,0,0,1,4.86,5.42A17,17,0,0,1,55.13,64.75Zm-7.34,0q0-7-3.75-10.88a13.25,13.25,0,0,0-10-3.88c-.86,0-1.74,0-2.66,0l-2.16.08L21.31,84.59q-.09.43-.15.84a5.56,5.56,0,0,0-.06.79,2.7,2.7,0,0,0,1.56,2.64,12.49,12.49,0,0,0,5.12.76,17.15,17.15,0,0,0,8.49-2.12,19.32,19.32,0,0,0,6.36-5.66,27.11,27.11,0,0,0,3.88-8A31.81,31.81,0,0,0,47.79,64.79Z"/><path class="cls-1" d="M84.79,67a8.37,8.37,0,0,1-2.08,5.7,14.12,14.12,0,0,1-6,3.78,44.74,44.74,0,0,1-5.88,1.72c-2,.44-4.16.81-6.56,1.1q0,4.94,1.83,7.55a6.12,6.12,0,0,0,5.36,2.61,9.77,9.77,0,0,0,5.51-1.57,19.22,19.22,0,0,0,4.71-4.65l1.78,1.31a19.62,19.62,0,0,1-6.25,6.09,14.8,14.8,0,0,1-7.78,2.29c-3.69,0-6.51-1-8.46-3.1S58,84.78,58,81a22.68,22.68,0,0,1,1.24-7.52,21.59,21.59,0,0,1,3.61-6.56,17.82,17.82,0,0,1,5.67-4.69A15.55,15.55,0,0,1,76,60.44q4.5,0,6.67,1.83A5.84,5.84,0,0,1,84.79,67ZM79,66.18a4.43,4.43,0,0,0-.34-1.92,2.47,2.47,0,0,0-.88-1,2.85,2.85,0,0,0-1.18-.47,9.07,9.07,0,0,0-1.28-.09q-3.75,0-6.93,4.11a21.26,21.26,0,0,0-4,10.26c1.46-.21,3.1-.5,4.94-.89a18.16,18.16,0,0,0,4.56-1.51,9.34,9.34,0,0,0,3.86-3.45A9.55,9.55,0,0,0,79,66.18Z"/><path class="cls-1" d="M104.89,44.09,96.15,81.72c-.19.79-.36,1.58-.53,2.37A9.67,9.67,0,0,0,95.37,86a3,3,0,0,0,.79,2.44,4.06,4.06,0,0,0,2.58.65,16.78,16.78,0,0,0,1.85-.15,9.52,9.52,0,0,0,1.86-.38l-.47,2c-1.87.75-3.32,1.29-4.33,1.6a11.64,11.64,0,0,1-3.42.47,5.15,5.15,0,0,1-3.79-1.3,4.36,4.36,0,0,1-1.3-3.21,8.82,8.82,0,0,1,.14-1.5c.09-.52.22-1.18.39-2l7.62-32.93c.14-.64.24-1.09.29-1.34a4.84,4.84,0,0,0,.08-.94,3.3,3.3,0,0,0-.37-1.73,2.43,2.43,0,0,0-1.07-.93,5.83,5.83,0,0,0-1.67-.37c-.67-.06-1.35-.14-2-.22L93,44.31l11.63-.69Z"/><path class="cls-1" d="M122.15,88.59l-.47,2a41.07,41.07,0,0,1-4.59,1.61,12,12,0,0,1-2.94.46,5,5,0,0,1-3.75-1.3,4.48,4.48,0,0,1-1.25-3.21,8.78,8.78,0,0,1,.13-1.5c.08-.52.22-1.18.4-2l3.3-13.3c.17-.73.33-1.51.49-2.34a12.53,12.53,0,0,0,.23-2.13,3.34,3.34,0,0,0-.58-2.33,3.39,3.39,0,0,0-2.35-.58,9.87,9.87,0,0,0-1.83.22c-.75.14-1.33.27-1.73.37l.47-2A29.94,29.94,0,0,1,112.06,61a12,12,0,0,1,3.06-.53,4.89,4.89,0,0,1,3.71,1.22A4.58,4.58,0,0,1,120,64.94a11.69,11.69,0,0,1-.13,1.54,15,15,0,0,1-.37,1.94l-3.32,13.29c-.21.81-.39,1.61-.54,2.39a10.13,10.13,0,0,0-.24,1.93,3,3,0,0,0,.8,2.44,4,4,0,0,0,2.57.65,13.48,13.48,0,0,0,1.69-.15A8.61,8.61,0,0,0,122.15,88.59Zm2.22-40a4.58,4.58,0,0,1-1.16,3.11,3.7,3.7,0,0,1-5.62.07,4.19,4.19,0,0,1-1.16-2.89,4.33,4.33,0,0,1,1.16-3,3.58,3.58,0,0,1,2.75-1.29,3.82,3.82,0,0,1,2.91,1.21A4,4,0,0,1,124.37,48.62Z"/><path class="cls-1" d="M156.62,66.22a34,34,0,0,1-1.43,9.65,30,30,0,0,1-3.94,8.56,22.38,22.38,0,0,1-6,6.15,13.51,13.51,0,0,1-7.69,2.36A9.2,9.2,0,0,1,131,90.67a7.93,7.93,0,0,1-2.44-6.09,9.11,9.11,0,0,1,.17-1.62l.24-1.22,2.72-10c.21-.82.39-1.61.54-2.4a10.35,10.35,0,0,0,.24-2,3.29,3.29,0,0,0-.61-2.34,3.48,3.48,0,0,0-2.39-.6,8.08,8.08,0,0,0-1.78.27L126,65l.47-2a38.33,38.33,0,0,1,4.33-1.68,10.91,10.91,0,0,1,3-.59,5.18,5.18,0,0,1,3.7,1.16,4.44,4.44,0,0,1,1.2,3.35,13.07,13.07,0,0,1-.1,1.51,15.53,15.53,0,0,1-.4,2l-3,11.67a18.9,18.9,0,0,0-.47,2.28,12.22,12.22,0,0,0-.16,1.41,5.87,5.87,0,0,0,.52,2.64,4.12,4.12,0,0,0,1.3,1.58,4.53,4.53,0,0,0,1.64.75,7.4,7.4,0,0,0,1.83.22A8.7,8.7,0,0,0,144.27,88a14.31,14.31,0,0,0,3.95-3.51,20.26,20.26,0,0,0,3-5.24,17.5,17.5,0,0,0,1.12-6.39,6.61,6.61,0,0,0-.51-2.9,10.38,10.38,0,0,0-1.14-1.77,13.32,13.32,0,0,1-1.14-1.64A4.65,4.65,0,0,1,149,64.1a3.26,3.26,0,0,1,1.19-2.72,3.94,3.94,0,0,1,2.5-.94,3.34,3.34,0,0,1,2.89,1.48A7.42,7.42,0,0,1,156.62,66.22Z"/><path class="cls-1" d="M186.7,67a8.37,8.37,0,0,1-2.08,5.7,14.1,14.1,0,0,1-6.05,3.78,44.16,44.16,0,0,1-5.87,1.72q-3,.66-6.56,1.1,0,4.94,1.82,7.55a6.13,6.13,0,0,0,5.36,2.61,9.78,9.78,0,0,0,5.52-1.57,19.2,19.2,0,0,0,4.7-4.65l1.78,1.31a19.52,19.52,0,0,1-6.25,6.09,14.78,14.78,0,0,1-7.78,2.29c-3.68,0-6.5-1-8.45-3.1s-2.92-5-2.92-8.79a22.94,22.94,0,0,1,1.23-7.52,21.8,21.8,0,0,1,3.61-6.56,17.82,17.82,0,0,1,5.67-4.69,15.59,15.59,0,0,1,7.43-1.78q4.5,0,6.67,1.83A5.87,5.87,0,0,1,186.7,67ZM181,66.18a4.59,4.59,0,0,0-.34-1.92,2.55,2.55,0,0,0-.88-1,2.83,2.83,0,0,0-1.19-.47,8.87,8.87,0,0,0-1.28-.09q-3.75,0-6.92,4.11a21.27,21.27,0,0,0-4,10.26c1.46-.21,3.11-.5,4.94-.89a18,18,0,0,0,4.56-1.51,9.27,9.27,0,0,0,3.86-3.45A9.46,9.46,0,0,0,181,66.18Z"/><path class="cls-1" d="M218.15,65.53a8.66,8.66,0,0,1-.25,1.92,5.36,5.36,0,0,1-.72,1.74,4.66,4.66,0,0,1-1.24,1.29,3.36,3.36,0,0,1-1.92.46,3.41,3.41,0,0,1-2.53-.85,2.59,2.59,0,0,1-.84-1.87,6,6,0,0,1,.46-2.17c.32-.8.64-1.6,1-2.39a5.73,5.73,0,0,0-1.23.2,10.43,10.43,0,0,0-2.07.8A16.08,16.08,0,0,0,206,66.44a24.26,24.26,0,0,0-3.29,3.16l-5,22.4h-5.83l4.56-20.27c.11-.5.26-1.25.46-2.26a13.38,13.38,0,0,0,.29-2.22,3.4,3.4,0,0,0-.59-2.34,3.42,3.42,0,0,0-2.37-.6,8.27,8.27,0,0,0-1.75.24c-.71.15-1.26.28-1.66.39l.47-2a33.27,33.27,0,0,1,4.31-1.63,12.32,12.32,0,0,1,3.22-.53,4.22,4.22,0,0,1,3.56,1.36,6.56,6.56,0,0,1,1.06,4.08h.19a66.63,66.63,0,0,1,5.64-4.5,7.19,7.19,0,0,1,4-1.28,7.37,7.37,0,0,1,1.94.25,3.8,3.8,0,0,1,1.59.84,4.08,4.08,0,0,1,1,1.52A7.22,7.22,0,0,1,218.15,65.53Z"/><path class="cls-1" d="M235.85,88.59l-.47,2a41.07,41.07,0,0,1-4.59,1.61,12,12,0,0,1-2.94.46,5,5,0,0,1-3.75-1.3,4.48,4.48,0,0,1-1.25-3.21,8.78,8.78,0,0,1,.13-1.5c.08-.52.22-1.18.4-2l3.3-13.3c.17-.73.33-1.51.49-2.34a12.53,12.53,0,0,0,.23-2.13,3.34,3.34,0,0,0-.58-2.33,3.39,3.39,0,0,0-2.35-.58,9.87,9.87,0,0,0-1.83.22c-.75.14-1.33.27-1.73.37l.47-2A29.94,29.94,0,0,1,225.76,61a12,12,0,0,1,3.06-.53,4.89,4.89,0,0,1,3.71,1.22,4.58,4.58,0,0,1,1.16,3.28,11.69,11.69,0,0,1-.13,1.54,15,15,0,0,1-.37,1.94l-3.32,13.29c-.21.81-.39,1.61-.54,2.39a10.13,10.13,0,0,0-.24,1.93,3,3,0,0,0,.8,2.44,4,4,0,0,0,2.57.65,13.48,13.48,0,0,0,1.69-.15A8.61,8.61,0,0,0,235.85,88.59Zm2.22-40a4.58,4.58,0,0,1-1.16,3.11,3.7,3.7,0,0,1-5.62.07,4.19,4.19,0,0,1-1.16-2.89,4.33,4.33,0,0,1,1.16-3A3.58,3.58,0,0,1,234,44.62,3.82,3.82,0,0,1,237,45.83,4,4,0,0,1,238.07,48.62Z"/><path class="cls-1" d="M274.53,88.38l-.47,2c-1.88.74-3.35,1.29-4.39,1.64a10.2,10.2,0,0,1-3.17.51,5,5,0,0,1-3.76-1.3,4.4,4.4,0,0,1-1.25-3.2,10.65,10.65,0,0,1,.12-1.52,19.91,19.91,0,0,1,.41-2l3.09-11.67c.23-.89.41-1.71.55-2.44a10.59,10.59,0,0,0,.2-1.75,5,5,0,0,0-1-3.31,3.54,3.54,0,0,0-2.94-1.22,9.17,9.17,0,0,0-4.25,1.25A15.54,15.54,0,0,0,253.24,69L247.9,92h-5.84l4.69-20.27c.1-.5.25-1.23.45-2.18a11.67,11.67,0,0,0,.3-2.3,3.34,3.34,0,0,0-.6-2.34,3.41,3.41,0,0,0-2.38-.6,8.35,8.35,0,0,0-1.76.24c-.71.15-1.27.28-1.67.39l.47-2a33.5,33.5,0,0,1,4.34-1.63,12.39,12.39,0,0,1,3.24-.53,4.25,4.25,0,0,1,3.54,1.35,6.08,6.08,0,0,1,1.14,3.72H254a39.39,39.39,0,0,1,5.92-4.08,11.8,11.8,0,0,1,5.66-1.33,5.9,5.9,0,0,1,6.36,6.29,19.18,19.18,0,0,1-.18,2,19.49,19.49,0,0,1-.54,2.84l-2.63,10.05c-.19.66-.37,1.43-.55,2.3a10.35,10.35,0,0,0-.26,2,3,3,0,0,0,.78,2.43,4,4,0,0,0,2.56.64,10.91,10.91,0,0,0,1.71-.2A12.3,12.3,0,0,0,274.53,88.38Z"/><path class="cls-1" d="M299.49,87.78l-.22-.07c-.42.34-1,.81-1.77,1.41a16.33,16.33,0,0,1-2.39,1.6,17,17,0,0,1-2.9,1.37,9.35,9.35,0,0,1-3.25.53,8.28,8.28,0,0,1-7-3.2c-1.63-2.14-2.45-5.08-2.45-8.84A20.84,20.84,0,0,1,280.94,73a22.16,22.16,0,0,1,3.89-6.5,18.44,18.44,0,0,1,5.69-4.43,15.26,15.26,0,0,1,6.94-1.67,15.05,15.05,0,0,1,4.25.58,12.25,12.25,0,0,1,3.22,1.36l5.72-1.47.37.47L305.77,86a42.11,42.11,0,0,1-3,9.46,20.17,20.17,0,0,1-4.3,6.11,15,15,0,0,1-5.52,3.3,21.82,21.82,0,0,1-6.83,1,18.13,18.13,0,0,1-4.23-.41,8,8,0,0,1-2.58-1.06,3.36,3.36,0,0,1-1.26-1.49,4.26,4.26,0,0,1-.33-1.58,3.46,3.46,0,0,1,.84-2.36,2.94,2.94,0,0,1,2.31-1,3,3,0,0,1,2,.67,6.64,6.64,0,0,1,1.32,1.46,14.78,14.78,0,0,1,1,1.93c.33.75.58,1.32.75,1.69h.93a10,10,0,0,0,3.69-.78,9.92,9.92,0,0,0,3.59-2.53,19.5,19.5,0,0,0,3.1-4.86A31.42,31.42,0,0,0,299.49,87.78Zm4.16-20a6.34,6.34,0,0,0-.27-1.8,4.12,4.12,0,0,0-1-1.71,4.93,4.93,0,0,0-1.75-1.19,7.19,7.19,0,0,0-2.71-.43,7.94,7.94,0,0,0-4.54,1.45,14.71,14.71,0,0,0-3.85,4A20.85,20.85,0,0,0,287,73.86a23.66,23.66,0,0,0-1,6.79,20.85,20.85,0,0,0,.26,3.39,8.33,8.33,0,0,0,.93,2.71,4.75,4.75,0,0,0,1.73,1.8,5.5,5.5,0,0,0,2.8.64A8.44,8.44,0,0,0,296,87.92a19.72,19.72,0,0,0,4.1-3.24Z"/><path class="cls-1" d="M369.13,47.66l-.47,2.06a21.39,21.39,0,0,0-2.25.23,14.84,14.84,0,0,0-2.31.52,3.18,3.18,0,0,0-1.74,1.22,6.51,6.51,0,0,0-.79,1.93l-5.95,26.44a17,17,0,0,1-1.77,4.42,16.07,16.07,0,0,1-3.33,4.18,18.28,18.28,0,0,1-4.84,3.18,14.93,14.93,0,0,1-6.27,1.22,10.62,10.62,0,0,1-7-2.18,7.47,7.47,0,0,1-2.62-6.07,9.48,9.48,0,0,1,1.54-5.4,4.67,4.67,0,0,1,4.05-2.32A3.39,3.39,0,0,1,338,78a3.14,3.14,0,0,1,.78,2.12,5.51,5.51,0,0,1-.53,2.26,11.77,11.77,0,0,1-1.38,2.24c-.5.65-1.05,1.32-1.66,2a22.28,22.28,0,0,0-1.4,1.77,4.25,4.25,0,0,0,1.75,1.68,7.66,7.66,0,0,0,3.8.75,7.25,7.25,0,0,0,4-1,8.69,8.69,0,0,0,2.76-2.8A19.44,19.44,0,0,0,348,82.88a52.23,52.23,0,0,0,1.45-5.32l5.32-23.63c0-.1.05-.25.08-.46a4.13,4.13,0,0,0,0-.56,2.47,2.47,0,0,0-.29-1.19,2.21,2.21,0,0,0-1-.91,6.72,6.72,0,0,0-2.37-.76q-1.56-.27-2.31-.33l.47-2.06Z"/><path class="cls-1" d="M395.54,72.73a23,23,0,0,1-1.25,7.38,19.58,19.58,0,0,1-3.63,6.48,18.34,18.34,0,0,1-5.79,4.61A17,17,0,0,1,377,92.94a11.21,11.21,0,0,1-8.43-3.35,12.43,12.43,0,0,1-3.23-9,21.69,21.69,0,0,1,5.06-14.07,17.87,17.87,0,0,1,5.8-4.4,17,17,0,0,1,7.48-1.67q5.56,0,8.71,3.39A12.6,12.6,0,0,1,395.54,72.73Zm-6.38-1.19c0-3-.52-5.18-1.58-6.66A5.22,5.22,0,0,0,383,62.66a8.44,8.44,0,0,0-4.89,1.59,12.63,12.63,0,0,0-4,5.19,24.13,24.13,0,0,0-1.87,6.06,34.79,34.79,0,0,0-.59,6.15q0,4.47,1.54,6.77a5.26,5.26,0,0,0,4.67,2.3A7.65,7.65,0,0,0,382.88,89a13.15,13.15,0,0,0,3.5-4.45,23.92,23.92,0,0,0,2.06-6A33.41,33.41,0,0,0,389.16,71.54Z"/><path class="cls-1" d="M421,87.47h-.19a32.61,32.61,0,0,1-5.47,3.78,12.39,12.39,0,0,1-5.91,1.37,6.42,6.42,0,0,1-4.75-1.73,6.11,6.11,0,0,1-1.75-4.55,15.73,15.73,0,0,1,.12-1.78c.08-.68.28-1.71.59-3.06l2.43-9.75c.23-.94.41-1.75.53-2.45a11,11,0,0,0,.19-2,3.36,3.36,0,0,0-.58-2.33,3.45,3.45,0,0,0-2.35-.57,7.31,7.31,0,0,0-1.75.26q-1.06.26-1.65.42l.47-2a35.56,35.56,0,0,1,4.29-1.67,10.82,10.82,0,0,1,3-.57,5.27,5.27,0,0,1,3.7,1.13,4.4,4.4,0,0,1,1.2,3.37,13,13,0,0,1-.12,1.53,14.45,14.45,0,0,1-.38,1.94l-2.83,11.41c-.21.87-.39,1.69-.53,2.45a9.66,9.66,0,0,0-.22,1.74,5,5,0,0,0,1,3.31,3.66,3.66,0,0,0,3,1.22,9.62,9.62,0,0,0,4.46-1.13,15.82,15.82,0,0,0,4.08-3.09l5.17-23.38,5.4-.37.37.47-5.37,24.47a41.82,41.82,0,0,1-3,9.18,20.9,20.9,0,0,1-4.31,6.16,16.2,16.2,0,0,1-5.59,3.56,19.89,19.89,0,0,1-6.85,1.1,18.86,18.86,0,0,1-4.22-.38,6.87,6.87,0,0,1-2.46-1,3.14,3.14,0,0,1-1.22-1.41,4.15,4.15,0,0,1-.32-1.56,3.7,3.7,0,0,1,.82-2.38,2.82,2.82,0,0,1,2.34-1,3,3,0,0,1,2,.66,6.07,6.07,0,0,1,1.31,1.44,13.06,13.06,0,0,1,1,1.9c.31.71.56,1.27.75,1.69h.75a9.38,9.38,0,0,0,3.76-.87,10.82,10.82,0,0,0,3.65-2.72,20.46,20.46,0,0,0,3.2-5.16A33.74,33.74,0,0,0,421,87.47Z"/><path class="cls-1" d="M467.21,64.31l-5.5,25.81a21.07,21.07,0,0,1-6.18,11.35q-4.72,4.41-9.71,4.41a6.36,6.36,0,0,1-4-1,3.25,3.25,0,0,1-1.3-2.64,3.75,3.75,0,0,1,.81-2.38,2.81,2.81,0,0,1,2.35-1,3.29,3.29,0,0,1,1.7.44,5.42,5.42,0,0,1,1.3,1.09,13,13,0,0,1,1,1.44c.37.6.68,1.13,1,1.56,1.6-.12,3-1.21,4.1-3.25a33.28,33.28,0,0,0,3-8.75l5.76-27h-6.11l.66-2.84h6l.45-2.12a22.74,22.74,0,0,1,2.37-6.52,22,22,0,0,1,3.69-4.93,15.39,15.39,0,0,1,4.61-3.14,12.24,12.24,0,0,1,5-1.14,6.4,6.4,0,0,1,4,1.05,3.28,3.28,0,0,1,1.3,2.64,3.9,3.9,0,0,1-.77,2.38,2.78,2.78,0,0,1-2.4,1,3.29,3.29,0,0,1-1.69-.42,4.68,4.68,0,0,1-1.29-1.11,9.85,9.85,0,0,1-1-1.47c-.25-.46-.57-1-.95-1.53q-2.16.09-3.82,2.84t-3,9.13l-.7,3.31h7.89L475,64.31Z"/><path class="cls-1" d="M503.57,65.53a8.66,8.66,0,0,1-.25,1.92,5.36,5.36,0,0,1-.72,1.74,4.66,4.66,0,0,1-1.24,1.29,3.36,3.36,0,0,1-1.92.46,3.41,3.41,0,0,1-2.53-.85,2.59,2.59,0,0,1-.84-1.87,6,6,0,0,1,.46-2.17c.32-.8.64-1.6,1-2.39a5.73,5.73,0,0,0-1.23.2,10.43,10.43,0,0,0-2.07.8,16.08,16.08,0,0,0-2.76,1.78,24.26,24.26,0,0,0-3.29,3.16l-5,22.4h-5.83l4.56-20.27c.11-.5.26-1.25.46-2.26a13.38,13.38,0,0,0,.29-2.22,3.4,3.4,0,0,0-.59-2.34,3.42,3.42,0,0,0-2.37-.6,8.18,8.18,0,0,0-1.75.24c-.71.15-1.26.28-1.66.39l.47-2A33.27,33.27,0,0,1,481,61.31a12.32,12.32,0,0,1,3.22-.53,4.22,4.22,0,0,1,3.56,1.36,6.56,6.56,0,0,1,1.06,4.08H489a66.63,66.63,0,0,1,5.64-4.5,7.19,7.19,0,0,1,4-1.28,7.37,7.37,0,0,1,1.94.25,3.8,3.8,0,0,1,1.59.84,4.08,4.08,0,0,1,1,1.52A7.22,7.22,0,0,1,503.57,65.53Z"/><path class="cls-1" d="M535.82,72.73a23,23,0,0,1-1.25,7.38A19.56,19.56,0,0,1,531,86.59a18.5,18.5,0,0,1-5.8,4.61,17,17,0,0,1-7.86,1.74,11.18,11.18,0,0,1-8.42-3.35,12.39,12.39,0,0,1-3.24-9A21.51,21.51,0,0,1,507,72.82a21.22,21.22,0,0,1,3.69-6.31,17.72,17.72,0,0,1,5.79-4.4A17,17,0,0,1,524,60.44q5.57,0,8.7,3.39A12.6,12.6,0,0,1,535.82,72.73Zm-6.37-1.19q0-4.44-1.58-6.66a5.24,5.24,0,0,0-4.55-2.22,8.44,8.44,0,0,0-4.89,1.59,12.54,12.54,0,0,0-3.95,5.19,24.14,24.14,0,0,0-1.88,6.06,35.76,35.76,0,0,0-.59,6.15c0,3,.51,5.24,1.55,6.77a5.25,5.25,0,0,0,4.67,2.3A7.67,7.67,0,0,0,523.17,89a13.4,13.4,0,0,0,3.5-4.45,24.32,24.32,0,0,0,2.06-6A33.41,33.41,0,0,0,529.45,71.54Z"/><path class="cls-1" d="M592,88.47l-.47,2a41.84,41.84,0,0,1-4.61,1.61,12,12,0,0,1-2.95.45,5,5,0,0,1-3.76-1.3,4.4,4.4,0,0,1-1.26-3.2,9.45,9.45,0,0,1,.13-1.52,19.91,19.91,0,0,1,.41-2l3.08-11.67c.24-.89.42-1.71.55-2.44a9.77,9.77,0,0,0,.21-1.75,5.4,5.4,0,0,0-.91-3.31,3.29,3.29,0,0,0-2.85-1.22,9.28,9.28,0,0,0-4.09,1,17,17,0,0,0-4.52,3.68L565.44,92h-5.8l4.92-20.9c.11-.46.21-.94.3-1.45A7.36,7.36,0,0,0,565,68.5a4.73,4.73,0,0,0-1-3.19,3.71,3.71,0,0,0-3-1.15,10.22,10.22,0,0,0-3.92.89,15.43,15.43,0,0,0-5,4l-5.34,23H541l4.69-20.27c.16-.73.32-1.51.48-2.35a11.41,11.41,0,0,0,.23-2.13,3.42,3.42,0,0,0-.59-2.39,3.38,3.38,0,0,0-2.32-.58,8.17,8.17,0,0,0-1.78.26L540,65l.47-2a31.6,31.6,0,0,1,4.34-1.63,12,12,0,0,1,3.23-.54,4.23,4.23,0,0,1,3.57,1.36,6.22,6.22,0,0,1,1.11,3.71h.19A42.45,42.45,0,0,1,559,61.69a11.93,11.93,0,0,1,5.65-1.25,6.31,6.31,0,0,1,4.51,1.61,6,6,0,0,1,2,4h.13a39,39,0,0,1,5.93-4.22,12.28,12.28,0,0,1,6-1.44,6,6,0,0,1,4.59,1.73,6.46,6.46,0,0,1,1.61,4.56,19.18,19.18,0,0,1-.18,2,19.49,19.49,0,0,1-.54,2.84L586,81.62c-.18.66-.36,1.43-.53,2.3a11,11,0,0,0-.25,2,3.12,3.12,0,0,0,.75,2.43,3.92,3.92,0,0,0,2.54.64,12.74,12.74,0,0,0,1.72-.16A9,9,0,0,0,592,88.47Z"/><path class="cls-1" d="M70.24,147.66l-.46,2.06a20.88,20.88,0,0,0-2.25.23,15.26,15.26,0,0,0-2.32.52,3.11,3.11,0,0,0-1.73,1.22,6.51,6.51,0,0,0-.8,1.93l-6,26.44a17.26,17.26,0,0,1-5.09,8.6,18.44,18.44,0,0,1-4.84,3.18,14.94,14.94,0,0,1-6.28,1.22,10.64,10.64,0,0,1-7-2.18,7.5,7.5,0,0,1-2.62-6.07,9.49,9.49,0,0,1,1.55-5.4,4.67,4.67,0,0,1,4-2.32,3.38,3.38,0,0,1,2.66.91,3.14,3.14,0,0,1,.78,2.12,5.51,5.51,0,0,1-.53,2.26A11.23,11.23,0,0,1,38,184.62c-.5.65-1.06,1.32-1.66,2s-1.07,1.29-1.41,1.77a4.31,4.31,0,0,0,1.75,1.68,7.67,7.67,0,0,0,3.81.75,7.28,7.28,0,0,0,3.95-1,8.69,8.69,0,0,0,2.76-2.8,19.44,19.44,0,0,0,1.89-4.12,55,55,0,0,0,1.45-5.32l5.31-23.63a3.74,3.74,0,0,0,.08-.46,4.13,4.13,0,0,0,0-.56,2.46,2.46,0,0,0-.28-1.19,2.27,2.27,0,0,0-1-.91,6.71,6.71,0,0,0-2.38-.76q-1.56-.27-2.31-.33l.47-2.06Z"/><path class="cls-1" d="M85.46,187.87h-.22c-.46.38-1,.85-1.64,1.42a15.55,15.55,0,0,1-2.23,1.65,16.19,16.19,0,0,1-2.66,1.36,8.33,8.33,0,0,1-3.12.58,8.57,8.57,0,0,1-7.1-3.26q-2.56-3.26-2.57-8.88a20.41,20.41,0,0,1,1.44-7.54,22.16,22.16,0,0,1,4-6.57A19,19,0,0,1,77,162.14a14.73,14.73,0,0,1,6.8-1.7,15.19,15.19,0,0,1,4.24.59,12.63,12.63,0,0,1,3.17,1.35L97,160.91l.38.47L92.6,181.55c-.17.65-.34,1.44-.52,2.37a11.93,11.93,0,0,0-.27,2.05,3,3,0,0,0,.76,2.4,4,4,0,0,0,2.53.63,10.22,10.22,0,0,0,1.69-.19,10.35,10.35,0,0,0,1.69-.4l-.47,2c-1.88.75-3.28,1.29-4.19,1.62a10,10,0,0,1-3.35.5,4.83,4.83,0,0,1-3.57-1.31A5,5,0,0,1,85.46,187.87ZM90,168.1a8.44,8.44,0,0,0-.22-2,4.15,4.15,0,0,0-.91-1.75,4.27,4.27,0,0,0-1.72-1.25,6.86,6.86,0,0,0-2.75-.47,7.7,7.7,0,0,0-4.44,1.5,15.1,15.1,0,0,0-3.87,4A21,21,0,0,0,73.39,174a23.27,23.27,0,0,0-1,6.85,22.64,22.64,0,0,0,.22,3.38,8.38,8.38,0,0,0,.84,2.69,4.25,4.25,0,0,0,1.71,1.85,5.55,5.55,0,0,0,2.84.66,8,8,0,0,0,3.67-1A18.08,18.08,0,0,0,86,184.93Z"/><path class="cls-1" d="M136.16,172.39a22.08,22.08,0,0,1-5.37,14.45,18.29,18.29,0,0,1-5.88,4.5,15.36,15.36,0,0,1-6.51,1.47,12.65,12.65,0,0,1-4.4-.65,13.07,13.07,0,0,1-3.06-1.63l-1.83,8.19c-.12.52-.22,1-.29,1.47a6.5,6.5,0,0,0-.11,1.09,1.63,1.63,0,0,0,.61,1.34,3.55,3.55,0,0,0,1.39.72,9.26,9.26,0,0,0,1.75.38c.64.08,1.23.14,1.75.19l-.44,2H96.54l.43-2,1.88-.16a10.49,10.49,0,0,0,1.65-.31,2.88,2.88,0,0,0,1.55-1.05,4.81,4.81,0,0,0,.83-1.89l6.52-28.78c.17-.79.32-1.59.47-2.39a11.42,11.42,0,0,0,.22-2.08,3.53,3.53,0,0,0-.55-2.34,3.26,3.26,0,0,0-2.35-.6,7.4,7.4,0,0,0-1.75.27l-1.65.42.46-2a37.23,37.23,0,0,1,4.29-1.64,11.34,11.34,0,0,1,3.25-.58,4.52,4.52,0,0,1,3.31,1.11,5.24,5.24,0,0,1,1.41,3.08h.25a21.63,21.63,0,0,1,4.54-3.25,10.33,10.33,0,0,1,4.83-1.28,9,9,0,0,1,7.39,3.24C135.28,165.83,136.16,168.74,136.16,172.39Zm-9.75,12.92a21.2,21.2,0,0,0,2.45-5.84,26.86,26.86,0,0,0,.86-6.93,19.89,19.89,0,0,0-.29-3.33,8.1,8.1,0,0,0-1-2.77,4.92,4.92,0,0,0-1.87-1.89,6.29,6.29,0,0,0-3.13-.67,7.2,7.2,0,0,0-3.17.87,18.84,18.84,0,0,0-4.23,3.29l-4,17.74a5.48,5.48,0,0,0,1.92,3.33,5.89,5.89,0,0,0,4.11,1.55,8.18,8.18,0,0,0,4.62-1.44A12.7,12.7,0,0,0,126.41,185.31Z"/><path class="cls-1" d="M159.62,187.87h-.21c-.46.38-1,.85-1.64,1.42a15.55,15.55,0,0,1-2.23,1.65,16.61,16.61,0,0,1-2.66,1.36,8.33,8.33,0,0,1-3.12.58,8.57,8.57,0,0,1-7.1-3.26q-2.57-3.26-2.57-8.88a20.6,20.6,0,0,1,1.43-7.54,22.4,22.4,0,0,1,4-6.57,19,19,0,0,1,5.72-4.49,14.73,14.73,0,0,1,6.8-1.7,15.06,15.06,0,0,1,4.23.59,12.31,12.31,0,0,1,3.17,1.35l5.74-1.47.38.47-4.77,20.17q-.24,1-.51,2.37A11.93,11.93,0,0,0,166,186a3,3,0,0,0,.75,2.4,4,4,0,0,0,2.54.63,10.22,10.22,0,0,0,1.69-.19,10.35,10.35,0,0,0,1.69-.4l-.47,2q-2.82,1.13-4.2,1.62a9.9,9.9,0,0,1-3.35.5,4.86,4.86,0,0,1-3.57-1.31A5.06,5.06,0,0,1,159.62,187.87Zm4.51-19.77a9,9,0,0,0-.22-2,4.15,4.15,0,0,0-.91-1.75,4.34,4.34,0,0,0-1.72-1.25,6.86,6.86,0,0,0-2.75-.47,7.7,7.7,0,0,0-4.44,1.5,15.28,15.28,0,0,0-3.88,4,21,21,0,0,0-2.65,5.76,23.27,23.27,0,0,0-1,6.85,24.18,24.18,0,0,0,.21,3.38,8.65,8.65,0,0,0,.85,2.69,4.25,4.25,0,0,0,1.71,1.85,5.55,5.55,0,0,0,2.84.66,8,8,0,0,0,3.66-1,17.69,17.69,0,0,0,4.32-3.46Z"/><path class="cls-1" d="M209.89,188.38l-.47,2c-1.88.74-3.35,1.29-4.39,1.64a10.25,10.25,0,0,1-3.17.51,5,5,0,0,1-3.76-1.3,4.4,4.4,0,0,1-1.26-3.2,9.45,9.45,0,0,1,.13-1.52,19.91,19.91,0,0,1,.41-2l3.08-11.67c.23-.89.42-1.71.55-2.44a9.6,9.6,0,0,0,.2-1.75,5.1,5.1,0,0,0-1-3.31,3.54,3.54,0,0,0-2.94-1.22,9.14,9.14,0,0,0-4.25,1.25A15.54,15.54,0,0,0,188.6,169l-5.34,23h-5.84l4.68-20.27c.11-.5.26-1.23.46-2.18a11.53,11.53,0,0,0,.29-2.3,3.35,3.35,0,0,0-.59-2.34,3.44,3.44,0,0,0-2.39-.6,8.43,8.43,0,0,0-1.76.24c-.71.15-1.26.28-1.66.39l.47-2a33,33,0,0,1,4.34-1.63,12.32,12.32,0,0,1,3.23-.53,4.25,4.25,0,0,1,3.55,1.35,6.08,6.08,0,0,1,1.13,3.72h.19a38.41,38.41,0,0,1,5.92-4.08,11.77,11.77,0,0,1,5.66-1.33,6.23,6.23,0,0,1,4.67,1.73,6.29,6.29,0,0,1,1.68,4.56,18.35,18.35,0,0,1-.17,2,19.51,19.51,0,0,1-.55,2.84L204,181.62c-.19.66-.37,1.43-.55,2.3a10.52,10.52,0,0,0-.27,2,3,3,0,0,0,.78,2.43,4.07,4.07,0,0,0,2.57.64,10.81,10.81,0,0,0,1.7-.2A12.51,12.51,0,0,0,209.89,188.38Z"/><path class="cls-1" d="M238.56,192.66a6.53,6.53,0,0,1-4.35-1.21,4.35,4.35,0,0,1-1.37-3.45,9.81,9.81,0,0,1,.09-1.36c.06-.43.15-.91.25-1.45l4.87-20.88h-5.59l.66-2.84h5.71l2.18-9.16h5.62l-2.12,9.16h8.7l-.65,2.84h-8.63l-4,17.22c-.19.79-.35,1.56-.47,2.3a11.13,11.13,0,0,0-.19,1.89,3.29,3.29,0,0,0,.86,2.51,4.56,4.56,0,0,0,3.11.8,18.78,18.78,0,0,0,2.28-.2,11.09,11.09,0,0,0,2.29-.52l-.54,2.28c-1.45.57-2.83,1-4.12,1.46A15.44,15.44,0,0,1,238.56,192.66Z"/><path class="cls-1" d="M283.14,172.73a23,23,0,0,1-1.25,7.38,19.4,19.4,0,0,1-3.63,6.48,18.34,18.34,0,0,1-5.79,4.61,17,17,0,0,1-7.86,1.74,11.18,11.18,0,0,1-8.42-3.35,12.39,12.39,0,0,1-3.24-9A21.69,21.69,0,0,1,258,166.51a17.87,17.87,0,0,1,5.8-4.4,17,17,0,0,1,7.49-1.67c3.7,0,6.61,1.13,8.7,3.39A12.6,12.6,0,0,1,283.14,172.73Zm-6.38-1.19q0-4.44-1.57-6.66a5.25,5.25,0,0,0-4.55-2.22,8.44,8.44,0,0,0-4.89,1.59,12.54,12.54,0,0,0-3.95,5.19,24.14,24.14,0,0,0-1.88,6.06,34.79,34.79,0,0,0-.59,6.15q0,4.47,1.54,6.77a5.27,5.27,0,0,0,4.68,2.3,7.63,7.63,0,0,0,4.93-1.75,13.15,13.15,0,0,0,3.5-4.45,23.92,23.92,0,0,0,2.07-6A34.1,34.1,0,0,0,276.76,171.54Z"/><path class="cls-1" d="M312.06,192.66a6.48,6.48,0,0,1-4.34-1.21,4.33,4.33,0,0,1-1.38-3.45,9.81,9.81,0,0,1,.09-1.36c.07-.43.15-.91.25-1.45l4.88-20.88H306l.65-2.84h5.71l2.18-9.16h5.62L318,161.47h8.71l-.66,2.84h-8.63l-4,17.22c-.19.79-.34,1.56-.47,2.3a12.1,12.1,0,0,0-.18,1.89,3.28,3.28,0,0,0,.85,2.51,4.58,4.58,0,0,0,3.11.8,18.75,18.75,0,0,0,2.29-.2,10.82,10.82,0,0,0,2.28-.52l-.53,2.28c-1.46.57-2.84,1-4.13,1.46A15.44,15.44,0,0,1,312.06,192.66Z"/><path class="cls-1" d="M358.52,188.38l-.47,2q-2.82,1.11-4.38,1.64a10.14,10.14,0,0,1-3.16.51,5,5,0,0,1-3.75-1.3,4.4,4.4,0,0,1-1.26-3.2,10.76,10.76,0,0,1,.13-1.52,19.91,19.91,0,0,1,.41-2l3.06-11.67c.23-.89.41-1.71.54-2.44a9.77,9.77,0,0,0,.21-1.75,5,5,0,0,0-1-3.31,3.54,3.54,0,0,0-2.94-1.22,8.87,8.87,0,0,0-4.3,1.28,17.18,17.18,0,0,0-4.38,3.6l-5.31,23h-5.84l9.3-40.25c.11-.48.2-.88.27-1.22a5.07,5.07,0,0,0,.11-1.06,3.29,3.29,0,0,0-.38-1.73,2.35,2.35,0,0,0-1.06-.93,5.18,5.18,0,0,0-1.64-.37c-.69-.06-1.38-.14-2.07-.22l.44-1.91,11.63-.69.31.47-5,21.6h.12a36.14,36.14,0,0,1,5.73-3.92,12,12,0,0,1,5.73-1.33,6.2,6.2,0,0,1,4.66,1.73,6.29,6.29,0,0,1,1.68,4.56,18.35,18.35,0,0,1-.17,2,19.49,19.49,0,0,1-.54,2.84l-2.63,10.05c-.17.66-.35,1.43-.53,2.3a10.07,10.07,0,0,0-.29,2,3,3,0,0,0,.79,2.43,4,4,0,0,0,2.56.64,10.68,10.68,0,0,0,1.7-.2A12.51,12.51,0,0,0,358.52,188.38Z"/><path class="cls-1" d="M390.26,167a8.37,8.37,0,0,1-2.08,5.7,14.1,14.1,0,0,1-6.05,3.78,44.16,44.16,0,0,1-5.87,1.72q-3,.66-6.56,1.1,0,4.94,1.83,7.55a6.11,6.11,0,0,0,5.35,2.61,9.78,9.78,0,0,0,5.52-1.57,19.2,19.2,0,0,0,4.7-4.65l1.78,1.31a19.52,19.52,0,0,1-6.25,6.09,14.78,14.78,0,0,1-7.78,2.29c-3.68,0-6.5-1-8.45-3.1s-2.92-5-2.92-8.79a22.94,22.94,0,0,1,1.23-7.52,22,22,0,0,1,3.61-6.56,17.82,17.82,0,0,1,5.67-4.69,15.59,15.59,0,0,1,7.43-1.78q4.5,0,6.67,1.83A5.84,5.84,0,0,1,390.26,167Zm-5.75-.77a4.59,4.59,0,0,0-.34-1.92,2.55,2.55,0,0,0-.88-1,2.83,2.83,0,0,0-1.19-.47,8.87,8.87,0,0,0-1.28-.09q-3.75,0-6.92,4.11a21.37,21.37,0,0,0-4,10.26c1.46-.21,3.11-.5,4.94-.89a17.89,17.89,0,0,0,4.56-1.51,9.27,9.27,0,0,0,3.86-3.45A9.46,9.46,0,0,0,384.51,166.18Z"/><path class="cls-1" d="M478.62,147.66l-.47,2.06a8.13,8.13,0,0,0-1.91.36,10,10,0,0,0-2.09.86,9,9,0,0,0-2.16,1.65,12.79,12.79,0,0,0-1.75,2.57q-3.21,6-8.73,16.34t-11.33,21.06H447.4l-3.63-34.22-19.4,34.22h-2.75q-.72-14.22-1.22-23.92t-.75-14.7a4.73,4.73,0,0,0-.38-1.69,4,4,0,0,0-1.22-1.41,4.26,4.26,0,0,0-1.67-.79,9.88,9.88,0,0,0-1.83-.33l.47-2.06h17.85l-.47,2.06a16.05,16.05,0,0,0-5,.8c-.84.38-1.26.84-1.26,1.39s0,1,0,1.84.05,1.65.09,2.5c.06,1.44.22,4.34.46,8.71s.54,9.86.89,16.49l18.63-33.17h2.86l3.72,33.85q3.9-7.45,6.81-13.25t5.18-10.41c.92-1.9,1.56-3.33,1.92-4.31a7,7,0,0,0,.55-2.07c0-.66-.47-1.2-1.42-1.61a12.84,12.84,0,0,0-4.11-.76l.47-2.06Z"/><path class="cls-1" d="M501.35,172.73a23,23,0,0,1-1.25,7.38,19.76,19.76,0,0,1-3.63,6.48,18.38,18.38,0,0,1-5.8,4.61,17,17,0,0,1-7.86,1.74,11.21,11.21,0,0,1-8.42-3.35,12.43,12.43,0,0,1-3.23-9,21.54,21.54,0,0,1,5.06-14.07,17.66,17.66,0,0,1,5.8-4.4,17,17,0,0,1,7.48-1.67q5.56,0,8.71,3.39A12.6,12.6,0,0,1,501.35,172.73ZM495,171.54q0-4.44-1.58-6.66a5.23,5.23,0,0,0-4.54-2.22,8.44,8.44,0,0,0-4.89,1.59,12.55,12.55,0,0,0-4,5.19,24.13,24.13,0,0,0-1.87,6.06,34.86,34.86,0,0,0-.6,6.15q0,4.47,1.55,6.77a5.26,5.26,0,0,0,4.67,2.3,7.65,7.65,0,0,0,4.94-1.75,13.27,13.27,0,0,0,3.5-4.45,24.32,24.32,0,0,0,2.06-6A33.41,33.41,0,0,0,495,171.54Z"/><path class="cls-1" d="M532,165.53a8.1,8.1,0,0,1-.25,1.92,5.15,5.15,0,0,1-.72,1.74,4.49,4.49,0,0,1-1.23,1.29,4.21,4.21,0,0,1-4.45-.39,2.56,2.56,0,0,1-.85-1.87,6.08,6.08,0,0,1,.47-2.17c.31-.8.64-1.6,1-2.39a5.73,5.73,0,0,0-1.23.2,10.26,10.26,0,0,0-2.08.8,16.48,16.48,0,0,0-2.76,1.78,24.84,24.84,0,0,0-3.28,3.16l-5,22.4h-5.83l4.56-20.27.45-2.26a12.61,12.61,0,0,0,.3-2.22,2.37,2.37,0,0,0-3-2.94,8.27,8.27,0,0,0-1.75.24c-.7.15-1.26.28-1.65.39l.47-2a32.73,32.73,0,0,1,4.31-1.63,12.25,12.25,0,0,1,3.22-.53,4.25,4.25,0,0,1,3.56,1.36,6.56,6.56,0,0,1,1.06,4.08h.19a66.63,66.63,0,0,1,5.64-4.5,7.16,7.16,0,0,1,4-1.28,7.3,7.3,0,0,1,1.93.25,3.78,3.78,0,0,1,1.6.84,4.05,4.05,0,0,1,1,1.52A7.22,7.22,0,0,1,532,165.53Z"/><path class="cls-1" d="M549.83,144.09l-8.73,37.63q-.29,1.18-.54,2.37a10.46,10.46,0,0,0-.25,1.94,3,3,0,0,0,.8,2.44,4,4,0,0,0,2.57.65,16.74,16.74,0,0,0,1.86-.15,9.56,9.56,0,0,0,1.85-.38l-.46,2c-1.88.75-3.32,1.29-4.33,1.6a11.64,11.64,0,0,1-3.42.47,5.16,5.16,0,0,1-3.8-1.3,4.36,4.36,0,0,1-1.3-3.21,8.82,8.82,0,0,1,.14-1.5c.1-.52.23-1.18.39-2l7.62-32.93c.15-.64.24-1.09.3-1.34a4.84,4.84,0,0,0,.08-.94,3.29,3.29,0,0,0-.38-1.73,2.37,2.37,0,0,0-1.07-.93,5.76,5.76,0,0,0-1.66-.37c-.67-.06-1.35-.14-2-.22l.44-1.91,11.62-.69Z"/><path class="cls-1" d="M570.73,187.71h-.22l-1.78,1.55a15.65,15.65,0,0,1-2.27,1.68,17.12,17.12,0,0,1-2.77,1.43,8.27,8.27,0,0,1-3.1.51,8.53,8.53,0,0,1-7.1-3.27q-2.58-3.27-2.58-8.9a21.36,21.36,0,0,1,1.39-7.6,22.42,22.42,0,0,1,3.8-6.51,18.39,18.39,0,0,1,5.64-4.46,14.91,14.91,0,0,1,6.9-1.7,16.88,16.88,0,0,1,4.28.56,13.79,13.79,0,0,1,3.5,1.38l2.44-10.63c.13-.56.22-1,.27-1.31a6.53,6.53,0,0,0,.08-1,2.8,2.8,0,0,0-.46-1.72,2.6,2.6,0,0,0-1.26-.88,7.48,7.48,0,0,0-2.07-.37c-.87-.06-1.66-.14-2.37-.22l.44-1.91,12.65-.69.32.47-8.67,37.47c-.17.69-.34,1.48-.52,2.36a10.9,10.9,0,0,0-.26,2,3.11,3.11,0,0,0,.75,2.42,3.89,3.89,0,0,0,2.53.64,14.31,14.31,0,0,0,3.37-.59l-.47,2a30.19,30.19,0,0,1-4.35,1.65,11.9,11.9,0,0,1-3.19.47,5.24,5.24,0,0,1-3.59-1.17A4.64,4.64,0,0,1,570.73,187.71Zm4.45-19.92a4.85,4.85,0,0,0-.47-1.77,6.25,6.25,0,0,0-1-1.55,5.77,5.77,0,0,0-1.86-1.3,6.62,6.62,0,0,0-2.71-.51,7.81,7.81,0,0,0-4.55,1.5,14.36,14.36,0,0,0-3.77,4,20.69,20.69,0,0,0-2.5,5.81,25.23,25.23,0,0,0-.94,6.8,22.64,22.64,0,0,0,.22,3.38,9,9,0,0,0,.84,2.72,4.59,4.59,0,0,0,1.69,1.83,5.48,5.48,0,0,0,2.9.68,8.29,8.29,0,0,0,3.74-1,17.79,17.79,0,0,0,4.48-3.6Z"/><path class="cls-1" d="M55.13,64.75a26.49,26.49,0,0,1-2.46,11.52,25.71,25.71,0,0,1-6.47,8.57,29.37,29.37,0,0,1-9.27,5.35A31.73,31.73,0,0,1,26.23,92H6.88l.47-2.06a22.09,22.09,0,0,0,2.3-.16,9,9,0,0,0,2.11-.4,3.72,3.72,0,0,0,1.7-1.24,4.75,4.75,0,0,0,.8-1.89l7.37-31.91c.07-.25.12-.52.18-.82a4.72,4.72,0,0,0,.07-.74,2.79,2.79,0,0,0-.23-1.2,1.84,1.84,0,0,0-.95-.86,10.48,10.48,0,0,0-2-.64c-.8-.18-1.4-.3-1.82-.36l.47-2.06H36.13a26.37,26.37,0,0,1,6.13.79,19,19,0,0,1,6.19,2.74,14.91,14.91,0,0,1,4.86,5.42A17,17,0,0,1,55.13,64.75Zm-7.34,0q0-7-3.75-10.88a13.25,13.25,0,0,0-10-3.88c-.86,0-1.74,0-2.66,0l-2.16.08L21.31,84.59q-.09.43-.15.84a5.56,5.56,0,0,0-.06.79,2.7,2.7,0,0,0,1.56,2.64,12.49,12.49,0,0,0,5.12.76,17.15,17.15,0,0,0,8.49-2.12,19.32,19.32,0,0,0,6.36-5.66,27.11,27.11,0,0,0,3.88-8A31.81,31.81,0,0,0,47.79,64.79Z"/><path class="cls-1" d="M84.79,67a8.37,8.37,0,0,1-2.08,5.7,14.12,14.12,0,0,1-6,3.78,44.74,44.74,0,0,1-5.88,1.72c-2,.44-4.16.81-6.56,1.1q0,4.94,1.83,7.55a6.12,6.12,0,0,0,5.36,2.61,9.77,9.77,0,0,0,5.51-1.57,19.22,19.22,0,0,0,4.71-4.65l1.78,1.31a19.62,19.62,0,0,1-6.25,6.09,14.8,14.8,0,0,1-7.78,2.29c-3.69,0-6.51-1-8.46-3.1S58,84.78,58,81a22.68,22.68,0,0,1,1.24-7.52,21.59,21.59,0,0,1,3.61-6.56,17.82,17.82,0,0,1,5.67-4.69A15.55,15.55,0,0,1,76,60.44q4.5,0,6.67,1.83A5.84,5.84,0,0,1,84.79,67ZM79,66.18a4.43,4.43,0,0,0-.34-1.92,2.47,2.47,0,0,0-.88-1,2.85,2.85,0,0,0-1.18-.47,9.07,9.07,0,0,0-1.28-.09q-3.75,0-6.93,4.11a21.26,21.26,0,0,0-4,10.26c1.46-.21,3.1-.5,4.94-.89a18.16,18.16,0,0,0,4.56-1.51,9.34,9.34,0,0,0,3.86-3.45A9.55,9.55,0,0,0,79,66.18Z"/><path class="cls-1" d="M104.89,44.09,96.15,81.72c-.19.79-.36,1.58-.53,2.37A9.67,9.67,0,0,0,95.37,86a3,3,0,0,0,.79,2.44,4.06,4.06,0,0,0,2.58.65,16.78,16.78,0,0,0,1.85-.15,9.52,9.52,0,0,0,1.86-.38l-.47,2c-1.87.75-3.32,1.29-4.33,1.6a11.64,11.64,0,0,1-3.42.47,5.15,5.15,0,0,1-3.79-1.3,4.36,4.36,0,0,1-1.3-3.21,8.82,8.82,0,0,1,.14-1.5c.09-.52.22-1.18.39-2l7.62-32.93c.14-.64.24-1.09.29-1.34a4.84,4.84,0,0,0,.08-.94,3.3,3.3,0,0,0-.37-1.73,2.43,2.43,0,0,0-1.07-.93,5.83,5.83,0,0,0-1.67-.37c-.67-.06-1.35-.14-2-.22L93,44.31l11.63-.69Z"/><path class="cls-1" d="M122.15,88.59l-.47,2a41.07,41.07,0,0,1-4.59,1.61,12,12,0,0,1-2.94.46,5,5,0,0,1-3.75-1.3,4.48,4.48,0,0,1-1.25-3.21,8.78,8.78,0,0,1,.13-1.5c.08-.52.22-1.18.4-2l3.3-13.3c.17-.73.33-1.51.49-2.34a12.53,12.53,0,0,0,.23-2.13,3.34,3.34,0,0,0-.58-2.33,3.39,3.39,0,0,0-2.35-.58,9.87,9.87,0,0,0-1.83.22c-.75.14-1.33.27-1.73.37l.47-2A29.94,29.94,0,0,1,112.06,61a12,12,0,0,1,3.06-.53,4.89,4.89,0,0,1,3.71,1.22A4.58,4.58,0,0,1,120,64.94a11.69,11.69,0,0,1-.13,1.54,15,15,0,0,1-.37,1.94l-3.32,13.29c-.21.81-.39,1.61-.54,2.39a10.13,10.13,0,0,0-.24,1.93,3,3,0,0,0,.8,2.44,4,4,0,0,0,2.57.65,13.48,13.48,0,0,0,1.69-.15A8.61,8.61,0,0,0,122.15,88.59Zm2.22-40a4.58,4.58,0,0,1-1.16,3.11,3.7,3.7,0,0,1-5.62.07,4.19,4.19,0,0,1-1.16-2.89,4.33,4.33,0,0,1,1.16-3,3.58,3.58,0,0,1,2.75-1.29,3.82,3.82,0,0,1,2.91,1.21A4,4,0,0,1,124.37,48.62Z"/><path class="cls-1" d="M156.62,66.22a34,34,0,0,1-1.43,9.65,30,30,0,0,1-3.94,8.56,22.38,22.38,0,0,1-6,6.15,13.51,13.51,0,0,1-7.69,2.36A9.2,9.2,0,0,1,131,90.67a7.93,7.93,0,0,1-2.44-6.09,9.11,9.11,0,0,1,.17-1.62l.24-1.22,2.72-10c.21-.82.39-1.61.54-2.4a10.35,10.35,0,0,0,.24-2,3.29,3.29,0,0,0-.61-2.34,3.48,3.48,0,0,0-2.39-.6,8.08,8.08,0,0,0-1.78.27L126,65l.47-2a38.33,38.33,0,0,1,4.33-1.68,10.91,10.91,0,0,1,3-.59,5.18,5.18,0,0,1,3.7,1.16,4.44,4.44,0,0,1,1.2,3.35,13.07,13.07,0,0,1-.1,1.51,15.53,15.53,0,0,1-.4,2l-3,11.67a18.9,18.9,0,0,0-.47,2.28,12.22,12.22,0,0,0-.16,1.41,5.87,5.87,0,0,0,.52,2.64,4.12,4.12,0,0,0,1.3,1.58,4.53,4.53,0,0,0,1.64.75,7.4,7.4,0,0,0,1.83.22A8.7,8.7,0,0,0,144.27,88a14.31,14.31,0,0,0,3.95-3.51,20.26,20.26,0,0,0,3-5.24,17.5,17.5,0,0,0,1.12-6.39,6.61,6.61,0,0,0-.51-2.9,10.38,10.38,0,0,0-1.14-1.77,13.32,13.32,0,0,1-1.14-1.64A4.65,4.65,0,0,1,149,64.1a3.26,3.26,0,0,1,1.19-2.72,3.94,3.94,0,0,1,2.5-.94,3.34,3.34,0,0,1,2.89,1.48A7.42,7.42,0,0,1,156.62,66.22Z"/><path class="cls-1" d="M186.7,67a8.37,8.37,0,0,1-2.08,5.7,14.1,14.1,0,0,1-6.05,3.78,44.16,44.16,0,0,1-5.87,1.72q-3,.66-6.56,1.1,0,4.94,1.82,7.55a6.13,6.13,0,0,0,5.36,2.61,9.78,9.78,0,0,0,5.52-1.57,19.2,19.2,0,0,0,4.7-4.65l1.78,1.31a19.52,19.52,0,0,1-6.25,6.09,14.78,14.78,0,0,1-7.78,2.29c-3.68,0-6.5-1-8.45-3.1s-2.92-5-2.92-8.79a22.94,22.94,0,0,1,1.23-7.52,21.8,21.8,0,0,1,3.61-6.56,17.82,17.82,0,0,1,5.67-4.69,15.59,15.59,0,0,1,7.43-1.78q4.5,0,6.67,1.83A5.87,5.87,0,0,1,186.7,67ZM181,66.18a4.59,4.59,0,0,0-.34-1.92,2.55,2.55,0,0,0-.88-1,2.83,2.83,0,0,0-1.19-.47,8.87,8.87,0,0,0-1.28-.09q-3.75,0-6.92,4.11a21.27,21.27,0,0,0-4,10.26c1.46-.21,3.11-.5,4.94-.89a18,18,0,0,0,4.56-1.51,9.27,9.27,0,0,0,3.86-3.45A9.46,9.46,0,0,0,181,66.18Z"/><path class="cls-1" d="M218.15,65.53a8.66,8.66,0,0,1-.25,1.92,5.36,5.36,0,0,1-.72,1.74,4.66,4.66,0,0,1-1.24,1.29,3.36,3.36,0,0,1-1.92.46,3.41,3.41,0,0,1-2.53-.85,2.59,2.59,0,0,1-.84-1.87,6,6,0,0,1,.46-2.17c.32-.8.64-1.6,1-2.39a5.73,5.73,0,0,0-1.23.2,10.43,10.43,0,0,0-2.07.8A16.08,16.08,0,0,0,206,66.44a24.26,24.26,0,0,0-3.29,3.16l-5,22.4h-5.83l4.56-20.27c.11-.5.26-1.25.46-2.26a13.38,13.38,0,0,0,.29-2.22,3.4,3.4,0,0,0-.59-2.34,3.42,3.42,0,0,0-2.37-.6,8.27,8.27,0,0,0-1.75.24c-.71.15-1.26.28-1.66.39l.47-2a33.27,33.27,0,0,1,4.31-1.63,12.32,12.32,0,0,1,3.22-.53,4.22,4.22,0,0,1,3.56,1.36,6.56,6.56,0,0,1,1.06,4.08h.19a66.63,66.63,0,0,1,5.64-4.5,7.19,7.19,0,0,1,4-1.28,7.37,7.37,0,0,1,1.94.25,3.8,3.8,0,0,1,1.59.84,4.08,4.08,0,0,1,1,1.52A7.22,7.22,0,0,1,218.15,65.53Z"/><path class="cls-1" d="M235.85,88.59l-.47,2a41.07,41.07,0,0,1-4.59,1.61,12,12,0,0,1-2.94.46,5,5,0,0,1-3.75-1.3,4.48,4.48,0,0,1-1.25-3.21,8.78,8.78,0,0,1,.13-1.5c.08-.52.22-1.18.4-2l3.3-13.3c.17-.73.33-1.51.49-2.34a12.53,12.53,0,0,0,.23-2.13,3.34,3.34,0,0,0-.58-2.33,3.39,3.39,0,0,0-2.35-.58,9.87,9.87,0,0,0-1.83.22c-.75.14-1.33.27-1.73.37l.47-2A29.94,29.94,0,0,1,225.76,61a12,12,0,0,1,3.06-.53,4.89,4.89,0,0,1,3.71,1.22,4.58,4.58,0,0,1,1.16,3.28,11.69,11.69,0,0,1-.13,1.54,15,15,0,0,1-.37,1.94l-3.32,13.29c-.21.81-.39,1.61-.54,2.39a10.13,10.13,0,0,0-.24,1.93,3,3,0,0,0,.8,2.44,4,4,0,0,0,2.57.65,13.48,13.48,0,0,0,1.69-.15A8.61,8.61,0,0,0,235.85,88.59Zm2.22-40a4.58,4.58,0,0,1-1.16,3.11,3.7,3.7,0,0,1-5.62.07,4.19,4.19,0,0,1-1.16-2.89,4.33,4.33,0,0,1,1.16-3A3.58,3.58,0,0,1,234,44.62,3.82,3.82,0,0,1,237,45.83,4,4,0,0,1,238.07,48.62Z"/><path class="cls-1" d="M274.53,88.38l-.47,2c-1.88.74-3.35,1.29-4.39,1.64a10.2,10.2,0,0,1-3.17.51,5,5,0,0,1-3.76-1.3,4.4,4.4,0,0,1-1.25-3.2,10.65,10.65,0,0,1,.12-1.52,19.91,19.91,0,0,1,.41-2l3.09-11.67c.23-.89.41-1.71.55-2.44a10.59,10.59,0,0,0,.2-1.75,5,5,0,0,0-1-3.31,3.54,3.54,0,0,0-2.94-1.22,9.17,9.17,0,0,0-4.25,1.25A15.54,15.54,0,0,0,253.24,69L247.9,92h-5.84l4.69-20.27c.1-.5.25-1.23.45-2.18a11.67,11.67,0,0,0,.3-2.3,3.34,3.34,0,0,0-.6-2.34,3.41,3.41,0,0,0-2.38-.6,8.35,8.35,0,0,0-1.76.24c-.71.15-1.27.28-1.67.39l.47-2a33.5,33.5,0,0,1,4.34-1.63,12.39,12.39,0,0,1,3.24-.53,4.25,4.25,0,0,1,3.54,1.35,6.08,6.08,0,0,1,1.14,3.72H254a39.39,39.39,0,0,1,5.92-4.08,11.8,11.8,0,0,1,5.66-1.33,5.9,5.9,0,0,1,6.36,6.29,19.18,19.18,0,0,1-.18,2,19.49,19.49,0,0,1-.54,2.84l-2.63,10.05c-.19.66-.37,1.43-.55,2.3a10.35,10.35,0,0,0-.26,2,3,3,0,0,0,.78,2.43,4,4,0,0,0,2.56.64,10.91,10.91,0,0,0,1.71-.2A12.3,12.3,0,0,0,274.53,88.38Z"/><path class="cls-1" d="M299.49,87.78l-.22-.07c-.42.34-1,.81-1.77,1.41a16.33,16.33,0,0,1-2.39,1.6,17,17,0,0,1-2.9,1.37,9.35,9.35,0,0,1-3.25.53,8.28,8.28,0,0,1-7-3.2c-1.63-2.14-2.45-5.08-2.45-8.84A20.84,20.84,0,0,1,280.94,73a22.16,22.16,0,0,1,3.89-6.5,18.44,18.44,0,0,1,5.69-4.43,15.26,15.26,0,0,1,6.94-1.67,15.05,15.05,0,0,1,4.25.58,12.25,12.25,0,0,1,3.22,1.36l5.72-1.47.37.47L305.77,86a42.11,42.11,0,0,1-3,9.46,20.17,20.17,0,0,1-4.3,6.11,15,15,0,0,1-5.52,3.3,21.82,21.82,0,0,1-6.83,1,18.13,18.13,0,0,1-4.23-.41,8,8,0,0,1-2.58-1.06,3.36,3.36,0,0,1-1.26-1.49,4.26,4.26,0,0,1-.33-1.58,3.46,3.46,0,0,1,.84-2.36,2.94,2.94,0,0,1,2.31-1,3,3,0,0,1,2,.67,6.64,6.64,0,0,1,1.32,1.46,14.78,14.78,0,0,1,1,1.93c.33.75.58,1.32.75,1.69h.93a10,10,0,0,0,3.69-.78,9.92,9.92,0,0,0,3.59-2.53,19.5,19.5,0,0,0,3.1-4.86A31.42,31.42,0,0,0,299.49,87.78Zm4.16-20a6.34,6.34,0,0,0-.27-1.8,4.12,4.12,0,0,0-1-1.71,4.93,4.93,0,0,0-1.75-1.19,7.19,7.19,0,0,0-2.71-.43,7.94,7.94,0,0,0-4.54,1.45,14.71,14.71,0,0,0-3.85,4A20.85,20.85,0,0,0,287,73.86a23.66,23.66,0,0,0-1,6.79,20.85,20.85,0,0,0,.26,3.39,8.33,8.33,0,0,0,.93,2.71,4.75,4.75,0,0,0,1.73,1.8,5.5,5.5,0,0,0,2.8.64A8.44,8.44,0,0,0,296,87.92a19.72,19.72,0,0,0,4.1-3.24Z"/><path class="cls-1" d="M369.13,47.66l-.47,2.06a21.39,21.39,0,0,0-2.25.23,14.84,14.84,0,0,0-2.31.52,3.18,3.18,0,0,0-1.74,1.22,6.51,6.51,0,0,0-.79,1.93l-5.95,26.44a17,17,0,0,1-1.77,4.42,16.07,16.07,0,0,1-3.33,4.18,18.28,18.28,0,0,1-4.84,3.18,14.93,14.93,0,0,1-6.27,1.22,10.62,10.62,0,0,1-7-2.18,7.47,7.47,0,0,1-2.62-6.07,9.48,9.48,0,0,1,1.54-5.4,4.67,4.67,0,0,1,4.05-2.32A3.39,3.39,0,0,1,338,78a3.14,3.14,0,0,1,.78,2.12,5.51,5.51,0,0,1-.53,2.26,11.77,11.77,0,0,1-1.38,2.24c-.5.65-1.05,1.32-1.66,2a22.28,22.28,0,0,0-1.4,1.77,4.25,4.25,0,0,0,1.75,1.68,7.66,7.66,0,0,0,3.8.75,7.25,7.25,0,0,0,4-1,8.69,8.69,0,0,0,2.76-2.8A19.44,19.44,0,0,0,348,82.88a52.23,52.23,0,0,0,1.45-5.32l5.32-23.63c0-.1.05-.25.08-.46a4.13,4.13,0,0,0,0-.56,2.47,2.47,0,0,0-.29-1.19,2.21,2.21,0,0,0-1-.91,6.72,6.72,0,0,0-2.37-.76q-1.56-.27-2.31-.33l.47-2.06Z"/><path class="cls-1" d="M395.54,72.73a23,23,0,0,1-1.25,7.38,19.58,19.58,0,0,1-3.63,6.48,18.34,18.34,0,0,1-5.79,4.61A17,17,0,0,1,377,92.94a11.21,11.21,0,0,1-8.43-3.35,12.43,12.43,0,0,1-3.23-9,21.69,21.69,0,0,1,5.06-14.07,17.87,17.87,0,0,1,5.8-4.4,17,17,0,0,1,7.48-1.67q5.56,0,8.71,3.39A12.6,12.6,0,0,1,395.54,72.73Zm-6.38-1.19c0-3-.52-5.18-1.58-6.66A5.22,5.22,0,0,0,383,62.66a8.44,8.44,0,0,0-4.89,1.59,12.63,12.63,0,0,0-4,5.19,24.13,24.13,0,0,0-1.87,6.06,34.79,34.79,0,0,0-.59,6.15q0,4.47,1.54,6.77a5.26,5.26,0,0,0,4.67,2.3A7.65,7.65,0,0,0,382.88,89a13.15,13.15,0,0,0,3.5-4.45,23.92,23.92,0,0,0,2.06-6A33.41,33.41,0,0,0,389.16,71.54Z"/><path class="cls-1" d="M421,87.47h-.19a32.61,32.61,0,0,1-5.47,3.78,12.39,12.39,0,0,1-5.91,1.37,6.42,6.42,0,0,1-4.75-1.73,6.11,6.11,0,0,1-1.75-4.55,15.73,15.73,0,0,1,.12-1.78c.08-.68.28-1.71.59-3.06l2.43-9.75c.23-.94.41-1.75.53-2.45a11,11,0,0,0,.19-2,3.36,3.36,0,0,0-.58-2.33,3.45,3.45,0,0,0-2.35-.57,7.31,7.31,0,0,0-1.75.26q-1.06.26-1.65.42l.47-2a35.56,35.56,0,0,1,4.29-1.67,10.82,10.82,0,0,1,3-.57,5.27,5.27,0,0,1,3.7,1.13,4.4,4.4,0,0,1,1.2,3.37,13,13,0,0,1-.12,1.53,14.45,14.45,0,0,1-.38,1.94l-2.83,11.41c-.21.87-.39,1.69-.53,2.45a9.66,9.66,0,0,0-.22,1.74,5,5,0,0,0,1,3.31,3.66,3.66,0,0,0,3,1.22,9.62,9.62,0,0,0,4.46-1.13,15.82,15.82,0,0,0,4.08-3.09l5.17-23.38,5.4-.37.37.47-5.37,24.47a41.82,41.82,0,0,1-3,9.18,20.9,20.9,0,0,1-4.31,6.16,16.2,16.2,0,0,1-5.59,3.56,19.89,19.89,0,0,1-6.85,1.1,18.86,18.86,0,0,1-4.22-.38,6.87,6.87,0,0,1-2.46-1,3.14,3.14,0,0,1-1.22-1.41,4.15,4.15,0,0,1-.32-1.56,3.7,3.7,0,0,1,.82-2.38,2.82,2.82,0,0,1,2.34-1,3,3,0,0,1,2,.66,6.07,6.07,0,0,1,1.31,1.44,13.06,13.06,0,0,1,1,1.9c.31.71.56,1.27.75,1.69h.75a9.38,9.38,0,0,0,3.76-.87,10.82,10.82,0,0,0,3.65-2.72,20.46,20.46,0,0,0,3.2-5.16A33.74,33.74,0,0,0,421,87.47Z"/><path class="cls-1" d="M467.21,64.31l-5.5,25.81a21.07,21.07,0,0,1-6.18,11.35q-4.72,4.41-9.71,4.41a6.36,6.36,0,0,1-4-1,3.25,3.25,0,0,1-1.3-2.64,3.75,3.75,0,0,1,.81-2.38,2.81,2.81,0,0,1,2.35-1,3.29,3.29,0,0,1,1.7.44,5.42,5.42,0,0,1,1.3,1.09,13,13,0,0,1,1,1.44c.37.6.68,1.13,1,1.56,1.6-.12,3-1.21,4.1-3.25a33.28,33.28,0,0,0,3-8.75l5.76-27h-6.11l.66-2.84h6l.45-2.12a22.74,22.74,0,0,1,2.37-6.52,22,22,0,0,1,3.69-4.93,15.39,15.39,0,0,1,4.61-3.14,12.24,12.24,0,0,1,5-1.14,6.4,6.4,0,0,1,4,1.05,3.28,3.28,0,0,1,1.3,2.64,3.9,3.9,0,0,1-.77,2.38,2.78,2.78,0,0,1-2.4,1,3.29,3.29,0,0,1-1.69-.42,4.68,4.68,0,0,1-1.29-1.11,9.85,9.85,0,0,1-1-1.47c-.25-.46-.57-1-.95-1.53q-2.16.09-3.82,2.84t-3,9.13l-.7,3.31h7.89L475,64.31Z"/><path class="cls-1" d="M503.57,65.53a8.66,8.66,0,0,1-.25,1.92,5.36,5.36,0,0,1-.72,1.74,4.66,4.66,0,0,1-1.24,1.29,3.36,3.36,0,0,1-1.92.46,3.41,3.41,0,0,1-2.53-.85,2.59,2.59,0,0,1-.84-1.87,6,6,0,0,1,.46-2.17c.32-.8.64-1.6,1-2.39a5.73,5.73,0,0,0-1.23.2,10.43,10.43,0,0,0-2.07.8,16.08,16.08,0,0,0-2.76,1.78,24.26,24.26,0,0,0-3.29,3.16l-5,22.4h-5.83l4.56-20.27c.11-.5.26-1.25.46-2.26a13.38,13.38,0,0,0,.29-2.22,3.4,3.4,0,0,0-.59-2.34,3.42,3.42,0,0,0-2.37-.6,8.18,8.18,0,0,0-1.75.24c-.71.15-1.26.28-1.66.39l.47-2A33.27,33.27,0,0,1,481,61.31a12.32,12.32,0,0,1,3.22-.53,4.22,4.22,0,0,1,3.56,1.36,6.56,6.56,0,0,1,1.06,4.08H489a66.63,66.63,0,0,1,5.64-4.5,7.19,7.19,0,0,1,4-1.28,7.37,7.37,0,0,1,1.94.25,3.8,3.8,0,0,1,1.59.84,4.08,4.08,0,0,1,1,1.52A7.22,7.22,0,0,1,503.57,65.53Z"/><path class="cls-1" d="M535.82,72.73a23,23,0,0,1-1.25,7.38A19.56,19.56,0,0,1,531,86.59a18.5,18.5,0,0,1-5.8,4.61,17,17,0,0,1-7.86,1.74,11.18,11.18,0,0,1-8.42-3.35,12.39,12.39,0,0,1-3.24-9A21.51,21.51,0,0,1,507,72.82a21.22,21.22,0,0,1,3.69-6.31,17.72,17.72,0,0,1,5.79-4.4A17,17,0,0,1,524,60.44q5.57,0,8.7,3.39A12.6,12.6,0,0,1,535.82,72.73Zm-6.37-1.19q0-4.44-1.58-6.66a5.24,5.24,0,0,0-4.55-2.22,8.44,8.44,0,0,0-4.89,1.59,12.54,12.54,0,0,0-3.95,5.19,24.14,24.14,0,0,0-1.88,6.06,35.76,35.76,0,0,0-.59,6.15c0,3,.51,5.24,1.55,6.77a5.25,5.25,0,0,0,4.67,2.3A7.67,7.67,0,0,0,523.17,89a13.4,13.4,0,0,0,3.5-4.45,24.32,24.32,0,0,0,2.06-6A33.41,33.41,0,0,0,529.45,71.54Z"/><path class="cls-1" d="M592,88.47l-.47,2a41.84,41.84,0,0,1-4.61,1.61,12,12,0,0,1-2.95.45,5,5,0,0,1-3.76-1.3,4.4,4.4,0,0,1-1.26-3.2,9.45,9.45,0,0,1,.13-1.52,19.91,19.91,0,0,1,.41-2l3.08-11.67c.24-.89.42-1.71.55-2.44a9.77,9.77,0,0,0,.21-1.75,5.4,5.4,0,0,0-.91-3.31,3.29,3.29,0,0,0-2.85-1.22,9.28,9.28,0,0,0-4.09,1,17,17,0,0,0-4.52,3.68L565.44,92h-5.8l4.92-20.9c.11-.46.21-.94.3-1.45A7.36,7.36,0,0,0,565,68.5a4.73,4.73,0,0,0-1-3.19,3.71,3.71,0,0,0-3-1.15,10.22,10.22,0,0,0-3.92.89,15.43,15.43,0,0,0-5,4l-5.34,23H541l4.69-20.27c.16-.73.32-1.51.48-2.35a11.41,11.41,0,0,0,.23-2.13,3.42,3.42,0,0,0-.59-2.39,3.38,3.38,0,0,0-2.32-.58,8.17,8.17,0,0,0-1.78.26L540,65l.47-2a31.6,31.6,0,0,1,4.34-1.63,12,12,0,0,1,3.23-.54,4.23,4.23,0,0,1,3.57,1.36,6.22,6.22,0,0,1,1.11,3.71h.19A42.45,42.45,0,0,1,559,61.69a11.93,11.93,0,0,1,5.65-1.25,6.31,6.31,0,0,1,4.51,1.61,6,6,0,0,1,2,4h.13a39,39,0,0,1,5.93-4.22,12.28,12.28,0,0,1,6-1.44,6,6,0,0,1,4.59,1.73,6.46,6.46,0,0,1,1.61,4.56,19.18,19.18,0,0,1-.18,2,19.49,19.49,0,0,1-.54,2.84L586,81.62c-.18.66-.36,1.43-.53,2.3a11,11,0,0,0-.25,2,3.12,3.12,0,0,0,.75,2.43,3.92,3.92,0,0,0,2.54.64,12.74,12.74,0,0,0,1.72-.16A9,9,0,0,0,592,88.47Z"/><path class="cls-1" d="M70.24,147.66l-.46,2.06a20.88,20.88,0,0,0-2.25.23,15.26,15.26,0,0,0-2.32.52,3.11,3.11,0,0,0-1.73,1.22,6.51,6.51,0,0,0-.8,1.93l-6,26.44a17.26,17.26,0,0,1-5.09,8.6,18.44,18.44,0,0,1-4.84,3.18,14.94,14.94,0,0,1-6.28,1.22,10.64,10.64,0,0,1-7-2.18,7.5,7.5,0,0,1-2.62-6.07,9.49,9.49,0,0,1,1.55-5.4,4.67,4.67,0,0,1,4-2.32,3.38,3.38,0,0,1,2.66.91,3.14,3.14,0,0,1,.78,2.12,5.51,5.51,0,0,1-.53,2.26A11.23,11.23,0,0,1,38,184.62c-.5.65-1.06,1.32-1.66,2s-1.07,1.29-1.41,1.77a4.31,4.31,0,0,0,1.75,1.68,7.67,7.67,0,0,0,3.81.75,7.28,7.28,0,0,0,3.95-1,8.69,8.69,0,0,0,2.76-2.8,19.44,19.44,0,0,0,1.89-4.12,55,55,0,0,0,1.45-5.32l5.31-23.63a3.74,3.74,0,0,0,.08-.46,4.13,4.13,0,0,0,0-.56,2.46,2.46,0,0,0-.28-1.19,2.27,2.27,0,0,0-1-.91,6.71,6.71,0,0,0-2.38-.76q-1.56-.27-2.31-.33l.47-2.06Z"/><path class="cls-1" d="M85.46,187.87h-.22c-.46.38-1,.85-1.64,1.42a15.55,15.55,0,0,1-2.23,1.65,16.19,16.19,0,0,1-2.66,1.36,8.33,8.33,0,0,1-3.12.58,8.57,8.57,0,0,1-7.1-3.26q-2.56-3.26-2.57-8.88a20.41,20.41,0,0,1,1.44-7.54,22.16,22.16,0,0,1,4-6.57A19,19,0,0,1,77,162.14a14.73,14.73,0,0,1,6.8-1.7,15.19,15.19,0,0,1,4.24.59,12.63,12.63,0,0,1,3.17,1.35L97,160.91l.38.47L92.6,181.55c-.17.65-.34,1.44-.52,2.37a11.93,11.93,0,0,0-.27,2.05,3,3,0,0,0,.76,2.4,4,4,0,0,0,2.53.63,10.22,10.22,0,0,0,1.69-.19,10.35,10.35,0,0,0,1.69-.4l-.47,2c-1.88.75-3.28,1.29-4.19,1.62a10,10,0,0,1-3.35.5,4.83,4.83,0,0,1-3.57-1.31A5,5,0,0,1,85.46,187.87ZM90,168.1a8.44,8.44,0,0,0-.22-2,4.15,4.15,0,0,0-.91-1.75,4.27,4.27,0,0,0-1.72-1.25,6.86,6.86,0,0,0-2.75-.47,7.7,7.7,0,0,0-4.44,1.5,15.1,15.1,0,0,0-3.87,4A21,21,0,0,0,73.39,174a23.27,23.27,0,0,0-1,6.85,22.64,22.64,0,0,0,.22,3.38,8.38,8.38,0,0,0,.84,2.69,4.25,4.25,0,0,0,1.71,1.85,5.55,5.55,0,0,0,2.84.66,8,8,0,0,0,3.67-1A18.08,18.08,0,0,0,86,184.93Z"/><path class="cls-1" d="M136.16,172.39a22.08,22.08,0,0,1-5.37,14.45,18.29,18.29,0,0,1-5.88,4.5,15.36,15.36,0,0,1-6.51,1.47,12.65,12.65,0,0,1-4.4-.65,13.07,13.07,0,0,1-3.06-1.63l-1.83,8.19c-.12.52-.22,1-.29,1.47a6.5,6.5,0,0,0-.11,1.09,1.63,1.63,0,0,0,.61,1.34,3.55,3.55,0,0,0,1.39.72,9.26,9.26,0,0,0,1.75.38c.64.08,1.23.14,1.75.19l-.44,2H96.54l.43-2,1.88-.16a10.49,10.49,0,0,0,1.65-.31,2.88,2.88,0,0,0,1.55-1.05,4.81,4.81,0,0,0,.83-1.89l6.52-28.78c.17-.79.32-1.59.47-2.39a11.42,11.42,0,0,0,.22-2.08,3.53,3.53,0,0,0-.55-2.34,3.26,3.26,0,0,0-2.35-.6,7.4,7.4,0,0,0-1.75.27l-1.65.42.46-2a37.23,37.23,0,0,1,4.29-1.64,11.34,11.34,0,0,1,3.25-.58,4.52,4.52,0,0,1,3.31,1.11,5.24,5.24,0,0,1,1.41,3.08h.25a21.63,21.63,0,0,1,4.54-3.25,10.33,10.33,0,0,1,4.83-1.28,9,9,0,0,1,7.39,3.24C135.28,165.83,136.16,168.74,136.16,172.39Zm-9.75,12.92a21.2,21.2,0,0,0,2.45-5.84,26.86,26.86,0,0,0,.86-6.93,19.89,19.89,0,0,0-.29-3.33,8.1,8.1,0,0,0-1-2.77,4.92,4.92,0,0,0-1.87-1.89,6.29,6.29,0,0,0-3.13-.67,7.2,7.2,0,0,0-3.17.87,18.84,18.84,0,0,0-4.23,3.29l-4,17.74a5.48,5.48,0,0,0,1.92,3.33,5.89,5.89,0,0,0,4.11,1.55,8.18,8.18,0,0,0,4.62-1.44A12.7,12.7,0,0,0,126.41,185.31Z"/><path class="cls-1" d="M159.62,187.87h-.21c-.46.38-1,.85-1.64,1.42a15.55,15.55,0,0,1-2.23,1.65,16.61,16.61,0,0,1-2.66,1.36,8.33,8.33,0,0,1-3.12.58,8.57,8.57,0,0,1-7.1-3.26q-2.57-3.26-2.57-8.88a20.6,20.6,0,0,1,1.43-7.54,22.4,22.4,0,0,1,4-6.57,19,19,0,0,1,5.72-4.49,14.73,14.73,0,0,1,6.8-1.7,15.06,15.06,0,0,1,4.23.59,12.31,12.31,0,0,1,3.17,1.35l5.74-1.47.38.47-4.77,20.17q-.24,1-.51,2.37A11.93,11.93,0,0,0,166,186a3,3,0,0,0,.75,2.4,4,4,0,0,0,2.54.63,10.22,10.22,0,0,0,1.69-.19,10.35,10.35,0,0,0,1.69-.4l-.47,2q-2.82,1.13-4.2,1.62a9.9,9.9,0,0,1-3.35.5,4.86,4.86,0,0,1-3.57-1.31A5.06,5.06,0,0,1,159.62,187.87Zm4.51-19.77a9,9,0,0,0-.22-2,4.15,4.15,0,0,0-.91-1.75,4.34,4.34,0,0,0-1.72-1.25,6.86,6.86,0,0,0-2.75-.47,7.7,7.7,0,0,0-4.44,1.5,15.28,15.28,0,0,0-3.88,4,21,21,0,0,0-2.65,5.76,23.27,23.27,0,0,0-1,6.85,24.18,24.18,0,0,0,.21,3.38,8.65,8.65,0,0,0,.85,2.69,4.25,4.25,0,0,0,1.71,1.85,5.55,5.55,0,0,0,2.84.66,8,8,0,0,0,3.66-1,17.69,17.69,0,0,0,4.32-3.46Z"/><path class="cls-1" d="M209.89,188.38l-.47,2c-1.88.74-3.35,1.29-4.39,1.64a10.25,10.25,0,0,1-3.17.51,5,5,0,0,1-3.76-1.3,4.4,4.4,0,0,1-1.26-3.2,9.45,9.45,0,0,1,.13-1.52,19.91,19.91,0,0,1,.41-2l3.08-11.67c.23-.89.42-1.71.55-2.44a9.6,9.6,0,0,0,.2-1.75,5.1,5.1,0,0,0-1-3.31,3.54,3.54,0,0,0-2.94-1.22,9.14,9.14,0,0,0-4.25,1.25A15.54,15.54,0,0,0,188.6,169l-5.34,23h-5.84l4.68-20.27c.11-.5.26-1.23.46-2.18a11.53,11.53,0,0,0,.29-2.3,3.35,3.35,0,0,0-.59-2.34,3.44,3.44,0,0,0-2.39-.6,8.43,8.43,0,0,0-1.76.24c-.71.15-1.26.28-1.66.39l.47-2a33,33,0,0,1,4.34-1.63,12.32,12.32,0,0,1,3.23-.53,4.25,4.25,0,0,1,3.55,1.35,6.08,6.08,0,0,1,1.13,3.72h.19a38.41,38.41,0,0,1,5.92-4.08,11.77,11.77,0,0,1,5.66-1.33,6.23,6.23,0,0,1,4.67,1.73,6.29,6.29,0,0,1,1.68,4.56,18.35,18.35,0,0,1-.17,2,19.51,19.51,0,0,1-.55,2.84L204,181.62c-.19.66-.37,1.43-.55,2.3a10.52,10.52,0,0,0-.27,2,3,3,0,0,0,.78,2.43,4.07,4.07,0,0,0,2.57.64,10.81,10.81,0,0,0,1.7-.2A12.51,12.51,0,0,0,209.89,188.38Z"/><path class="cls-1" d="M238.56,192.66a6.53,6.53,0,0,1-4.35-1.21,4.35,4.35,0,0,1-1.37-3.45,9.81,9.81,0,0,1,.09-1.36c.06-.43.15-.91.25-1.45l4.87-20.88h-5.59l.66-2.84h5.71l2.18-9.16h5.62l-2.12,9.16h8.7l-.65,2.84h-8.63l-4,17.22c-.19.79-.35,1.56-.47,2.3a11.13,11.13,0,0,0-.19,1.89,3.29,3.29,0,0,0,.86,2.51,4.56,4.56,0,0,0,3.11.8,18.78,18.78,0,0,0,2.28-.2,11.09,11.09,0,0,0,2.29-.52l-.54,2.28c-1.45.57-2.83,1-4.12,1.46A15.44,15.44,0,0,1,238.56,192.66Z"/><path class="cls-1" d="M283.14,172.73a23,23,0,0,1-1.25,7.38,19.4,19.4,0,0,1-3.63,6.48,18.34,18.34,0,0,1-5.79,4.61,17,17,0,0,1-7.86,1.74,11.18,11.18,0,0,1-8.42-3.35,12.39,12.39,0,0,1-3.24-9A21.69,21.69,0,0,1,258,166.51a17.87,17.87,0,0,1,5.8-4.4,17,17,0,0,1,7.49-1.67c3.7,0,6.61,1.13,8.7,3.39A12.6,12.6,0,0,1,283.14,172.73Zm-6.38-1.19q0-4.44-1.57-6.66a5.25,5.25,0,0,0-4.55-2.22,8.44,8.44,0,0,0-4.89,1.59,12.54,12.54,0,0,0-3.95,5.19,24.14,24.14,0,0,0-1.88,6.06,34.79,34.79,0,0,0-.59,6.15q0,4.47,1.54,6.77a5.27,5.27,0,0,0,4.68,2.3,7.63,7.63,0,0,0,4.93-1.75,13.15,13.15,0,0,0,3.5-4.45,23.92,23.92,0,0,0,2.07-6A34.1,34.1,0,0,0,276.76,171.54Z"/><path class="cls-1" d="M312.06,192.66a6.48,6.48,0,0,1-4.34-1.21,4.33,4.33,0,0,1-1.38-3.45,9.81,9.81,0,0,1,.09-1.36c.07-.43.15-.91.25-1.45l4.88-20.88H306l.65-2.84h5.71l2.18-9.16h5.62L318,161.47h8.71l-.66,2.84h-8.63l-4,17.22c-.19.79-.34,1.56-.47,2.3a12.1,12.1,0,0,0-.18,1.89,3.28,3.28,0,0,0,.85,2.51,4.58,4.58,0,0,0,3.11.8,18.75,18.75,0,0,0,2.29-.2,10.82,10.82,0,0,0,2.28-.52l-.53,2.28c-1.46.57-2.84,1-4.13,1.46A15.44,15.44,0,0,1,312.06,192.66Z"/><path class="cls-1" d="M358.52,188.38l-.47,2q-2.82,1.11-4.38,1.64a10.14,10.14,0,0,1-3.16.51,5,5,0,0,1-3.75-1.3,4.4,4.4,0,0,1-1.26-3.2,10.76,10.76,0,0,1,.13-1.52,19.91,19.91,0,0,1,.41-2l3.06-11.67c.23-.89.41-1.71.54-2.44a9.77,9.77,0,0,0,.21-1.75,5,5,0,0,0-1-3.31,3.54,3.54,0,0,0-2.94-1.22,8.87,8.87,0,0,0-4.3,1.28,17.18,17.18,0,0,0-4.38,3.6l-5.31,23h-5.84l9.3-40.25c.11-.48.2-.88.27-1.22a5.07,5.07,0,0,0,.11-1.06,3.29,3.29,0,0,0-.38-1.73,2.35,2.35,0,0,0-1.06-.93,5.18,5.18,0,0,0-1.64-.37c-.69-.06-1.38-.14-2.07-.22l.44-1.91,11.63-.69.31.47-5,21.6h.12a36.14,36.14,0,0,1,5.73-3.92,12,12,0,0,1,5.73-1.33,6.2,6.2,0,0,1,4.66,1.73,6.29,6.29,0,0,1,1.68,4.56,18.35,18.35,0,0,1-.17,2,19.49,19.49,0,0,1-.54,2.84l-2.63,10.05c-.17.66-.35,1.43-.53,2.3a10.07,10.07,0,0,0-.29,2,3,3,0,0,0,.79,2.43,4,4,0,0,0,2.56.64,10.68,10.68,0,0,0,1.7-.2A12.51,12.51,0,0,0,358.52,188.38Z"/><path class="cls-1" d="M390.26,167a8.37,8.37,0,0,1-2.08,5.7,14.1,14.1,0,0,1-6.05,3.78,44.16,44.16,0,0,1-5.87,1.72q-3,.66-6.56,1.1,0,4.94,1.83,7.55a6.11,6.11,0,0,0,5.35,2.61,9.78,9.78,0,0,0,5.52-1.57,19.2,19.2,0,0,0,4.7-4.65l1.78,1.31a19.52,19.52,0,0,1-6.25,6.09,14.78,14.78,0,0,1-7.78,2.29c-3.68,0-6.5-1-8.45-3.1s-2.92-5-2.92-8.79a22.94,22.94,0,0,1,1.23-7.52,22,22,0,0,1,3.61-6.56,17.82,17.82,0,0,1,5.67-4.69,15.59,15.59,0,0,1,7.43-1.78q4.5,0,6.67,1.83A5.84,5.84,0,0,1,390.26,167Zm-5.75-.77a4.59,4.59,0,0,0-.34-1.92,2.55,2.55,0,0,0-.88-1,2.83,2.83,0,0,0-1.19-.47,8.87,8.87,0,0,0-1.28-.09q-3.75,0-6.92,4.11a21.37,21.37,0,0,0-4,10.26c1.46-.21,3.11-.5,4.94-.89a17.89,17.89,0,0,0,4.56-1.51,9.27,9.27,0,0,0,3.86-3.45A9.46,9.46,0,0,0,384.51,166.18Z"/><path class="cls-1" d="M478.62,147.66l-.47,2.06a8.13,8.13,0,0,0-1.91.36,10,10,0,0,0-2.09.86,9,9,0,0,0-2.16,1.65,12.79,12.79,0,0,0-1.75,2.57q-3.21,6-8.73,16.34t-11.33,21.06H447.4l-3.63-34.22-19.4,34.22h-2.75q-.72-14.22-1.22-23.92t-.75-14.7a4.73,4.73,0,0,0-.38-1.69,4,4,0,0,0-1.22-1.41,4.26,4.26,0,0,0-1.67-.79,9.88,9.88,0,0,0-1.83-.33l.47-2.06h17.85l-.47,2.06a16.05,16.05,0,0,0-5,.8c-.84.38-1.26.84-1.26,1.39s0,1,0,1.84.05,1.65.09,2.5c.06,1.44.22,4.34.46,8.71s.54,9.86.89,16.49l18.63-33.17h2.86l3.72,33.85q3.9-7.45,6.81-13.25t5.18-10.41c.92-1.9,1.56-3.33,1.92-4.31a7,7,0,0,0,.55-2.07c0-.66-.47-1.2-1.42-1.61a12.84,12.84,0,0,0-4.11-.76l.47-2.06Z"/><path class="cls-1" d="M501.35,172.73a23,23,0,0,1-1.25,7.38,19.76,19.76,0,0,1-3.63,6.48,18.38,18.38,0,0,1-5.8,4.61,17,17,0,0,1-7.86,1.74,11.21,11.21,0,0,1-8.42-3.35,12.43,12.43,0,0,1-3.23-9,21.54,21.54,0,0,1,5.06-14.07,17.66,17.66,0,0,1,5.8-4.4,17,17,0,0,1,7.48-1.67q5.56,0,8.71,3.39A12.6,12.6,0,0,1,501.35,172.73ZM495,171.54q0-4.44-1.58-6.66a5.23,5.23,0,0,0-4.54-2.22,8.44,8.44,0,0,0-4.89,1.59,12.55,12.55,0,0,0-4,5.19,24.13,24.13,0,0,0-1.87,6.06,34.86,34.86,0,0,0-.6,6.15q0,4.47,1.55,6.77a5.26,5.26,0,0,0,4.67,2.3,7.65,7.65,0,0,0,4.94-1.75,13.27,13.27,0,0,0,3.5-4.45,24.32,24.32,0,0,0,2.06-6A33.41,33.41,0,0,0,495,171.54Z"/><path class="cls-1" d="M532,165.53a8.1,8.1,0,0,1-.25,1.92,5.15,5.15,0,0,1-.72,1.74,4.49,4.49,0,0,1-1.23,1.29,4.21,4.21,0,0,1-4.45-.39,2.56,2.56,0,0,1-.85-1.87,6.08,6.08,0,0,1,.47-2.17c.31-.8.64-1.6,1-2.39a5.73,5.73,0,0,0-1.23.2,10.26,10.26,0,0,0-2.08.8,16.48,16.48,0,0,0-2.76,1.78,24.84,24.84,0,0,0-3.28,3.16l-5,22.4h-5.83l4.56-20.27.45-2.26a12.61,12.61,0,0,0,.3-2.22,2.37,2.37,0,0,0-3-2.94,8.27,8.27,0,0,0-1.75.24c-.7.15-1.26.28-1.65.39l.47-2a32.73,32.73,0,0,1,4.31-1.63,12.25,12.25,0,0,1,3.22-.53,4.25,4.25,0,0,1,3.56,1.36,6.56,6.56,0,0,1,1.06,4.08h.19a66.63,66.63,0,0,1,5.64-4.5,7.16,7.16,0,0,1,4-1.28,7.3,7.3,0,0,1,1.93.25,3.78,3.78,0,0,1,1.6.84,4.05,4.05,0,0,1,1,1.52A7.22,7.22,0,0,1,532,165.53Z"/><path class="cls-1" d="M549.83,144.09l-8.73,37.63q-.29,1.18-.54,2.37a10.46,10.46,0,0,0-.25,1.94,3,3,0,0,0,.8,2.44,4,4,0,0,0,2.57.65,16.74,16.74,0,0,0,1.86-.15,9.56,9.56,0,0,0,1.85-.38l-.46,2c-1.88.75-3.32,1.29-4.33,1.6a11.64,11.64,0,0,1-3.42.47,5.16,5.16,0,0,1-3.8-1.3,4.36,4.36,0,0,1-1.3-3.21,8.82,8.82,0,0,1,.14-1.5c.1-.52.23-1.18.39-2l7.62-32.93c.15-.64.24-1.09.3-1.34a4.84,4.84,0,0,0,.08-.94,3.29,3.29,0,0,0-.38-1.73,2.37,2.37,0,0,0-1.07-.93,5.76,5.76,0,0,0-1.66-.37c-.67-.06-1.35-.14-2-.22l.44-1.91,11.62-.69Z"/><path class="cls-1" d="M570.73,187.71h-.22l-1.78,1.55a15.65,15.65,0,0,1-2.27,1.68,17.12,17.12,0,0,1-2.77,1.43,8.27,8.27,0,0,1-3.1.51,8.53,8.53,0,0,1-7.1-3.27q-2.58-3.27-2.58-8.9a21.36,21.36,0,0,1,1.39-7.6,22.42,22.42,0,0,1,3.8-6.51,18.39,18.39,0,0,1,5.64-4.46,14.91,14.91,0,0,1,6.9-1.7,16.88,16.88,0,0,1,4.28.56,13.79,13.79,0,0,1,3.5,1.38l2.44-10.63c.13-.56.22-1,.27-1.31a6.53,6.53,0,0,0,.08-1,2.8,2.8,0,0,0-.46-1.72,2.6,2.6,0,0,0-1.26-.88,7.48,7.48,0,0,0-2.07-.37c-.87-.06-1.66-.14-2.37-.22l.44-1.91,12.65-.69.32.47-8.67,37.47c-.17.69-.34,1.48-.52,2.36a10.9,10.9,0,0,0-.26,2,3.11,3.11,0,0,0,.75,2.42,3.89,3.89,0,0,0,2.53.64,14.31,14.31,0,0,0,3.37-.59l-.47,2a30.19,30.19,0,0,1-4.35,1.65,11.9,11.9,0,0,1-3.19.47,5.24,5.24,0,0,1-3.59-1.17A4.64,4.64,0,0,1,570.73,187.71Zm4.45-19.92a4.85,4.85,0,0,0-.47-1.77,6.25,6.25,0,0,0-1-1.55,5.77,5.77,0,0,0-1.86-1.3,6.62,6.62,0,0,0-2.71-.51,7.81,7.81,0,0,0-4.55,1.5,14.36,14.36,0,0,0-3.77,4,20.69,20.69,0,0,0-2.5,5.81,25.23,25.23,0,0,0-.94,6.8,22.64,22.64,0,0,0,.22,3.38,9,9,0,0,0,.84,2.72,4.59,4.59,0,0,0,1.69,1.83,5.48,5.48,0,0,0,2.9.68,8.29,8.29,0,0,0,3.74-1,17.79,17.79,0,0,0,4.48-3.6Z"/></g></svg>