<svg id="catch-copy" data-name="catch-copy" xmlns="http://www.w3.org/2000/svg" xmlns:xlink="http://www.w3.org/1999/xlink" viewBox="0 0 658.48 54.11"><defs><style>.cls-1,.cls-3{fill:none;}.cls-2{clip-path:url(#clip-path);}.cls-3{stroke:#5b5b5b;stroke-miterlimit:10;stroke-width:4px;}.cls-4{fill:#fff;}.cls-5{fill:#e5ff29;}.cls-6{clip-path:url(#clip-path-2);}</style><clipPath id="clip-path"><rect class="cls-1" x="-1218.52" y="-74.89" width="1200" height="1200"/></clipPath><clipPath id="clip-path-2"><rect id="BG" class="cls-1" x="732.48" y="-74.89" width="400" height="400"/></clipPath></defs><title>images</title><g class="cls-2"></g><path class="cls-3" d="M10.66,51.65a.5.5,0,0,1-.41-.22L7.71,47.78a.49.49,0,0,1,0-.48A.49.49,0,0,1,8,47c7.4-1.26,13.76-4,17.63-7.56a71.21,71.21,0,0,0-11.13-2.59L13.72,38c-.15.22-.28.42-.37.54a.49.49,0,0,1-.41.21.46.46,0,0,1-.23-.06L9,36.75a.49.49,0,0,1-.26-.32A.53.53,0,0,1,8.77,36,140,140,0,0,0,18.3,20.38H3a.5.5,0,0,1-.5-.5V16.17a.5.5,0,0,1,.5-.5H20.74A95.8,95.8,0,0,0,26.37,2.44l0-.1a.47.47,0,0,1,.28-.3.43.43,0,0,1,.19,0,.54.54,0,0,1,.22,0l4.51,2.28a1.42,1.42,0,0,1,.91,1.19c0,.86-1,1.22-2,1.28C29.07,10,27.7,13,26.32,15.67H51.26a.51.51,0,0,1,.5.5v3.71a.5.5,0,0,1-.5.5H41c-1.46,7-3.92,12.71-7.3,17.16a72.3,72.3,0,0,1,15.47,9,.5.5,0,0,1,.19.38.52.52,0,0,1-.17.38l-3.34,3a.46.46,0,0,1-.33.13.5.5,0,0,1-.31-.1,66.21,66.21,0,0,0-14.49-8.93,43.21,43.21,0,0,1-19.9,10.19ZM17,32.8a72.42,72.42,0,0,1,12.1,2.92,39.4,39.4,0,0,0,6.51-15.34H23.9C21.29,25.42,19.36,28.8,17,32.8Z"/><path class="cls-3" d="M67.53,51.17a.5.5,0,0,1-.5-.5V16.14a2.94,2.94,0,0,1-1,.69,69.23,69.23,0,0,1-2.79,13.44.57.57,0,0,1-.26.29.59.59,0,0,1-.22.05.47.47,0,0,1-.17,0L58.83,29.2a.49.49,0,0,1-.3-.63,57.4,57.4,0,0,0,3-14.51.52.52,0,0,1,.2-.35.47.47,0,0,1,.3-.1h.09l3.61.69a2.15,2.15,0,0,1,1.31.64V3.24a.52.52,0,0,1,.16-.37.55.55,0,0,1,.34-.13l3.75.32h.12c.48.06,1.61.19,1.61,1.18,0,.64-.6,1-1.11,1.25v7.72L75,11.59a.59.59,0,0,1,.23-.05.51.51,0,0,1,.44.26,63.48,63.48,0,0,1,3.7,7.84A61.84,61.84,0,0,0,83,7.12a.55.55,0,0,1,.23-.33.5.5,0,0,1,.27-.07h.13l3.87,1.06.19.06c.58.18,1.18.36,1.18,1.12s-.82,1.14-1.42,1.3l-.08.31c-.66,2.44-1,3.68-1.64,5.62h5v-13a.48.48,0,0,1,.17-.37.51.51,0,0,1,.33-.13l4,.37.14,0c.3.06,1.22.22,1.22,1.06,0,.59-.41.87-1,1.16V16.2h11.48a.51.51,0,0,1,.5.5v3.61a.51.51,0,0,1-.5.5H95.64v9.07h10.1a.5.5,0,0,1,.5.5V34a.5.5,0,0,1-.5.5H95.64v9.76h12.54a.5.5,0,0,1,.5.5v3.44a.5.5,0,0,1-.5.5H77.34a.5.5,0,0,1-.5-.5V44.74a.5.5,0,0,1,.5-.5H90.77V34.48H80.67a.51.51,0,0,1-.5-.5v-3.6a.5.5,0,0,1,.5-.5h10.1V20.81H84.18A59.57,59.57,0,0,1,81,27.44a.51.51,0,0,1-.43.26.54.54,0,0,1-.22-.05L76.86,26a.5.5,0,0,1-.27-.3.53.53,0,0,1,0-.39c.6-1.06,1.23-2.26,1.87-3.62L75.92,23a.59.59,0,0,1-.23.05.43.43,0,0,1-.19,0,.48.48,0,0,1-.28-.31,44.06,44.06,0,0,0-3.32-8.3V50.67a.5.5,0,0,1-.5.5Z"/><path class="cls-3" d="M147.29,47.83a.49.49,0,0,1-.41-.22l-2.34-3.55a.52.52,0,0,1,0-.44.48.48,0,0,1,.31-.31l.26-.09a24.2,24.2,0,0,0,7.7-3.91,16.9,16.9,0,0,0,6.06-12.8,15.05,15.05,0,0,0-8.08-13.28,18,18,0,0,0-6.59-1.37A67.21,67.21,0,0,1,138,34.78c-3.05,6.46-5.88,9.61-8.66,9.61-4.92,0-9.56-7.3-9.56-15,0-10.88,8.57-22.12,22.91-22.12,12.24,0,21.12,8.1,21.12,19.26,0,6.73-2.83,15.89-16.32,21.29A.58.58,0,0,1,147.29,47.83Zm-8.23-35.76a16.6,16.6,0,0,0-11.13,7.1,16.85,16.85,0,0,0-3.56,10.09c0,5.56,3.15,9.46,4.85,9.46.87,0,2.05,0,5.37-8.16A61.73,61.73,0,0,0,139.06,12.07Z"/><path class="cls-3" d="M200.66,49.37a.5.5,0,0,1-.48-.37l-4.6-17.36-18.14,3.25h-.09a.49.49,0,0,1-.49-.41l-.69-3.76a.47.47,0,0,1,.08-.38.46.46,0,0,1,.32-.2l17.8-3.09-2-7.3L179.18,22h-.08a.49.49,0,0,1-.49-.4l-.69-3.55a.51.51,0,0,1,.07-.38.56.56,0,0,1,.33-.21l12.87-2.29-2.46-9.38a.54.54,0,0,1,.07-.41.55.55,0,0,1,.36-.22l4.56-.53h.11l.33,0c1.24,0,1.33.76,1.33,1,0,.43-.17.68-1,1.61l1.79,7.09,12.36-2.25h.09a.5.5,0,0,1,.49.38l.85,3.61a.54.54,0,0,1-.07.39.49.49,0,0,1-.33.21L197.52,18.9l1.82,7.19,15.71-2.67h.08a.5.5,0,0,1,.49.38l.95,3.7a.55.55,0,0,1-.06.4.49.49,0,0,1-.33.22L200.6,30.93l4.52,17a.48.48,0,0,1-.05.39.52.52,0,0,1-.33.23l-4,.85Z"/><path class="cls-3" d="M234.48,46.46a.51.51,0,0,1-.31-.11L231.25,44a.52.52,0,0,1-.18-.39V9.28a.51.51,0,0,1,.16-.37.53.53,0,0,1,.34-.13h.05l4.51.53c1.45.11,1.61.83,1.61,1.13,0,.55-.28.72-1.18,1.3l-.2.14V40.06c4-1,8.25-2.29,15.74-7.6a58.77,58.77,0,0,0,12.22-11.19l.14-.17a.5.5,0,0,1,.39-.18h.07a.51.51,0,0,1,.39.31l1.8,4.29a.49.49,0,0,1-.09.53l-.29.31A61.85,61.85,0,0,1,254.42,37a68.07,68.07,0,0,1-19.78,9.44Z"/><path class="cls-3" d="M294.32,48.68a.5.5,0,0,1-.5-.5V23.33a72.87,72.87,0,0,1-13.93,7.93.48.48,0,0,1-.2,0,.46.46,0,0,1-.33-.13l-3.87-3.44a.5.5,0,0,1,.17-.85l.15-.05c4.49-1.48,9.14-3,17.15-9A78.76,78.76,0,0,0,306.42,5.36l.24-.28a.52.52,0,0,1,.38-.17.49.49,0,0,1,.32.12l3.57,3.05a1.74,1.74,0,0,1,.79,1.36c0,.35-.15.93-1.14.93a5.14,5.14,0,0,1-1-.11l-.08,0-.78.74a104.79,104.79,0,0,1-9.64,8.46V48.18a.5.5,0,0,1-.5.5Z"/><path class="cls-3" d="M345.78,49.37c-3.75,0-12.48-.85-12.48-8.71,0-6.79,6-10.66,11.77-13.74-.3-1.87-.84-3.52-2.42-3.52-4.55,0-8.82,6.13-11.94,10.6a.48.48,0,0,1-.41.21.53.53,0,0,1-.24-.06l-3.45-2a.5.5,0,0,1-.24-.36.47.47,0,0,1,.12-.41c5.12-5.73,7.45-9.27,9.58-14.68-2,.17-3.69.25-5.18.25-.82,0-1.47,0-2,0h-.23a.51.51,0,0,1-.47-.41l-.79-4.13a.5.5,0,0,1,.12-.44.52.52,0,0,1,.37-.16h.06a41.13,41.13,0,0,0,6.08.42c1.53,0,2.52-.06,3.39-.12l.43,0a73,73,0,0,0,2.11-7.89.5.5,0,0,1,.49-.4h.07l4.4.69a.47.47,0,0,1,.35.23.46.46,0,0,1,.05.41c-.39,1.26-.8,2.37-1.4,4-.24.64-.5,1.37-.81,2.23A37.61,37.61,0,0,0,354.25,8a.57.57,0,0,1,.22,0,.54.54,0,0,1,.25.06.53.53,0,0,1,.25.4l.26,4a.5.5,0,0,1-.37.52A137.55,137.55,0,0,1,341.33,16c-.79,2.15-1.25,3.35-1.61,4.23a6.43,6.43,0,0,1,3.3-.88c4.43,0,5.58,3.58,6,5.62,6.12-2.72,7.32-3.27,10.27-4.87a.5.5,0,0,1,.24-.06.54.54,0,0,1,.21.05.5.5,0,0,1,.28.35l.84,4a.48.48,0,0,1-.32.57l-.73.26c-5.86,2.08-7.39,2.62-10.52,4,.22,4.77.24,6.34.29,9.68v.91a.51.51,0,0,1-.5.5h-3.76a.5.5,0,0,1-.5-.5c0-.31,0-1.28.09-2.28l.06-1.5c.08-1.47.1-2.6.12-3.77,0-.27,0-.53,0-.8-3.54,2.26-7,5-7,8.51,0,4.36,4.76,5,7.61,5,2.06,0,7.29-.17,11.31-1.76a.41.41,0,0,1,.19,0,.52.52,0,0,1,.25.07.5.5,0,0,1,.24.38l.43,4.13a.52.52,0,0,1-.41.55A79.26,79.26,0,0,1,345.78,49.37Z"/><path class="cls-3" d="M390.3,49.1A.48.48,0,0,1,390,49l-3.71-3a.49.49,0,0,1-.17-.47.49.49,0,0,1,.32-.39c5.09-1.78,8.37-3.27,11.11-8.91,2.11-4.48,2.39-8.85,2.63-13.86H389.42V34.77a.5.5,0,0,1-.5.5h-4a.5.5,0,0,1-.5-.5V22.34H373.34a.5.5,0,0,1-.5-.5V18.08a.5.5,0,0,1,.5-.5h11.11V7.06a.51.51,0,0,1,.16-.37.48.48,0,0,1,.34-.13l4.34.48c.36,0,1.4.2,1.4,1.08,0,.57-.37.81-1.27,1.26v8.2H400c0-4.35-.17-8.61-.27-11.46a.51.51,0,0,1,.16-.38.48.48,0,0,1,.34-.14l4,.32c.75.06,1.95.15,1.95,1.19,0,.73-.61,1.1-1.12,1.4v9.07h10.1a.5.5,0,0,1,.5.5v3.76a.5.5,0,0,1-.5.5H405c-.25,5.7-.52,10.67-3,16-2.84,6.31-6.41,8.33-11.53,10.69A.52.52,0,0,1,390.3,49.1Z"/><path class="cls-3" d="M442.83,47.77c-.81,0-1.59,0-2.2,0a.51.51,0,0,1-.45-.33l-1.64-4.56a.52.52,0,0,1,.07-.48.53.53,0,0,1,.4-.19l.77.08a39.56,39.56,0,0,0,4.26.34c1.08,0,1.36-.07,1.36-1.72V21.07H428.62a.5.5,0,0,1-.5-.5V16.7a.5.5,0,0,1,.5-.5H445.4V6.53a.53.53,0,0,1,.16-.38A.54.54,0,0,1,445.9,6H446l4.34.53c.38,0,1.61.11,1.61,1.08,0,.63-.31.88-1.22,1.49V16.2h15.5a.5.5,0,0,1,.5.5v3.87a.5.5,0,0,1-.5.5h-15.5V40.71c0,3,0,6.07-4.6,6.85A18.65,18.65,0,0,1,442.83,47.77Zm-12.94-6.14a.53.53,0,0,1-.27-.08l-3.77-2.49a.52.52,0,0,1-.22-.41.53.53,0,0,1,.21-.42,28.16,28.16,0,0,0,6.37-5.85A19.39,19.39,0,0,0,436,26.71l.06-.14a.53.53,0,0,1,.28-.27.57.57,0,0,1,.18,0,.54.54,0,0,1,.21.05l3.82,1.8c.33.14,1,.59,1,1.25,0,1-1.1,1.19-1.9,1.31-.81,1.17-5.14,7.33-9.46,10.84A.54.54,0,0,1,429.89,41.63Zm34.24-.79-.13,0a.52.52,0,0,1-.31-.23,44.72,44.72,0,0,0-9.43-11.48.52.52,0,0,1-.17-.38.5.5,0,0,1,.17-.38l2.92-2.49a.49.49,0,0,1,.32-.12.47.47,0,0,1,.32.12,50.55,50.55,0,0,1,10.6,12,.5.5,0,0,1,.06.38.49.49,0,0,1-.24.32l-3.86,2.22A.47.47,0,0,1,464.13,40.84ZM467,15.14a5.73,5.73,0,0,1-5.75-5.7,5.7,5.7,0,0,1,11.39,0A5.74,5.74,0,0,1,467,15.14Zm0-8a2.34,2.34,0,1,0,0,4.67,2.28,2.28,0,0,0,2.25-2.36A2.26,2.26,0,0,0,467,7.13Z"/><rect class="cls-3" x="481.28" y="25.74" width="39.37" height="4.87" rx="0.5" ry="0.5"/><path class="cls-3" d="M537.64,48.26a.5.5,0,0,1-.5-.5V6.37A.48.48,0,0,1,537.3,6a.48.48,0,0,1,.34-.14l4.06.21c.93,0,1.95.33,1.95,1.24,0,.55-.45.87-1.27,1.43V21.4l.59-1.16a.51.51,0,0,1,.45-.28.53.53,0,0,1,.2.05c8.71,3.79,12.29,6.17,17.49,10.4a.5.5,0,0,1,.1.68l-2.6,3.71a.49.49,0,0,1-.35.2h-.06a.5.5,0,0,1-.33-.12l-.29-.26a57.93,57.93,0,0,0-6.91-5.27,43.85,43.85,0,0,0-8.29-4.45V47.76a.5.5,0,0,1-.5.5Z"/><path class="cls-3" d="M588,50.59a.43.43,0,0,1-.19,0l-4.14-1.75a.52.52,0,0,1-.3-.39.53.53,0,0,1,.18-.46,23,23,0,0,0,6.8-8.53,8.39,8.39,0,0,1-2.82.57c-3.49,0-7-3.23-7-9.4,0-7.15,4.78-10.36,8.18-10.36a6.75,6.75,0,0,1,1.89.24V17c-8.66.57-15.49,1.17-20.32,1.77h-.06a.47.47,0,0,1-.32-.12.47.47,0,0,1-.18-.35l-.27-3.87a.49.49,0,0,1,.13-.36.51.51,0,0,1,.34-.17c3.66-.2,8.6-.54,13.37-.86l7.15-.49a67.26,67.26,0,0,0-.26-8.42.5.5,0,0,1,.49-.56h.09l4.71.8a.5.5,0,0,1,.42.55,52.69,52.69,0,0,0-.42,7.15c5.09-.34,10.76-.71,15.16-1.34h.07a.49.49,0,0,1,.31.11.47.47,0,0,1,.19.34l.43,4.4a.52.52,0,0,1-.13.38.48.48,0,0,1-.37.17c-7.29.05-12.95.38-15.68.55,0,1.42,0,4.64,0,6.65V24.9A18.56,18.56,0,0,1,597,32.28c0,6-3.47,11.8-4.53,13.42a23.59,23.59,0,0,1-4.05,4.75A.5.5,0,0,1,588,50.59Zm.69-25.49c-1.8,0-3.74,2.2-3.74,5.49,0,3.44,2,4.69,3.26,4.69,1.93,0,3.32-2.26,3.32-5.38C591.57,28.77,591.37,25.1,588.73,25.1Z"/><path class="cls-3" d="M639,47.83c-5.27,0-10.94-2.31-10.94-7.39,0-3.27,2.77-6.59,8.07-6.59,6.6,0,9.63,4.86,10.83,7.11,1.56-1.2,4.47-3.77,4.47-7.94,0-3.78-2.42-7.82-9.2-7.82-9.49,0-18.29,10-18.38,10.05a.49.49,0,0,1-.38.18.54.54,0,0,1-.32-.11l-3.34-2.76a.48.48,0,0,1-.18-.39.49.49,0,0,1,.19-.39A142.54,142.54,0,0,0,640.72,12a90.73,90.73,0,0,1-13.53,1.72h0a.49.49,0,0,1-.48-.36l-1.22-4a.49.49,0,0,1,.08-.45.51.51,0,0,1,.4-.2h1.32a64.58,64.58,0,0,0,20.9-3.06l.14,0a.51.51,0,0,1,.43.24l1.8,2.91a.5.5,0,0,1-.09.64l-.5.44c-.76.66-2.17,1.91-2.45,2.19l-.7.71c-3.49,3.53-5.89,6-8.38,8.28a13.64,13.64,0,0,1,4.27-.62c5,0,13.54,2.61,13.54,12.42C656.22,43.21,646.14,47.83,639,47.83Zm-3.18-9.64c-2,0-3.16,1.22-3.16,2.09,0,1.72,3.29,3.11,6,3.11a19,19,0,0,0,3.67-.39C641.45,41.21,639.63,38.19,635.8,38.19Z"/><path class="cls-4" d="M3,19.88V16.17H21.05A97.6,97.6,0,0,0,26.88,2.5l4.5,2.28c.22.1.64.37.64.74,0,.64-1.27.8-1.86.8-1.32,3-2.86,6.35-4.66,9.85H51.26v3.71H40.55c-.63,3.13-2.49,11.34-7.68,17.86a72.26,72.26,0,0,1,16,9.22l-3.34,3a65.63,65.63,0,0,0-14.89-9.11A42.67,42.67,0,0,1,10.66,51.15L8.12,47.49c6.84-1.16,14.1-3.81,18.49-8.27a71.47,71.47,0,0,0-12.29-2.91c-.48.64-1.11,1.59-1.38,2l-3.76-2a144.28,144.28,0,0,0,10-16.43Zm20.61,0c-2.7,5.25-4.61,8.59-7.36,13.3a73.39,73.39,0,0,1,13.09,3.13,40.5,40.5,0,0,0,6.94-16.43Z"/><path class="cls-4" d="M59,28.73a58.12,58.12,0,0,0,3-14.62l3.6.68c.27.06,1.12.22,1.12.75,0,.21,0,.42-1.22.95a68.62,68.62,0,0,1-2.81,13.62ZM67.53,3.24l3.71.32c.43,0,1.27.11,1.27.69,0,.42-.63.69-1.11,1V50.67H67.53ZM75.27,12a63.41,63.41,0,0,1,4,8.69l-3.61,1.8a43.66,43.66,0,0,0-3.6-8.85Zm16,4.66V3.19l3.93.37c.26,0,.9.11.9.58s-.32.53-1,.85V16.7h12v3.61h-12V30.38h10.6V34H95.14V44.74h13v3.44H77.34V44.74H91.27V34H80.67v-3.6h10.6V20.31H83.85a61.59,61.59,0,0,1-3.33,6.89l-3.45-1.65A57.39,57.39,0,0,0,83.54,7.22L87.4,8.28c.69.21,1,.26,1,.69s-.74.74-1.32.9c-.85,3.12-1.17,4.34-2,6.83Z"/><path class="cls-4" d="M145,43.78a24.93,24.93,0,0,0,8.11-4.08,17.41,17.41,0,0,0,6.25-13.19A15.51,15.51,0,0,0,151,12.78a18.8,18.8,0,0,0-7.26-1.43,67,67,0,0,1-6.15,23.21c-2.22,4.72-5.08,9.33-8.21,9.33-4.45,0-9.06-6.84-9.06-14.52A21.82,21.82,0,0,1,142.68,7.75c11.13,0,20.62,7,20.62,18.76,0,14.41-12.83,19.55-16,20.82Zm-17.43-24.9a17.35,17.35,0,0,0-3.66,10.38c0,5.67,3.23,10,5.35,10,1.12,0,2.39,0,5.83-8.47a62.71,62.71,0,0,0,4.56-19.29A17.26,17.26,0,0,0,127.53,18.88Z"/><path class="cls-4" d="M208.77,12.57l.85,3.6L196.9,18.5,199,26.67l16.16-2.76,1,3.71L200,30.53,204.64,48l-4,.85L196,31.06l-18.6,3.34-.69-3.76L195,27.46l-2.22-8.27L179.1,21.52,178.41,18l13.4-2.38-2.59-9.91,4.56-.53c.15,0,1.21-.16,1.21.48,0,.26-.1.42-1,1.48l2,7.79Z"/><path class="cls-4" d="M231.57,9.28l4.5.53c.69.06,1.17.27,1.17.64s-.16.37-1.38,1.17V40.71c4.34-1.11,8.69-2.28,16.53-7.84a58.92,58.92,0,0,0,12.46-11.45l1.8,4.29a62.32,62.32,0,0,1-12.51,10.87A68,68,0,0,1,234.48,46l-2.91-2.34Z"/><path class="cls-4" d="M294.32,48.18V22.37a73.7,73.7,0,0,1-14.63,8.43l-3.87-3.45c4.66-1.53,9.28-3,17.44-9.11A79.74,79.74,0,0,0,307,5.41l3.6,3.08a1.25,1.25,0,0,1,.58.95c0,.21-.05.43-.64.43a7.43,7.43,0,0,1-1.21-.16,113.46,113.46,0,0,1-10.76,9.48v29Z"/><path class="cls-4" d="M357.65,47.92a78.08,78.08,0,0,1-11.87.95c-1.7,0-12,0-12-8.21,0-6.89,6.73-10.76,11.82-13.46-.21-1.44-.64-4.3-3-4.3-4.77,0-9.06,6.1-12.35,10.81l-3.44-2c5.41-6,7.74-9.7,10-15.58a54.2,54.2,0,0,1-8.16.27l-.79-4.14a40.08,40.08,0,0,0,6.14.43c2,0,3.13-.11,4.19-.16a74.13,74.13,0,0,0,2.23-8.27l4.4.69c-.59,1.86-1.17,3.34-2.5,7a39.37,39.37,0,0,0,12.14-3.6l.27,4A138.58,138.58,0,0,1,341,15.59c-1.49,4.08-1.86,4.87-2.49,6.25a6.42,6.42,0,0,1,4.55-2c4.51,0,5.3,4,5.67,5.83,6.68-3,7.85-3.5,10.87-5.14l.85,4C353.67,27,352.3,27.46,348.8,29c.26,5.46.26,6.78.32,10.91h-3.76c0-.47.1-2.49.15-3.76.11-2.17.11-3.6.16-5.51-4.08,2.54-8.05,5.46-8.05,9.43,0,5.09,5.83,5.51,8.11,5.51a33.42,33.42,0,0,0,11.5-1.8Z"/><path class="cls-4" d="M415.15,18.08v3.76h-10.6c-.26,6.1-.52,11-3,16.33-2.86,6.35-6.57,8.26-11.29,10.43l-3.71-3c5-1.74,8.53-3.28,11.39-9.16,2.18-4.61,2.44-9.07,2.71-14.58H388.92V34.77h-4V21.84H373.34V18.08H385v-11l4.29.47c.37.06.95.16.95.59,0,.26-.1.37-1.27,1v9h11.61c0-4.5-.16-9-.27-12l3.92.32c.69,0,1.49.11,1.49.69s-.59.8-1.12,1.11v9.86Z"/><path class="cls-4" d="M426.13,38.64a29.28,29.28,0,0,0,6.47-5.93,20.25,20.25,0,0,0,3.92-5.94l3.81,1.8c.27.11.74.43.74.8,0,.63-.95.74-1.69.85-1.33,2-5.51,7.68-9.49,10.91ZM445.9,20.57H428.62V16.7H445.9V6.53l4.34.53c.74.05,1.17.21,1.17.58s-.11.48-1.22,1.22V16.7h16v3.87h-16V40.71c0,3.23-.11,5.67-4.19,6.36a30.58,30.58,0,0,1-5.35.16L439,42.67a50.36,50.36,0,0,0,5,.42c1.43,0,1.86-.37,1.86-2.22Zm11.6,5.67A50.34,50.34,0,0,1,468,38.11l-3.87,2.23a45.86,45.86,0,0,0-9.54-11.61Zm4.24-16.8A5.24,5.24,0,0,1,467,4.3a5.17,5.17,0,1,1-5.25,5.14Zm8,0A2.74,2.74,0,0,0,467,6.63a2.84,2.84,0,1,0,2.75,2.81Z"/><path class="cls-4" d="M481.78,30.11V26.24h38.37v3.87Z"/><path class="cls-4" d="M543.42,20.46c9,3.93,12.56,6.42,17.38,10.34l-2.6,3.71a58.86,58.86,0,0,0-7.26-5.57,44.49,44.49,0,0,0-9.06-4.77V47.76h-4.24V6.37l4,.21c.26,0,1.48,0,1.48.74,0,.32-.42.59-1.27,1.17v15Z"/><path class="cls-4" d="M595.41,4.83a54.56,54.56,0,0,0-.42,7.74c5.72-.37,11.28-.74,15.73-1.38l.43,4.4c-7.26.05-12.77.37-16.16.58-.06,1.38,0,7.58,0,8.85,1.11,2,1.48,5.51,1.48,7.26,0,4.88-2.33,9.91-4.45,13.15a23.14,23.14,0,0,1-4,4.66l-4.13-1.75a23.58,23.58,0,0,0,7.47-10,8,8,0,0,1-3.81,1.11c-3.34,0-6.52-3.23-6.52-8.9,0-6.84,4.45-9.86,7.68-9.86a6.53,6.53,0,0,1,2.39.42V16.44c-5.67.37-14.47,1-20.88,1.8L570,14.37c5.83-.32,15.16-1,21-1.38A69.86,69.86,0,0,0,590.69,4ZM584.49,30.59c0,3.71,2.18,5.19,3.76,5.19,2.18,0,3.82-2.44,3.82-5.88,0-1.75-.48-5.3-3.34-5.3C586.72,24.6,584.49,26.88,584.49,30.59Z"/><path class="cls-4" d="M625.94,9.28A66.26,66.26,0,0,0,648.3,6.21l1.8,2.91c-.47.43-2.59,2.28-3,2.65-4.83,4.88-7.63,7.74-11.13,10.87A14.24,14.24,0,0,1,642.68,21c3.93,0,13,1.9,13,11.92s-10,14.41-16.74,14.41c-4.56,0-10.44-1.9-10.44-6.89,0-3.18,2.75-6.09,7.57-6.09,6.84,0,9.65,5.4,10.66,7.37,1.43-1.06,5.14-3.87,5.14-8.7,0-3.6-2.28-8.32-9.7-8.32-9.33,0-17.91,9.23-18.76,10.23l-3.34-2.75a143.61,143.61,0,0,0,22-21,81.45,81.45,0,0,1-14.94,2.07Zm9.86,28.41c-2.23,0-3.66,1.43-3.66,2.59,0,2.23,3.82,3.61,6.52,3.61a20.36,20.36,0,0,0,4.4-.53C642.26,41.66,640.35,37.69,635.8,37.69Z"/><path class="cls-5" d="M10.66,51.65a.5.5,0,0,1-.41-.22L7.71,47.78a.49.49,0,0,1,0-.48A.49.49,0,0,1,8,47c7.4-1.26,13.76-4,17.63-7.56a71.21,71.21,0,0,0-11.13-2.59L13.72,38c-.15.22-.28.42-.37.54a.49.49,0,0,1-.41.21.46.46,0,0,1-.23-.06L9,36.75a.49.49,0,0,1-.26-.32A.53.53,0,0,1,8.77,36,140,140,0,0,0,18.3,20.38H3a.5.5,0,0,1-.5-.5V16.17a.5.5,0,0,1,.5-.5H20.74A95.8,95.8,0,0,0,26.37,2.44l0-.1a.47.47,0,0,1,.28-.3.43.43,0,0,1,.19,0,.54.54,0,0,1,.22,0l4.51,2.28a1.42,1.42,0,0,1,.91,1.19c0,.86-1,1.22-2,1.28C29.07,10,27.7,13,26.32,15.67H51.26a.51.51,0,0,1,.5.5v3.71a.5.5,0,0,1-.5.5H41c-1.46,7-3.92,12.71-7.3,17.16a72.3,72.3,0,0,1,15.47,9,.5.5,0,0,1,.19.38.52.52,0,0,1-.17.38l-3.34,3a.46.46,0,0,1-.33.13.5.5,0,0,1-.31-.1,66.21,66.21,0,0,0-14.49-8.93,43.21,43.21,0,0,1-19.9,10.19ZM17,32.8a72.42,72.42,0,0,1,12.1,2.92,39.4,39.4,0,0,0,6.51-15.34H23.9C21.29,25.42,19.36,28.8,17,32.8Z"/><path class="cls-5" d="M67.53,51.17a.5.5,0,0,1-.5-.5V16.14a2.94,2.94,0,0,1-1,.69,69.23,69.23,0,0,1-2.79,13.44.57.57,0,0,1-.26.29.59.59,0,0,1-.22.05.47.47,0,0,1-.17,0L58.83,29.2a.49.49,0,0,1-.3-.63,57.4,57.4,0,0,0,3-14.51.52.52,0,0,1,.2-.35.47.47,0,0,1,.3-.1h.09l3.61.69a2.15,2.15,0,0,1,1.31.64V3.24a.52.52,0,0,1,.16-.37.55.55,0,0,1,.34-.13l3.75.32h.12c.48.06,1.61.19,1.61,1.18,0,.64-.6,1-1.11,1.25v7.72L75,11.59a.59.59,0,0,1,.23-.05.51.51,0,0,1,.44.26,63.48,63.48,0,0,1,3.7,7.84A61.84,61.84,0,0,0,83,7.12a.55.55,0,0,1,.23-.33.5.5,0,0,1,.27-.07h.13l3.87,1.06.19.06c.58.18,1.18.36,1.18,1.12s-.82,1.14-1.42,1.3l-.08.31c-.66,2.44-1,3.68-1.64,5.62h5v-13a.48.48,0,0,1,.17-.37.51.51,0,0,1,.33-.13l4,.37.14,0c.3.06,1.22.22,1.22,1.06,0,.59-.41.87-1,1.16V16.2h11.48a.51.51,0,0,1,.5.5v3.61a.51.51,0,0,1-.5.5H95.64v9.07h10.1a.5.5,0,0,1,.5.5V34a.5.5,0,0,1-.5.5H95.64v9.76h12.54a.5.5,0,0,1,.5.5v3.44a.5.5,0,0,1-.5.5H77.34a.5.5,0,0,1-.5-.5V44.74a.5.5,0,0,1,.5-.5H90.77V34.48H80.67a.51.51,0,0,1-.5-.5v-3.6a.5.5,0,0,1,.5-.5h10.1V20.81H84.18A59.57,59.57,0,0,1,81,27.44a.51.51,0,0,1-.43.26.54.54,0,0,1-.22-.05L76.86,26a.5.5,0,0,1-.27-.3.53.53,0,0,1,0-.39c.6-1.06,1.23-2.26,1.87-3.62L75.92,23a.59.59,0,0,1-.23.05.43.43,0,0,1-.19,0,.48.48,0,0,1-.28-.31,44.06,44.06,0,0,0-3.32-8.3V50.67a.5.5,0,0,1-.5.5Z"/><path class="cls-5" d="M147.29,47.83a.49.49,0,0,1-.41-.22l-2.34-3.55a.52.52,0,0,1,0-.44.48.48,0,0,1,.31-.31l.26-.09a24.2,24.2,0,0,0,7.7-3.91,16.9,16.9,0,0,0,6.06-12.8,15.05,15.05,0,0,0-8.08-13.28,18,18,0,0,0-6.59-1.37A67.21,67.21,0,0,1,138,34.78c-3.05,6.46-5.88,9.61-8.66,9.61-4.92,0-9.56-7.3-9.56-15,0-10.88,8.57-22.12,22.91-22.12,12.24,0,21.12,8.1,21.12,19.26,0,6.73-2.83,15.89-16.32,21.29A.58.58,0,0,1,147.29,47.83Zm-8.23-35.76a16.6,16.6,0,0,0-11.13,7.1,16.85,16.85,0,0,0-3.56,10.09c0,5.56,3.15,9.46,4.85,9.46.87,0,2.05,0,5.37-8.16A61.73,61.73,0,0,0,139.06,12.07Z"/><path class="cls-5" d="M200.66,49.37a.5.5,0,0,1-.48-.37l-4.6-17.36-18.14,3.25h-.09a.49.49,0,0,1-.49-.41l-.69-3.76a.47.47,0,0,1,.08-.38.46.46,0,0,1,.32-.2l17.8-3.09-2-7.3L179.18,22h-.08a.49.49,0,0,1-.49-.4l-.69-3.55a.51.51,0,0,1,.07-.38.56.56,0,0,1,.33-.21l12.87-2.29-2.46-9.38a.54.54,0,0,1,.07-.41.55.55,0,0,1,.36-.22l4.56-.53h.11l.33,0c1.24,0,1.33.76,1.33,1,0,.43-.17.68-1,1.61l1.79,7.09,12.36-2.25h.09a.5.5,0,0,1,.49.38l.85,3.61a.54.54,0,0,1-.07.39.49.49,0,0,1-.33.21L197.52,18.9l1.82,7.19,15.71-2.67h.08a.5.5,0,0,1,.49.38l.95,3.7a.55.55,0,0,1-.06.4.49.49,0,0,1-.33.22L200.6,30.93l4.52,17a.48.48,0,0,1-.05.39.52.52,0,0,1-.33.23l-4,.85Z"/><path class="cls-5" d="M234.48,46.46a.51.51,0,0,1-.31-.11L231.25,44a.52.52,0,0,1-.18-.39V9.28a.51.51,0,0,1,.16-.37.53.53,0,0,1,.34-.13h.05l4.51.53c1.45.11,1.61.83,1.61,1.13,0,.55-.28.72-1.18,1.3l-.2.14V40.06c4-1,8.25-2.29,15.74-7.6a58.77,58.77,0,0,0,12.22-11.19l.14-.17a.5.5,0,0,1,.39-.18h.07a.51.51,0,0,1,.39.31l1.8,4.29a.49.49,0,0,1-.09.53l-.29.31A61.85,61.85,0,0,1,254.42,37a68.07,68.07,0,0,1-19.78,9.44Z"/><path class="cls-5" d="M294.32,48.68a.5.5,0,0,1-.5-.5V23.33a72.87,72.87,0,0,1-13.93,7.93.48.48,0,0,1-.2,0,.46.46,0,0,1-.33-.13l-3.87-3.44a.5.5,0,0,1,.17-.85l.15-.05c4.49-1.48,9.14-3,17.15-9A78.76,78.76,0,0,0,306.42,5.36l.24-.28a.52.52,0,0,1,.38-.17.49.49,0,0,1,.32.12l3.57,3.05a1.74,1.74,0,0,1,.79,1.36c0,.35-.15.93-1.14.93a5.14,5.14,0,0,1-1-.11l-.08,0-.78.74a104.79,104.79,0,0,1-9.64,8.46V48.18a.5.5,0,0,1-.5.5Z"/><path class="cls-5" d="M345.78,49.37c-3.75,0-12.48-.85-12.48-8.71,0-6.79,6-10.66,11.77-13.74-.3-1.87-.84-3.52-2.42-3.52-4.55,0-8.82,6.13-11.94,10.6a.48.48,0,0,1-.41.21.53.53,0,0,1-.24-.06l-3.45-2a.5.5,0,0,1-.24-.36.47.47,0,0,1,.12-.41c5.12-5.73,7.45-9.27,9.58-14.68-2,.17-3.69.25-5.18.25-.82,0-1.47,0-2,0h-.23a.51.51,0,0,1-.47-.41l-.79-4.13a.5.5,0,0,1,.12-.44.52.52,0,0,1,.37-.16h.06a41.13,41.13,0,0,0,6.08.42c1.53,0,2.52-.06,3.39-.12l.43,0a73,73,0,0,0,2.11-7.89.5.5,0,0,1,.49-.4h.07l4.4.69a.47.47,0,0,1,.35.23.46.46,0,0,1,.05.41c-.39,1.26-.8,2.37-1.4,4-.24.64-.5,1.37-.81,2.23A37.61,37.61,0,0,0,354.25,8a.57.57,0,0,1,.22,0,.54.54,0,0,1,.25.06.53.53,0,0,1,.25.4l.26,4a.5.5,0,0,1-.37.52A137.55,137.55,0,0,1,341.33,16c-.79,2.15-1.25,3.35-1.61,4.23a6.43,6.43,0,0,1,3.3-.88c4.43,0,5.58,3.58,6,5.62,6.12-2.72,7.32-3.27,10.27-4.87a.5.5,0,0,1,.24-.06.54.54,0,0,1,.21.05.5.5,0,0,1,.28.35l.84,4a.48.48,0,0,1-.32.57l-.73.26c-5.86,2.08-7.39,2.62-10.52,4,.22,4.77.24,6.34.29,9.68v.91a.51.51,0,0,1-.5.5h-3.76a.5.5,0,0,1-.5-.5c0-.31,0-1.28.09-2.28l.06-1.5c.08-1.47.1-2.6.12-3.77,0-.27,0-.53,0-.8-3.54,2.26-7,5-7,8.51,0,4.36,4.76,5,7.61,5,2.06,0,7.29-.17,11.31-1.76a.41.41,0,0,1,.19,0,.52.52,0,0,1,.25.07.5.5,0,0,1,.24.38l.43,4.13a.52.52,0,0,1-.41.55A79.26,79.26,0,0,1,345.78,49.37Z"/><path class="cls-5" d="M390.3,49.1A.48.48,0,0,1,390,49l-3.71-3a.49.49,0,0,1-.17-.47.49.49,0,0,1,.32-.39c5.09-1.78,8.37-3.27,11.11-8.91,2.11-4.48,2.39-8.85,2.63-13.86H389.42V34.77a.5.5,0,0,1-.5.5h-4a.5.5,0,0,1-.5-.5V22.34H373.34a.5.5,0,0,1-.5-.5V18.08a.5.5,0,0,1,.5-.5h11.11V7.06a.51.51,0,0,1,.16-.37.48.48,0,0,1,.34-.13l4.34.48c.36,0,1.4.2,1.4,1.08,0,.57-.37.81-1.27,1.26v8.2H400c0-4.35-.17-8.61-.27-11.46a.51.51,0,0,1,.16-.38.48.48,0,0,1,.34-.14l4,.32c.75.06,1.95.15,1.95,1.19,0,.73-.61,1.1-1.12,1.4v9.07h10.1a.5.5,0,0,1,.5.5v3.76a.5.5,0,0,1-.5.5H405c-.25,5.7-.52,10.67-3,16-2.84,6.31-6.41,8.33-11.53,10.69A.52.52,0,0,1,390.3,49.1Z"/><path class="cls-5" d="M442.83,47.77c-.81,0-1.59,0-2.2,0a.51.51,0,0,1-.45-.33l-1.64-4.56a.52.52,0,0,1,.07-.48.53.53,0,0,1,.4-.19l.77.08a39.56,39.56,0,0,0,4.26.34c1.08,0,1.36-.07,1.36-1.72V21.07H428.62a.5.5,0,0,1-.5-.5V16.7a.5.5,0,0,1,.5-.5H445.4V6.53a.53.53,0,0,1,.16-.38A.54.54,0,0,1,445.9,6H446l4.34.53c.38,0,1.61.11,1.61,1.08,0,.63-.31.88-1.22,1.49V16.2h15.5a.5.5,0,0,1,.5.5v3.87a.5.5,0,0,1-.5.5h-15.5V40.71c0,3,0,6.07-4.6,6.85A18.65,18.65,0,0,1,442.83,47.77Zm-12.94-6.14a.53.53,0,0,1-.27-.08l-3.77-2.49a.52.52,0,0,1-.22-.41.53.53,0,0,1,.21-.42,28.16,28.16,0,0,0,6.37-5.85A19.39,19.39,0,0,0,436,26.71l.06-.14a.53.53,0,0,1,.28-.27.57.57,0,0,1,.18,0,.54.54,0,0,1,.21.05l3.82,1.8c.33.14,1,.59,1,1.25,0,1-1.1,1.19-1.9,1.31-.81,1.17-5.14,7.33-9.46,10.84A.54.54,0,0,1,429.89,41.63Zm34.24-.79-.13,0a.52.52,0,0,1-.31-.23,44.72,44.72,0,0,0-9.43-11.48.52.52,0,0,1-.17-.38.5.5,0,0,1,.17-.38l2.92-2.49a.49.49,0,0,1,.32-.12.47.47,0,0,1,.32.12,50.55,50.55,0,0,1,10.6,12,.5.5,0,0,1,.06.38.49.49,0,0,1-.24.32l-3.86,2.22A.47.47,0,0,1,464.13,40.84ZM467,15.14a5.73,5.73,0,0,1-5.75-5.7,5.7,5.7,0,0,1,11.39,0A5.74,5.74,0,0,1,467,15.14Zm0-8a2.34,2.34,0,1,0,0,4.67,2.28,2.28,0,0,0,2.25-2.36A2.26,2.26,0,0,0,467,7.13Z"/><rect class="cls-5" x="481.28" y="25.74" width="39.37" height="4.87" rx="0.5" ry="0.5"/><path class="cls-5" d="M537.64,48.26a.5.5,0,0,1-.5-.5V6.37A.48.48,0,0,1,537.3,6a.48.48,0,0,1,.34-.14l4.06.21c.93,0,1.95.33,1.95,1.24,0,.55-.45.87-1.27,1.43V21.4l.59-1.16a.51.51,0,0,1,.45-.28.53.53,0,0,1,.2.05c8.71,3.79,12.29,6.17,17.49,10.4a.5.5,0,0,1,.1.68l-2.6,3.71a.49.49,0,0,1-.35.2h-.06a.5.5,0,0,1-.33-.12l-.29-.26a57.93,57.93,0,0,0-6.91-5.27,43.85,43.85,0,0,0-8.29-4.45V47.76a.5.5,0,0,1-.5.5Z"/><path class="cls-5" d="M588,50.59a.43.43,0,0,1-.19,0l-4.14-1.75a.52.52,0,0,1-.3-.39.53.53,0,0,1,.18-.46,23,23,0,0,0,6.8-8.53,8.39,8.39,0,0,1-2.82.57c-3.49,0-7-3.23-7-9.4,0-7.15,4.78-10.36,8.18-10.36a6.75,6.75,0,0,1,1.89.24V17c-8.66.57-15.49,1.17-20.32,1.77h-.06a.47.47,0,0,1-.32-.12.47.47,0,0,1-.18-.35l-.27-3.87a.49.49,0,0,1,.13-.36.51.51,0,0,1,.34-.17c3.66-.2,8.6-.54,13.37-.86l7.15-.49a67.26,67.26,0,0,0-.26-8.42.5.5,0,0,1,.49-.56h.09l4.71.8a.5.5,0,0,1,.42.55,52.69,52.69,0,0,0-.42,7.15c5.09-.34,10.76-.71,15.16-1.34h.07a.49.49,0,0,1,.31.11.47.47,0,0,1,.19.34l.43,4.4a.52.52,0,0,1-.13.38.48.48,0,0,1-.37.17c-7.29.05-12.95.38-15.68.55,0,1.42,0,4.64,0,6.65V24.9A18.56,18.56,0,0,1,597,32.28c0,6-3.47,11.8-4.53,13.42a23.59,23.59,0,0,1-4.05,4.75A.5.5,0,0,1,588,50.59Zm.69-25.49c-1.8,0-3.74,2.2-3.74,5.49,0,3.44,2,4.69,3.26,4.69,1.93,0,3.32-2.26,3.32-5.38C591.57,28.77,591.37,25.1,588.73,25.1Z"/><path class="cls-5" d="M639,47.83c-5.27,0-10.94-2.31-10.94-7.39,0-3.27,2.77-6.59,8.07-6.59,6.6,0,9.63,4.86,10.83,7.11,1.56-1.2,4.47-3.77,4.47-7.94,0-3.78-2.42-7.82-9.2-7.82-9.49,0-18.29,10-18.38,10.05a.49.49,0,0,1-.38.18.54.54,0,0,1-.32-.11l-3.34-2.76a.48.48,0,0,1-.18-.39.49.49,0,0,1,.19-.39A142.54,142.54,0,0,0,640.72,12a90.73,90.73,0,0,1-13.53,1.72h0a.49.49,0,0,1-.48-.36l-1.22-4a.49.49,0,0,1,.08-.45.51.51,0,0,1,.4-.2h1.32a64.58,64.58,0,0,0,20.9-3.06l.14,0a.51.51,0,0,1,.43.24l1.8,2.91a.5.5,0,0,1-.09.64l-.5.44c-.76.66-2.17,1.91-2.45,2.19l-.7.71c-3.49,3.53-5.89,6-8.38,8.28a13.64,13.64,0,0,1,4.27-.62c5,0,13.54,2.61,13.54,12.42C656.22,43.21,646.14,47.83,639,47.83Zm-3.18-9.64c-2,0-3.16,1.22-3.16,2.09,0,1.72,3.29,3.11,6,3.11a19,19,0,0,0,3.67-.39C641.45,41.21,639.63,38.19,635.8,38.19Z"/><g class="cls-6"></g></svg>