<svg xmlns="http://www.w3.org/2000/svg" viewBox="0 0 604 250"><title>catch-copy</title><path d="M104.182,49.372a7.449,7.449,0,0,1-3.372,1.368L88.669,103.808c-.187.5-2.787,1.872-4.573,1.872h-.714l1.386-6.048H51.483L50.449,104.1c-.167.72-2.166,1.944-4.381,1.944h-.786l14.1-60.773,4.538,2.521H95.936l3.5-3.168Zm-41.172.5L57.839,72.2H91.054l5.115-22.322ZM85.246,97.544l5.33-23.258H57.355L51.967,97.544Z" fill="#fff"/><path d="M159.416,59.74c3.645,12.673,13.062,23.834,23.041,29.019l-.3.72a7.823,7.823,0,0,0-5.59,3.96c-9.358-6.7-16.442-18.722-18.786-33.7l-6.621,29.523h6.495l4.368-4.537s3.074,3.168,4.986,5.473a2.245,2.245,0,0,1-2.184,1.152H150.688l-3.02,13.465c-.162.72-2.405,1.8-4.263,1.8h-.929L145.9,91.351H130.844l-.1-2.088h15.629l5.694-25.346a101.51,101.51,0,0,1-36.62,30.17l-.469-1.08A111.1,111.1,0,0,0,149.233,59.74h-25.28l-.151-2.16h29.689l3.817-16.993,7.2.864c-.455,1.08-1.186,1.8-3.1,2.088L158.262,57.58h19.65l4.744-4.68a71.4,71.4,0,0,1,5.356,5.688,2.069,2.069,0,0,1-2.107,1.152Z" fill="#fff"/><path d="M225.423,47.8a12.911,12.911,0,0,1,4.7-.91c2.836,0,7.419,2.45,7.037,4.2-.336,1.54-1.889,2.31-3.033,4.06-1.06,1.681-2.679,4.341-4.668,7.421a37.58,37.58,0,0,1,5.885-.63c5.194,0,7.546,2.87,5.747,11.131-1.844,8.471-6.476,18.272-11.7,23.453a13.234,13.234,0,0,1-9.366,4.411c-2.292,0-2.564-.98-3.022-3.01-.256-1.05-.557-1.89-3.708-5.25l1.078-1.12c3.1,2.31,5.813,4.2,7.41,4.2,2.152,0,3.917-.77,6.349-3.641,3.07-3.57,7.5-12.111,9.238-20.092,1.114-5.11.41-7.281-3.468-7.281a29.612,29.612,0,0,0-6.463,1.05c-3.036,4.69-6.558,10.011-9.8,14.7-5.521,7.771-10.5,14.632-14.455,19.042-1.411,1.68-2.284,2.17-3.325,2.17-.973,0-1.868-.98-1.513-2.59a5.909,5.909,0,0,1,1.821-3.22,149.616,149.616,0,0,0,14.628-17.292c2.4-3.36,5.179-7.491,7.733-11.551-2.747.84-5.287,1.68-6.8,2.24-3.24,1.19-4.38,1.96-6.112,1.96-1.8,0-3.779-2.661-3.839-4.9A9.859,9.859,0,0,1,206.8,62.3l1.43-.21c.346,1.89.337,4.13,2.346,4.13,2.217,0,8.819-1.68,14.189-2.8,3.258-5.391,5.777-9.941,6.068-11.271.184-.84.1-1.4-.709-1.82a15.762,15.762,0,0,0-5.027-1.05ZM248.9,62.016c5.427.84,8.495,2.661,10.583,5.811,1.958,2.8,2.692,7.421,1.527,12.812-.605,2.8-2.006,5.11-4.033,5.181-2.012,0-1.448-1.96-3.369-2.38-1.4-.28-5.841.07-8.26.35l-.052-1.68a87.767,87.767,0,0,0,9.332-2.1c1.578-.56,1.922-1.19,2.247-3.01a13.848,13.848,0,0,0-1.143-7.841c-1.348-2.73-3.709-4.621-8.027-5.461Z" fill="#fff"/><path d="M299.641,47.455l.744-1.54c6.3.63,9.537,2.31,11.6,3.99,2.528,2.1,3.066,4.13,2.545,6.581-.372,1.75-1.327,2.66-2.78,2.66-1.8,0-2.181-.49-5.241-.42a64.388,64.388,0,0,0-10.813,1.68c-1.168.28-1.618.77-1.768,1.47-.165.771.262,2.661-.037,4.061-.3,1.75-1.456,3.57-2.6,6.021-1.382,3.221-3.132,6.861-3.866,10.292-.165.77.222.91.881.42,9.087-6.511,18.1-10.081,25.3-10.081,10.4,0,13.936,6.861,12.459,13.861-2.659,12.6-22.285,17.712-37.984,16.732l.166-1.75a63.144,63.144,0,0,0,14.074-2.17c13.072-3.36,18.074-8.961,19.155-14.072,1.317-6.23-2.706-10.151-8.667-10.151-7.763,0-17.327,6.161-24.067,12.391-1.3,1.19-2.593,3.36-3.911,3.36-.833,0-1.422-.49-2.045-1.47a4.594,4.594,0,0,1-.7-3.221c.24-1.12,1.071-2.73,1.654-4.48,1.385-4.2,3.938-10.291,5.226-13.721a31.987,31.987,0,0,0,1.557-6.3c.315-1.47,1.193-2.66,3.529-3.22,3.809-.98,10.836-2.45,13.828-3.5,1.113-.35,1.4-1.05.546-2.24C307.107,50.4,303.661,48.715,299.641,47.455Z" fill="#fff"/><path d="M408.347,56a67.742,67.742,0,0,1,5.23,5.4,2.187,2.187,0,0,1-2.073,1.08H399.538l-4.861,23.618c-.119.576-2.411,1.656-4.195,1.656h-.857l.995-4.825H376.853l-.94,4.537c-.134.648-2.356,1.728-4.069,1.728h-.857l5.545-26.714H363.213l-7.51,36H393.27l4.548-4.752s3.518,3.384,5.617,5.688a2.2,2.2,0,0,1-2.165,1.152h-46l-.856,4.1c-.15.72-2.391,1.872-4.106,1.872h-.929l9.207-44.068H347.829l-.147-2.016H359L362.8,42.315l6.947.792c-.423,1.008-.986,1.656-2.9,1.944L363.634,60.46h13.317L381,40.947l6.947.792c-.351,1.008-1.069,1.728-2.964,1.944L381.508,60.46h13.745l3.919-19.01,7.09.792c-.42,1.008-1.209,1.728-2.975,2.016l-3.335,16.2h4.059Zm-13.51,6.48H381.09l-3.79,18.29h13.766Z" fill="#fff"/><path d="M463.553,70.325c4.475,6.121,14.522,10.441,23.907,12.385l-.215.72a6.9,6.9,0,0,0-4.683,4.176,43.815,43.815,0,0,1-14.042-7.921,2.84,2.84,0,0,1-1.77.648l-4.936,24.626c-.115.576-2.39,1.584-4.033,1.584h-.929l5.725-28.515,4.676.5a23.873,23.873,0,0,1-5.695-8.209h-7.7a53.487,53.487,0,0,1-8.912,7.777l5.289.648c-.317.864-.947,1.512-2.7,1.728L446.4,86.095c-1.756,7.993-6.729,16.345-25.94,20.522l-.437-1.008c15.882-4.68,20.325-12.169,21.84-19.658l1.354-6.7a79.094,79.094,0,0,1-22.09,9.361l-.321-1.224c10.937-3.96,20.336-9.865,26.925-17.065h-8.766l-.423,2.088c-.1.5-2.318,1.584-4.171,1.584h-.784l6.418-31.611,4.582,2.3h35.138l3.136-2.88,4.942,4.464a7.255,7.255,0,0,1-3.347,1.44L479.629,71.91c-.158.432-2.811,1.584-4.236,1.584h-.713l.633-3.168ZM443.724,46.852l-1.9,9.36h15.52l1.886-9.36ZM439.4,68.165h15.534l1.988-9.865H441.4Zm24.453-21.313-1.883,9.36h16.16l1.871-9.36Zm11.887,21.313,1.972-9.865H461.554l-1.984,9.865Z" fill="#fff"/><path d="M502.154,73.917l1.3-.98c1.359,1.54,2.746,2.59,3.994,2.59a7.378,7.378,0,0,0,3.686-1.82c3.781-3.01,10.742-9.521,13.951-12.461,1.77-1.61,3.333-2.52,5.133-2.52a6.364,6.364,0,0,1,5.268,2.8c6.073,7.21,11.016,18.132,23.423,25.692a3.84,3.84,0,0,1,1.963,4.2,2.559,2.559,0,0,1-2.667,2.31c-2.568,0-7.7-4.34-12.451-10.221-4.736-5.951-8.819-13.441-13.142-19.322a3.857,3.857,0,0,0-3.121-1.75c-.831,0-1.771.56-3.058,1.82-3.07,2.94-9.3,9.591-12.605,13.021-2.188,2.31-3.519,3.78-5.46,3.78-1.873,0-4.217-1.82-5.341-3.5A7.706,7.706,0,0,1,502.154,73.917Z" fill="#fff"/><path d="M97.79,180.91c-.147.648-2.333,1.728-3.986,1.728h-.935l4.546-20.018a71.152,71.152,0,0,1-17.851,16.273l-.688-1.08a79.465,79.465,0,0,0,18.65-23.258H85.619l-.025-2.088H99.721l2.764-12.169,6.914.792c-.371,1.008-1.163,1.656-3.02,1.944l-2.139,9.433h4.231l4.1-4.176s2.918,2.952,4.725,5.112a2.264,2.264,0,0,1-2.2,1.152H103.766l-1.225,5.4c14.253,4.248,8.948,13.753,4.963,10.729-.376-3.1-2.8-6.985-5.257-9.433Zm-8.457,5.9a20.108,20.108,0,0,1-9.5,15.193c-2.223,1.224-4.879,1.512-5.382-.072-.247-1.44,1.017-2.88,2.67-3.816a22.547,22.547,0,0,0,11.023-11.449Zm34.662,13.1c1.542.5,1.933,1.008,1.723,1.944-.485,2.16-3.11,2.952-16.43,2.952H99.424c-6.336,0-7.347-.936-6.514-4.608l3.43-15.122,6.595.72a3.037,3.037,0,0,1-2.477,1.728l-2.69,11.881c-.228,1.008.083,1.224,3.322,1.224H110.3c4.246,0,7.485,0,8.741-.144a1.909,1.909,0,0,0,1.794-.936,56.328,56.328,0,0,0,3.938-7.921h.935Zm-18.68-17.642c15.825,3.457,10.868,14.617,6.354,11.665-.33-3.96-3.892-8.569-7.237-10.945Zm12.216-1.584c-.13.576-2.242,1.656-4.183,1.656h-.718l8.919-39.532,4.37,2.232h16.341l3.3-2.88,4.808,4.464a8.33,8.33,0,0,1-3.421,1.512l-7.133,31.9c-.185.5-2.742,1.656-4.323,1.656h-.719l.935-4.176H118.244Zm7.543-33.483L123.3,155.06h17.429l1.758-7.849Zm13.4,17.93,1.79-7.993H122.834l-1.8,7.993Zm-2.306,10.3,1.838-8.209H120.563l-1.849,8.209Zm-8.625,10.584c18.591,6.265,12.517,19.3,7.6,15.554-.224-5.113-4.52-11.305-8.548-14.833Z" fill="#fff"/><path d="M170.282,162.646c.838-3.781.737-5.531-3.438-9.031l.877-1.12a16.308,16.308,0,0,1,4.144,1.12c2.247,1.19,5.176,4.341,4.541,7.211-.681,3.08-4.03,7.491-5.626,14.7-1.968,8.891,1.08,13.441,3.677,14.981a1.815,1.815,0,0,0,2.555-.49,153.05,153.05,0,0,0,9.393-12.811l1.631.84c-2.623,4.621-6.155,10.5-7.053,12.671-1.323,3.15-.281,3.5-.605,4.971-.416,1.89-2.552,3.01-5.157,1.82-4.931-2.38-10.856-8.471-8.1-21.842C168.095,170.627,169.584,165.8,170.282,162.646Zm32.9-1.75,1-1.68c6.3,1.19,9.18,3.641,11.6,6.931,3.078,4.131,3.665,11.062,2.644,15.752-.594,2.73-1.762,3.92-3.65,3.92-1.118,0-1.774-.84-1.7-2.45.182-3.081.922-9.031-.927-14C210.6,165.236,207.4,162.646,203.181,160.9Z" fill="#fff"/><path d="M283.172,161.666c2.408.49,3.768.98,4.761,1.891,1.491,1.19,3.025,3.5,2.608,5.46-.3,1.4-.87,1.47-3.912,2.31a166.671,166.671,0,0,0-21.594,7.911c-.644,3.99-1.738,9.1-2.218,11.341-.36,1.68-1.354,2.73-2.753,2.73-1.188,0-2.142-.77-1.737-2.66.36-1.68,1.45-5.461,2.331-9.241-7.606,3.851-13.463,8.331-14.353,12.461-.844,3.92,3.272,5.6,9.919,5.6,10.356,0,14.877-2.17,18.235-2.17,2.449,0,3.529.84,3.246,2.17-.224,1.05-.793,1.75-3.141,2.59a82.552,82.552,0,0,1-16.081,1.89c-13.019,0-16.413-4.061-15.221-9.591s8.759-11.131,18.046-16.312c.927-5.951.137-8.121-3.494-8.121-3.91,0-9.362,3.92-12.96,7-3.019,2.66-5.686,5.951-7.379,6.021-1.4,0-2.149-1.05-1.77-2.8.409-1.89,3.372-3.64,7.24-7a92.55,92.55,0,0,0,12.533-12.812,44.219,44.219,0,0,1-5.1.35c-5.72,0-6.574-1.54-8.168-7.071l1.662-.91c2.153,2.94,3.022,4.411,8.183,4.411a36.119,36.119,0,0,0,6.358-.7,35.178,35.178,0,0,0,3.625-6.161c.619-1.26.43-1.68-.649-2.17a9.075,9.075,0,0,0-3.8-1.12l.286-1.33a16.5,16.5,0,0,1,4.122-.7c2.175-.07,6.434,1.19,6.074,2.87-.14.98-.872,1.47-1.97,3.01-.659,1.12-1.941,2.871-3.223,4.621a82.621,82.621,0,0,0,9.71-3.01c3.213-1.33,3.836-1.96,4.881-1.96,1.535,0,2.878.56,2.594,1.891-.194.91-.971,1.61-2.415,2.17a97.373,97.373,0,0,1-17.919,5.181,113.327,113.327,0,0,1-8.823,9.871c-.355.35-.236.77.328.42,2.475-1.12,5.4-2.38,8.191-2.38,4.4,0,6.4,3.01,5.978,8.261,6.316-3.081,14.051-5.951,18.716-8.191,1.321-.63,1.594-1.26.856-2.38a7.327,7.327,0,0,0-2.913-2.38Z" fill="#fff"/><path d="M321.046,160.893l-.56,2.664c-2.8,13.321-7.326,30.747-21.55,42.916l-.913-.792c10.6-12.385,14.735-27.578,17.783-42.051l4.428-21.026,5.018,2.376h39.564l3.248-2.88,4.954,4.464a7.764,7.764,0,0,1-3.38,1.44l-3.082,14.905c-.16.432-2.753,1.512-4.26,1.512h-.789l.731-3.528Zm2.906-13.825L321.5,158.732h41.183l2.416-11.665Zm43.8,27.074a7.4,7.4,0,0,1-3.386,1.44l-6.028,29.162c-.162.432-2.7,1.584-4.288,1.584H353.4l.984-4.752H320.627l-.679,3.24c-.106.5-2.291,1.656-4.164,1.656h-.792l7.6-36.219,4.457,2.376h13.862l2.117-10.153,6.739.72a2.88,2.88,0,0,1-2.6,1.8l-1.589,7.632h14.076l3.212-3.024Zm-41.48.5-2.339,11.161h14.236l2.327-11.161Zm-5.192,24.771h14.25l2.388-11.449H323.48Zm24.085-24.771-2.324,11.161h14.81l2.311-11.161Zm9.668,24.771,2.371-11.449H342.392l-2.384,11.449Z" fill="#fff"/><path d="M404.965,174.2c-2.647,4.761-6.632,11.972-7.817,14.352a22.406,22.406,0,0,0-1.741,4.761c-.429,2.1.45,2.94-.036,5.32a2.342,2.342,0,0,1-2.415,1.891c-1.4,0-2.29-1.12-2.844-2.521-1.33-3.08-2.562-8.331-.67-17.572,1.82-8.891,8.661-19.812,9.648-24.643.529-2.59-.561-4.761-2.636-7.561l1.19-1.05a12.419,12.419,0,0,1,3.279,2.03c1.29,1.19,3.867,4.62,3.238,7.7-.314,1.54-1.845,3.57-3.264,5.741-2.939,4.48-6.911,11.271-8.156,17.362-.816,3.99-.632,6.51-.192,8.121.344,1.05.89,1.12,1.677,0,1.6-2.03,6.418-9.871,9.358-14.7Zm22.228-26.322a19.291,19.291,0,0,1,5.4-1.19c2.648,0,6.6,1.82,6.236,3.641-.226,1.12-1.525,2.38-2.033,4.9-.395,1.61-.889,4.41-1.328,7.281,1.549-.42,2.974-.91,4.245-1.33,2.946-1.12,3.785-1.82,4.342-1.82,1.465,0,3.417.7,3.136,2.1-.225,1.12-.909,1.75-2.431,2.38a62.714,62.714,0,0,1-9.957,3.01c-1.062,7.351-2.606,18.482-7.051,24.923-4.63,7-11.173,10.291-19.117,12.881l-.541-1.47c6.979-3.36,12.067-6.721,16.083-13.441,3.676-5.741,5.164-15.192,6.283-22.123a54.8,54.8,0,0,1-8.309.7c-4.118,0-7.715-1.54-10.292-6.371l1.163-1.26c3.312,2.59,6.126,3.851,10.035,3.851a42.123,42.123,0,0,0,8.014-.98c.625-4.131,1.391-9.311,1.578-11.271.172-1.54-.162-1.96-1.151-2.24a19.369,19.369,0,0,0-4.459-.7Z" fill="#fff"/><path d="M475.277,148.575c.5,2.03.992,4.13,2.8,4.13,2.789,0,12.017-2.24,15.333-3.15,1.63-.49,1.977-1.19,2.953-1.19,2.091,0,5.346,2.94,4.974,4.831-.262,1.33-1.879,1.4-4.748,3.57-4.137,2.94-15.2,11.971-19.038,15.472-.572.42-.4.98.21.7a38.608,38.608,0,0,1,12.495-2.45c9.076,0,15.659,5.95,13.542,15.682-1.855,8.751-11.107,15.961-24.334,15.961-7.838,0-12.531-3.15-11.53-8.191.737-3.71,4.592-6.581,9.137-6.581,5.033,0,9.641,3.22,9.407,10.081,7.382-1.96,11.841-6.861,13.053-12.321,1.419-6.161-2.05-12.321-10.638-12.321-10.055,0-18.36,6.3-25.733,13.861-1.314,1.33-1.957,1.75-2.991,1.68-.84,0-1.679-1.05-1.259-2.8.321-1.26,1.145-2.24,3.073-3.85,13.249-11.481,28.264-23.522,32.119-28.213.834-1.05.472-1.331-.393-1.19-2.328.49-8.823,2.66-12.058,3.851-1.436.56-2.621,1.61-3.737,1.61-2.65,0-4.632-3.01-4.787-5.041a9.963,9.963,0,0,1,.85-3.92Zm6.94,49.565c.155-5.391-2.717-8.191-6.7-8.191a4.957,4.957,0,0,0-5.072,3.71c-.486,2.45,2.091,4.621,8.878,4.621C480.3,198.28,481.294,198.21,482.218,198.14Z" fill="#fff"/><path d="M104.182,49.372a7.449,7.449,0,0,1-3.372,1.368L88.669,103.808c-.187.5-2.787,1.872-4.573,1.872h-.714l1.386-6.048H51.483L50.449,104.1c-.167.72-2.166,1.944-4.381,1.944h-.786l14.1-60.773,4.538,2.521H95.936l3.5-3.168Zm-41.172.5L57.839,72.2H91.054l5.115-22.322ZM85.246,97.544l5.33-23.258H57.355L51.967,97.544Z" fill="#fff"/><path d="M159.416,59.74c3.645,12.673,13.062,23.834,23.041,29.019l-.3.72a7.823,7.823,0,0,0-5.59,3.96c-9.358-6.7-16.442-18.722-18.786-33.7l-6.621,29.523h6.495l4.368-4.537s3.074,3.168,4.986,5.473a2.245,2.245,0,0,1-2.184,1.152H150.688l-3.02,13.465c-.162.72-2.405,1.8-4.263,1.8h-.929L145.9,91.351H130.844l-.1-2.088h15.629l5.694-25.346a101.51,101.51,0,0,1-36.62,30.17l-.469-1.08A111.1,111.1,0,0,0,149.233,59.74h-25.28l-.151-2.16h29.689l3.817-16.993,7.2.864c-.455,1.08-1.186,1.8-3.1,2.088L158.262,57.58h19.65l4.744-4.68a71.4,71.4,0,0,1,5.356,5.688,2.069,2.069,0,0,1-2.107,1.152Z" fill="#fff"/><path d="M225.423,47.8a12.911,12.911,0,0,1,4.7-.91c2.836,0,7.419,2.45,7.037,4.2-.336,1.54-1.889,2.31-3.033,4.06-1.06,1.681-2.679,4.341-4.668,7.421a37.58,37.58,0,0,1,5.885-.63c5.194,0,7.546,2.87,5.747,11.131-1.844,8.471-6.476,18.272-11.7,23.453a13.234,13.234,0,0,1-9.366,4.411c-2.292,0-2.564-.98-3.022-3.01-.256-1.05-.557-1.89-3.708-5.25l1.078-1.12c3.1,2.31,5.813,4.2,7.41,4.2,2.152,0,3.917-.77,6.349-3.641,3.07-3.57,7.5-12.111,9.238-20.092,1.114-5.11.41-7.281-3.468-7.281a29.612,29.612,0,0,0-6.463,1.05c-3.036,4.69-6.558,10.011-9.8,14.7-5.521,7.771-10.5,14.632-14.455,19.042-1.411,1.68-2.284,2.17-3.325,2.17-.973,0-1.868-.98-1.513-2.59a5.909,5.909,0,0,1,1.821-3.22,149.616,149.616,0,0,0,14.628-17.292c2.4-3.36,5.179-7.491,7.733-11.551-2.747.84-5.287,1.68-6.8,2.24-3.24,1.19-4.38,1.96-6.112,1.96-1.8,0-3.779-2.661-3.839-4.9A9.859,9.859,0,0,1,206.8,62.3l1.43-.21c.346,1.89.337,4.13,2.346,4.13,2.217,0,8.819-1.68,14.189-2.8,3.258-5.391,5.777-9.941,6.068-11.271.184-.84.1-1.4-.709-1.82a15.762,15.762,0,0,0-5.027-1.05ZM248.9,62.016c5.427.84,8.495,2.661,10.583,5.811,1.958,2.8,2.692,7.421,1.527,12.812-.605,2.8-2.006,5.11-4.033,5.181-2.012,0-1.448-1.96-3.369-2.38-1.4-.28-5.841.07-8.26.35l-.052-1.68a87.767,87.767,0,0,0,9.332-2.1c1.578-.56,1.922-1.19,2.247-3.01a13.848,13.848,0,0,0-1.143-7.841c-1.348-2.73-3.709-4.621-8.027-5.461Z" fill="#fff"/><path d="M299.641,47.455l.744-1.54c6.3.63,9.537,2.31,11.6,3.99,2.528,2.1,3.066,4.13,2.545,6.581-.372,1.75-1.327,2.66-2.78,2.66-1.8,0-2.181-.49-5.241-.42a64.388,64.388,0,0,0-10.813,1.68c-1.168.28-1.618.77-1.768,1.47-.165.771.262,2.661-.037,4.061-.3,1.75-1.456,3.57-2.6,6.021-1.382,3.221-3.132,6.861-3.866,10.292-.165.77.222.91.881.42,9.087-6.511,18.1-10.081,25.3-10.081,10.4,0,13.936,6.861,12.459,13.861-2.659,12.6-22.285,17.712-37.984,16.732l.166-1.75a63.144,63.144,0,0,0,14.074-2.17c13.072-3.36,18.074-8.961,19.155-14.072,1.317-6.23-2.706-10.151-8.667-10.151-7.763,0-17.327,6.161-24.067,12.391-1.3,1.19-2.593,3.36-3.911,3.36-.833,0-1.422-.49-2.045-1.47a4.594,4.594,0,0,1-.7-3.221c.24-1.12,1.071-2.73,1.654-4.48,1.385-4.2,3.938-10.291,5.226-13.721a31.987,31.987,0,0,0,1.557-6.3c.315-1.47,1.193-2.66,3.529-3.22,3.809-.98,10.836-2.45,13.828-3.5,1.113-.35,1.4-1.05.546-2.24C307.107,50.4,303.661,48.715,299.641,47.455Z" fill="#fff"/><path d="M408.347,56a67.742,67.742,0,0,1,5.23,5.4,2.187,2.187,0,0,1-2.073,1.08H399.538l-4.861,23.618c-.119.576-2.411,1.656-4.195,1.656h-.857l.995-4.825H376.853l-.94,4.537c-.134.648-2.356,1.728-4.069,1.728h-.857l5.545-26.714H363.213l-7.51,36H393.27l4.548-4.752s3.518,3.384,5.617,5.688a2.2,2.2,0,0,1-2.165,1.152h-46l-.856,4.1c-.15.72-2.391,1.872-4.106,1.872h-.929l9.207-44.068H347.829l-.147-2.016H359L362.8,42.315l6.947.792c-.423,1.008-.986,1.656-2.9,1.944L363.634,60.46h13.317L381,40.947l6.947.792c-.351,1.008-1.069,1.728-2.964,1.944L381.508,60.46h13.745l3.919-19.01,7.09.792c-.42,1.008-1.209,1.728-2.975,2.016l-3.335,16.2h4.059Zm-13.51,6.48H381.09l-3.79,18.29h13.766Z" fill="#fff"/><path d="M463.553,70.325c4.475,6.121,14.522,10.441,23.907,12.385l-.215.72a6.9,6.9,0,0,0-4.683,4.176,43.815,43.815,0,0,1-14.042-7.921,2.84,2.84,0,0,1-1.77.648l-4.936,24.626c-.115.576-2.39,1.584-4.033,1.584h-.929l5.725-28.515,4.676.5a23.873,23.873,0,0,1-5.695-8.209h-7.7a53.487,53.487,0,0,1-8.912,7.777l5.289.648c-.317.864-.947,1.512-2.7,1.728L446.4,86.095c-1.756,7.993-6.729,16.345-25.94,20.522l-.437-1.008c15.882-4.68,20.325-12.169,21.84-19.658l1.354-6.7a79.094,79.094,0,0,1-22.09,9.361l-.321-1.224c10.937-3.96,20.336-9.865,26.925-17.065h-8.766l-.423,2.088c-.1.5-2.318,1.584-4.171,1.584h-.784l6.418-31.611,4.582,2.3h35.138l3.136-2.88,4.942,4.464a7.255,7.255,0,0,1-3.347,1.44L479.629,71.91c-.158.432-2.811,1.584-4.236,1.584h-.713l.633-3.168ZM443.724,46.852l-1.9,9.36h15.52l1.886-9.36ZM439.4,68.165h15.534l1.988-9.865H441.4Zm24.453-21.313-1.883,9.36h16.16l1.871-9.36Zm11.887,21.313,1.972-9.865H461.554l-1.984,9.865Z" fill="#fff"/><path d="M502.154,73.917l1.3-.98c1.359,1.54,2.746,2.59,3.994,2.59a7.378,7.378,0,0,0,3.686-1.82c3.781-3.01,10.742-9.521,13.951-12.461,1.77-1.61,3.333-2.52,5.133-2.52a6.364,6.364,0,0,1,5.268,2.8c6.073,7.21,11.016,18.132,23.423,25.692a3.84,3.84,0,0,1,1.963,4.2,2.559,2.559,0,0,1-2.667,2.31c-2.568,0-7.7-4.34-12.451-10.221-4.736-5.951-8.819-13.441-13.142-19.322a3.857,3.857,0,0,0-3.121-1.75c-.831,0-1.771.56-3.058,1.82-3.07,2.94-9.3,9.591-12.605,13.021-2.188,2.31-3.519,3.78-5.46,3.78-1.873,0-4.217-1.82-5.341-3.5A7.706,7.706,0,0,1,502.154,73.917Z" fill="#fff"/><path d="M97.79,180.91c-.147.648-2.333,1.728-3.986,1.728h-.935l4.546-20.018a71.152,71.152,0,0,1-17.851,16.273l-.688-1.08a79.465,79.465,0,0,0,18.65-23.258H85.619l-.025-2.088H99.721l2.764-12.169,6.914.792c-.371,1.008-1.163,1.656-3.02,1.944l-2.139,9.433h4.231l4.1-4.176s2.918,2.952,4.725,5.112a2.264,2.264,0,0,1-2.2,1.152H103.766l-1.225,5.4c14.253,4.248,8.948,13.753,4.963,10.729-.376-3.1-2.8-6.985-5.257-9.433Zm-8.457,5.9a20.108,20.108,0,0,1-9.5,15.193c-2.223,1.224-4.879,1.512-5.382-.072-.247-1.44,1.017-2.88,2.67-3.816a22.547,22.547,0,0,0,11.023-11.449Zm34.662,13.1c1.542.5,1.933,1.008,1.723,1.944-.485,2.16-3.11,2.952-16.43,2.952H99.424c-6.336,0-7.347-.936-6.514-4.608l3.43-15.122,6.595.72a3.037,3.037,0,0,1-2.477,1.728l-2.69,11.881c-.228,1.008.083,1.224,3.322,1.224H110.3c4.246,0,7.485,0,8.741-.144a1.909,1.909,0,0,0,1.794-.936,56.328,56.328,0,0,0,3.938-7.921h.935Zm-18.68-17.642c15.825,3.457,10.868,14.617,6.354,11.665-.33-3.96-3.892-8.569-7.237-10.945Zm12.216-1.584c-.13.576-2.242,1.656-4.183,1.656h-.718l8.919-39.532,4.37,2.232h16.341l3.3-2.88,4.808,4.464a8.33,8.33,0,0,1-3.421,1.512l-7.133,31.9c-.185.5-2.742,1.656-4.323,1.656h-.719l.935-4.176H118.244Zm7.543-33.483L123.3,155.06h17.429l1.758-7.849Zm13.4,17.93,1.79-7.993H122.834l-1.8,7.993Zm-2.306,10.3,1.838-8.209H120.563l-1.849,8.209Zm-8.625,10.584c18.591,6.265,12.517,19.3,7.6,15.554-.224-5.113-4.52-11.305-8.548-14.833Z" fill="#fff"/><path d="M170.282,162.646c.838-3.781.737-5.531-3.438-9.031l.877-1.12a16.308,16.308,0,0,1,4.144,1.12c2.247,1.19,5.176,4.341,4.541,7.211-.681,3.08-4.03,7.491-5.626,14.7-1.968,8.891,1.08,13.441,3.677,14.981a1.815,1.815,0,0,0,2.555-.49,153.05,153.05,0,0,0,9.393-12.811l1.631.84c-2.623,4.621-6.155,10.5-7.053,12.671-1.323,3.15-.281,3.5-.605,4.971-.416,1.89-2.552,3.01-5.157,1.82-4.931-2.38-10.856-8.471-8.1-21.842C168.095,170.627,169.584,165.8,170.282,162.646Zm32.9-1.75,1-1.68c6.3,1.19,9.18,3.641,11.6,6.931,3.078,4.131,3.665,11.062,2.644,15.752-.594,2.73-1.762,3.92-3.65,3.92-1.118,0-1.774-.84-1.7-2.45.182-3.081.922-9.031-.927-14C210.6,165.236,207.4,162.646,203.181,160.9Z" fill="#fff"/><path d="M283.172,161.666c2.408.49,3.768.98,4.761,1.891,1.491,1.19,3.025,3.5,2.608,5.46-.3,1.4-.87,1.47-3.912,2.31a166.671,166.671,0,0,0-21.594,7.911c-.644,3.99-1.738,9.1-2.218,11.341-.36,1.68-1.354,2.73-2.753,2.73-1.188,0-2.142-.77-1.737-2.66.36-1.68,1.45-5.461,2.331-9.241-7.606,3.851-13.463,8.331-14.353,12.461-.844,3.92,3.272,5.6,9.919,5.6,10.356,0,14.877-2.17,18.235-2.17,2.449,0,3.529.84,3.246,2.17-.224,1.05-.793,1.75-3.141,2.59a82.552,82.552,0,0,1-16.081,1.89c-13.019,0-16.413-4.061-15.221-9.591s8.759-11.131,18.046-16.312c.927-5.951.137-8.121-3.494-8.121-3.91,0-9.362,3.92-12.96,7-3.019,2.66-5.686,5.951-7.379,6.021-1.4,0-2.149-1.05-1.77-2.8.409-1.89,3.372-3.64,7.24-7a92.55,92.55,0,0,0,12.533-12.812,44.219,44.219,0,0,1-5.1.35c-5.72,0-6.574-1.54-8.168-7.071l1.662-.91c2.153,2.94,3.022,4.411,8.183,4.411a36.119,36.119,0,0,0,6.358-.7,35.178,35.178,0,0,0,3.625-6.161c.619-1.26.43-1.68-.649-2.17a9.075,9.075,0,0,0-3.8-1.12l.286-1.33a16.5,16.5,0,0,1,4.122-.7c2.175-.07,6.434,1.19,6.074,2.87-.14.98-.872,1.47-1.97,3.01-.659,1.12-1.941,2.871-3.223,4.621a82.621,82.621,0,0,0,9.71-3.01c3.213-1.33,3.836-1.96,4.881-1.96,1.535,0,2.878.56,2.594,1.891-.194.91-.971,1.61-2.415,2.17a97.373,97.373,0,0,1-17.919,5.181,113.327,113.327,0,0,1-8.823,9.871c-.355.35-.236.77.328.42,2.475-1.12,5.4-2.38,8.191-2.38,4.4,0,6.4,3.01,5.978,8.261,6.316-3.081,14.051-5.951,18.716-8.191,1.321-.63,1.594-1.26.856-2.38a7.327,7.327,0,0,0-2.913-2.38Z" fill="#fff"/><path d="M321.046,160.893l-.56,2.664c-2.8,13.321-7.326,30.747-21.55,42.916l-.913-.792c10.6-12.385,14.735-27.578,17.783-42.051l4.428-21.026,5.018,2.376h39.564l3.248-2.88,4.954,4.464a7.764,7.764,0,0,1-3.38,1.44l-3.082,14.905c-.16.432-2.753,1.512-4.26,1.512h-.789l.731-3.528Zm2.906-13.825L321.5,158.732h41.183l2.416-11.665Zm43.8,27.074a7.4,7.4,0,0,1-3.386,1.44l-6.028,29.162c-.162.432-2.7,1.584-4.288,1.584H353.4l.984-4.752H320.627l-.679,3.24c-.106.5-2.291,1.656-4.164,1.656h-.792l7.6-36.219,4.457,2.376h13.862l2.117-10.153,6.739.72a2.88,2.88,0,0,1-2.6,1.8l-1.589,7.632h14.076l3.212-3.024Zm-41.48.5-2.339,11.161h14.236l2.327-11.161Zm-5.192,24.771h14.25l2.388-11.449H323.48Zm24.085-24.771-2.324,11.161h14.81l2.311-11.161Zm9.668,24.771,2.371-11.449H342.392l-2.384,11.449Z" fill="#fff"/><path d="M404.965,174.2c-2.647,4.761-6.632,11.972-7.817,14.352a22.406,22.406,0,0,0-1.741,4.761c-.429,2.1.45,2.94-.036,5.32a2.342,2.342,0,0,1-2.415,1.891c-1.4,0-2.29-1.12-2.844-2.521-1.33-3.08-2.562-8.331-.67-17.572,1.82-8.891,8.661-19.812,9.648-24.643.529-2.59-.561-4.761-2.636-7.561l1.19-1.05a12.419,12.419,0,0,1,3.279,2.03c1.29,1.19,3.867,4.62,3.238,7.7-.314,1.54-1.845,3.57-3.264,5.741-2.939,4.48-6.911,11.271-8.156,17.362-.816,3.99-.632,6.51-.192,8.121.344,1.05.89,1.12,1.677,0,1.6-2.03,6.418-9.871,9.358-14.7Zm22.228-26.322a19.291,19.291,0,0,1,5.4-1.19c2.648,0,6.6,1.82,6.236,3.641-.226,1.12-1.525,2.38-2.033,4.9-.395,1.61-.889,4.41-1.328,7.281,1.549-.42,2.974-.91,4.245-1.33,2.946-1.12,3.785-1.82,4.342-1.82,1.465,0,3.417.7,3.136,2.1-.225,1.12-.909,1.75-2.431,2.38a62.714,62.714,0,0,1-9.957,3.01c-1.062,7.351-2.606,18.482-7.051,24.923-4.63,7-11.173,10.291-19.117,12.881l-.541-1.47c6.979-3.36,12.067-6.721,16.083-13.441,3.676-5.741,5.164-15.192,6.283-22.123a54.8,54.8,0,0,1-8.309.7c-4.118,0-7.715-1.54-10.292-6.371l1.163-1.26c3.312,2.59,6.126,3.851,10.035,3.851a42.123,42.123,0,0,0,8.014-.98c.625-4.131,1.391-9.311,1.578-11.271.172-1.54-.162-1.96-1.151-2.24a19.369,19.369,0,0,0-4.459-.7Z" fill="#fff"/><path d="M475.277,148.575c.5,2.03.992,4.13,2.8,4.13,2.789,0,12.017-2.24,15.333-3.15,1.63-.49,1.977-1.19,2.953-1.19,2.091,0,5.346,2.94,4.974,4.831-.262,1.33-1.879,1.4-4.748,3.57-4.137,2.94-15.2,11.971-19.038,15.472-.572.42-.4.98.21.7a38.608,38.608,0,0,1,12.495-2.45c9.076,0,15.659,5.95,13.542,15.682-1.855,8.751-11.107,15.961-24.334,15.961-7.838,0-12.531-3.15-11.53-8.191.737-3.71,4.592-6.581,9.137-6.581,5.033,0,9.641,3.22,9.407,10.081,7.382-1.96,11.841-6.861,13.053-12.321,1.419-6.161-2.05-12.321-10.638-12.321-10.055,0-18.36,6.3-25.733,13.861-1.314,1.33-1.957,1.75-2.991,1.68-.84,0-1.679-1.05-1.259-2.8.321-1.26,1.145-2.24,3.073-3.85,13.249-11.481,28.264-23.522,32.119-28.213.834-1.05.472-1.331-.393-1.19-2.328.49-8.823,2.66-12.058,3.851-1.436.56-2.621,1.61-3.737,1.61-2.65,0-4.632-3.01-4.787-5.041a9.963,9.963,0,0,1,.85-3.92Zm6.94,49.565c.155-5.391-2.717-8.191-6.7-8.191a4.957,4.957,0,0,0-5.072,3.71c-.486,2.45,2.091,4.621,8.878,4.621C480.3,198.28,481.294,198.21,482.218,198.14Z" fill="#fff"/></svg>