<svg id="catcy-copy" data-name="catcy-copy" xmlns="http://www.w3.org/2000/svg" viewBox="0 0 664 252"><defs><style>.cls-1{fill:#fff;}.cls-2{fill:none;stroke:#fff;stroke-miterlimit:10;}</style></defs><title>catch-copy</title><path class="cls-1" d="M136.32,75.58H119l3.67,2.92c.3.22.65.51.6.95-.08.73-.76,1.09-3.24,2a78.22,78.22,0,0,1-9.42,19.27c8.72,3.79,17.06,10.44,16.48,15.76a2.91,2.91,0,0,1-2.89,2.92c-.51,0-1.67,0-3.1-2.26-2.2-3.43-4.84-7.52-13.05-13a43.53,43.53,0,0,1-32.3,16.13l-.07-.58A55,55,0,0,0,104.39,102a49.75,49.75,0,0,0-11.78-4.6c-1.82,3.72-2.32,4.74-4.7,4.74a1.9,1.9,0,0,1-2.13-2.26c.1-.88,2.2-4.31,2.54-5,4.38-8.9,7.84-16.57,9.1-19.27H87.84a41.15,41.15,0,0,0-7.59.66l-1-2.92c4.2.44,8.63.51,9.78.51h9.13c2-4.82,6-14.09,6.45-18.54a7.49,7.49,0,0,0,0-1.75l6.72,3.28a1.14,1.14,0,0,1,.72,1.09c-.1.95-1.24,1.31-3,1.82-1.08,2.26-2.93,6.2-6.29,14.09h24.11l3.48-4.23c.37-.44.75-.95,1.07-.95s.72.44,1.13.8l4.23,4.23a1.41,1.41,0,0,1,.52,1.09C137.3,75.5,136.71,75.58,136.32,75.58Zm-34.21,0c-.6,1.39-.77,1.75-2.07,4.82-1.58,3.87-4.19,10.14-6.86,15.84a56.79,56.79,0,0,1,13.38,2.92c6.4-9.2,9-19,9.51-23.57Z"/><path class="cls-1" d="M156,86.45c-2.06,0-2-2-2-2.63.15-1.39.45-1.75,2.44-4.16a25.37,25.37,0,0,0,4.91-10.87h.51a26.36,26.36,0,0,1,.3,7.88C161.47,83.75,158.41,86.45,156,86.45Zm15.18-26.71c-.47,3.14-1.12,7.37-2.2,17.3-1,8.76-2.74,27-3.48,36.78-.07,1.24-.23,2.7-.27,3.07-.13,1.24-.44,4-3.46,4-2.12,0-2.1-1.39-2-2.7.05-.51,2.19-16.57,2.45-18.39.22-1.46,1.74-15.4,2-17.88l.79-7.3c1.46-13.43,1.73-15.91,1.06-20.36l6,2.12c.8.29,1.16.58,1.09,1.24S172.32,59,171.22,59.74Zm38.47,57.8H177a41.36,41.36,0,0,0-7.66.66l-.9-2.92c4.2.44,8.63.51,9.78.51h10.16c.41-3.21,2-17.44,2.28-20.36h-5a36,36,0,0,0-7.66.66l-1-2.92c3.95.36,7.92.51,9.85.51h4c.6-4.89.67-6.13,1.82-17.37h-9.45a50.2,50.2,0,0,1-11.64,15.4l-.41-.36c7.32-10.58,12.56-25.62,13-29.56,0-.29.1-.95.14-2.48l5.85,2.34a1.23,1.23,0,0,1,.89,1.24c-.07.66-.77,1.17-2.51,1.82-1.57,3.79-2.83,6.5-4.48,9.85h8.81c1.41-14.74,1.59-16.42.82-20l6.46,2.12c.68.22,1.36.51,1.29,1.17-.1.95-.95,1.61-2.41,2.63-.17,1.53-1.32,11.53-1.6,14.08h7.07l2.6-3.21q.67-.88,1.06-.88a2,2,0,0,1,1.08.73l3,3.21a1.62,1.62,0,0,1,.45,1.17c-.05.51-.53.73-1,.73h-14.4c-1.2,10.44-1.33,11.6-2,17.37h5.4l2.48-3.28c.46-.66.74-.88,1.12-.88s.62.22,1.08.73l3,3.28a1.9,1.9,0,0,1,.52,1.17c0,.44-.66.73-1,.73H195.05l-2.21,20.36h8.94l2.82-3.43c.67-.8.88-.95,1.2-.95s.63.07,1.32.88l3.11,3.36a1.7,1.7,0,0,1,.52,1.17A1,1,0,0,1,209.69,117.54Zm-35-40c-1.48,0-1.64-1.46-2.07-4.6-.59-4.6-1.33-5.55-2-6.28l.24-.44c2.63,1.24,7.16,3.36,6.66,8C177.25,76.38,175.78,77.55,174.68,77.55Z"/><path class="cls-1" d="M258.87,114v-.58c14.36-5.55,21.91-15.84,23.12-26.93,1.34-12.33-6.61-19.63-17.8-19.63a4.82,4.82,0,0,0-2.68.44c3.24,2.12,3.91,4.82,3.8,5.84-.09.8-.34,1.31-2.84,6.06-5.2,10-12.84,24.67-17.66,28.75a3.85,3.85,0,0,1-2.15.8c-1.48,0-2-.95-3.55-4-.37-.73-2.65-3.43-3-4.09a14,14,0,0,1-1-7.44c1.71-15.69,14.81-28.61,30.5-28.61,12.47,0,22.89,8.25,21.3,22.92C285.35,101.63,273.76,112.5,258.87,114Zm-.05-46.27C251.61,69,240.64,79.37,239.18,92.8c-.54,5,1.37,10.44,3.88,10.44,1.74,0,4.81-5.18,6.17-7.66,8-14.67,10.66-19.41,11.07-23.21A6.1,6.1,0,0,0,258.82,67.69Z"/><path class="cls-1" d="M358.67,89c-4.69,0-7.65,0-17.25,2,.27,3.43,1.81,22.41,1.68,23.57-.25,2.26-1.57,3.21-2.41,3.21-1.54,0-3.11-3.28-2.79-7.44.2-3.07.43-6.35-.17-18.54a94.49,94.49,0,0,0-14.28,4.16c-3.67,1.82-3.74,1.82-4.25,1.82-1.16,0-6-2.92-5.48-7.59.06-.58.24-1,.38-1.68a6.57,6.57,0,0,0,5.5,3.79c1.67,0,15.13-3.14,18-3.65-.07-1.17-.51-8.32-.83-12.48a58.08,58.08,0,0,0-10,3.43c-1.22.58-1.36.66-1.68.66s-2.27-.44-4.16-3.72a5.85,5.85,0,0,1-.56-4.31,7.29,7.29,0,0,0,6,2.77c2.12,0,9.24-1.61,10.17-1.82-.78-11.17-.78-11.75-6.25-12.92,2-1.46,3-2.12,4.41-2.12.13,0,6.89.51,6.58,3.36-.06.51-.74,2.63-.79,3.14a73,73,0,0,0-.06,7.66c1.33-.36,7.26-1.68,8.4-2.12a22.89,22.89,0,0,1,3.37-1.39c.45,0,3.73.58,4.47,1.46a2.08,2.08,0,0,1,.41,1.53c-.1.95-.86,2-2.66,2a68.74,68.74,0,0,0-13.86,1.53c.21,6.35.31,9,.63,12.55,1.18-.22,10-2.26,10.36-2.41a43.9,43.9,0,0,1,4.17-1.68,5.85,5.85,0,0,1,1.17-.15,10.91,10.91,0,0,1,5.68,1.61A2.24,2.24,0,0,1,363,87C362.79,89,361.76,89,358.67,89Z"/><path class="cls-1" d="M404.26,110.24a13.67,13.67,0,0,0-3.27,2.85c-.58.58-.84.66-1.16.66-1.61,0-3.81-6.35-3.74-7a29.63,29.63,0,0,1,1.51-3.21c.82-2.26,2.2-14.89,2.6-18.61.3-2.77,1.78-16.35,1.44-18-.31-1.31-1.4-1.9-5-2.92,1.94-1.31,3.32-2.12,4.73-2.12,1.93,0,7.1,2.12,6.89,4-.07.66-1.34,3.43-1.53,4-1,3.43-4.23,28.24-4.83,35,8.36-3,24.29-13.5,36.7-26.49l.4.44C427.94,95.86,418.79,101.41,404.26,110.24Z"/><path class="cls-1" d="M500.55,66.09a18.83,18.83,0,0,0-2.69,2.26c-.43.44-8.79,9.27-10.46,11,1,.58,3,2.12,2.87,3.14a14.12,14.12,0,0,1-1.07,2.7c-.16.29-.85,6.06-1,7.52-.36,3.28-1.67,17.73-2,20.65-.17,1.53-.69,4.52-2.49,4.52-2.12,0-3-4-2.81-5.55.07-.66,1-3.5,1.15-4.09a129.44,129.44,0,0,0,2.13-13.06c.27-2.48.88-10.44.75-11.6a2,2,0,0,0-.63-1.31c-4.59,4.38-13.55,12.26-24.53,16.86l-.22-.36c16.14-11.24,35.52-33.35,35.86-36.49.19-1.75-.45-2.34-2.8-4.45a9.26,9.26,0,0,1,2.62-.44c3.79,0,7.44,4.89,7.23,6.79C502.43,64.77,502.28,64.92,500.55,66.09Z"/><path class="cls-1" d="M576.43,85.5c-6.39,1.39-12.65,4-18.81,6.86a55.74,55.74,0,0,1-.29,8.61c-.17,1.53-.69,6.35-3,6.35s-1.93-4.16-1.79-5.4.66-6.06.71-7.15c-4.64,3.07-10.11,8.39-10.54,12.33-.6,5.55,7.82,5.55,9.69,5.55a53.56,53.56,0,0,0,10-1.24,12,12,0,0,1,2.28-.29c2.76,0,3.65,1.9,3.51,3.21a3,3,0,0,1-2.25,2.34,77,77,0,0,1-9.92.73c-3.54,0-17,0-16.06-9,.75-6.86,9.38-13.5,13.34-16.27-.16-3.87-.66-7.52-4.71-7.52s-7.49,4.38-8.72,6.28C536.39,95.94,536.13,96,535,96c-1.54,0-1.73-1.24-1.54-3,.29-2.63,1.07-3.28,1.85-4,5-4.45,9-10.36,12.76-16.27a32,32,0,0,1-5.8.73c-4.37,0-6.2-2.7-5.66-6.5,1.76,2.12,3.5,2.7,6.33,2.7a46.25,46.25,0,0,0,7.55-.88c1.08-1.68,4.31-7.08,4.44-8.32.11-1-1.14-2.55-4-3A5.2,5.2,0,0,1,555,55.73c3.15,0,5.56,2.7,5.39,4.23a5.25,5.25,0,0,1-1.31,2.55,54,54,0,0,0-3.9,5.11c1.46-.44,8-3.36,9.3-3.36,1.54,0,3.3,1,3.14,2.48a2.28,2.28,0,0,1-1.55,1.82C563,70,555.79,71.34,552,72c-6.82,9.49-7.51,10.51-8.53,12.26a13.87,13.87,0,0,1,6.77-2c5.92,0,6.66,4.38,7.08,7.08C562.05,86.45,568.73,83,570.7,82c1.23-.66,1.73-1.17,1.84-2.12s-.36-1.39-1.71-2.63a3.75,3.75,0,0,1,1.37-.22c2.32,0,7.1,2.12,6.66,6.2C578.68,84.92,577.81,85.21,576.43,85.5Z"/><path class="cls-1" d="M162.12,178.34c-.51,0-6.44-1.09-7.71-1.24a53.51,53.51,0,0,0-7.35-.44c-1.71,15.76-3.75,28.61-19.12,38.68l-.4-.51c11.93-12.19,13.31-23.06,15.19-38a98.21,98.21,0,0,0-13.6,1.53c-.25,2.26-1.08,12.26-1.3,14.3s-.46,4.23-2.26,4.23-2.28-3.87-2.15-5.11c.09-.8.84-4.16.91-4.82.13-1.24.79-6.71.91-7.81-2.51.58-7.05,1.61-9,2.55-1.36.66-1.49.73-1.82.73-2.25,0-4.39-4.6-4.09-7.37a8.21,8.21,0,0,1,.84-3c2.1,3.79,2.42,4.38,5.12,4.38,1,0,7.88-.95,9.38-1.1.27-2.48,1-10.65.4-12.55-.44-1.31-1.55-1.75-4.15-2.63,1.53-1.09,2.63-1.75,4.11-1.75,1.67,0,6,1.9,5.76,3.79,0,.44-.75,2.19-.86,2.55-.78,2.41-1,5.11-1.49,10.14,4.56-.51,9.9-1.17,13.73-1.46,1.17-10.8,1.31-12,1.07-13.43-.34-2.19-3.87-2.85-4.88-3.06,1.73-1.09,2.83-1.82,4.25-1.82,1.86,0,7,1.46,6.71,3.94-.06.51-.89,2.85-1,3.36a91.41,91.41,0,0,0-1.82,10.8,70.19,70.19,0,0,0,8-.58c.46-.07,2.34-.88,2.73-.88a9.58,9.58,0,0,1,5.07,2.48,2,2,0,0,1,.74,2C163.86,178.34,162.77,178.34,162.12,178.34Z"/><path class="cls-1" d="M187.75,203.37c-.39,0-2.51,0-2.19-2.92.25-2.26,1.15-2.92,4.78-5.55,2.79-2,5.24-3.87,10.05-11.46C198.85,192.43,192.13,203.37,187.75,203.37ZM235,178c-1,0-5.17-.95-5.8-1a90.15,90.15,0,0,0-9.28-.44c-2.64,0-4.32.07-5.48.15-.86,6.71-1.93,16-2.34,22.7-.06.58-.32,5.33-.33,5.4-.09.88-1.13,8.61-4.28,8.61-1.22,0-1.5-.95-2.55-4.89-.32-1.17-1.3-2.26-5.8-6.35l.1-.37c5.57,1.46,6.31,1.68,7.47,1.68.84,0,.95-.44,1.16-1.82.79-4.89,1.08-6.93,2.87-24.59-1.17.15-12.28,1.75-14.41,3-1.37.8-1.82.8-2.14.8-2.57,0-4.95-4.74-4.63-7.66a17.91,17.91,0,0,1,.65-3,10.42,10.42,0,0,0,3.37,4.45c.42.29,1,.51,2.65.51.13,0,12.84-1,14.79-1.17,1-9.71,1-10.8.77-12.41-.42-2-2.47-2.7-5.08-3.5,1-.73,2.65-1.9,4.32-1.9,2.51,0,7.29,2.7,7.08,4.67a21.2,21.2,0,0,1-1.27,2.85c-.84,1.82-1.67,7.66-2,9.93,1.81-.07,12.85-1.09,13.71-1.31.39-.07,2.06-.66,2.32-.66,1,0,5.94,1.53,5.6,4.67C236.42,176.81,236.22,178,235,178Zm-4,24.08c-1.16,0-1.42-.58-3.92-6-3.72-7.81-6.44-10.58-8.18-12.33,3.3.44,6.29,2.48,10.08,6.06,1.34,1.24,5,4.67,4.59,8.68C233.36,200.82,231.93,202.13,231,202.13Zm3.61-33.79c-3.41,0-5.78-3.06-5.36-6.86s3.46-6.93,6.86-6.93,5.71,3.06,5.29,6.93S238,168.34,234.64,168.34Zm1.21-11.17a4.58,4.58,0,0,0-4.19,4.23c-.25,2.34,1.21,4.23,3.27,4.23a4.58,4.58,0,0,0,4.19-4.23C239.38,159.07,237.91,157.18,235.86,157.18Z"/><path class="cls-1" d="M307.88,187.17c-.58,0-2.11-.15-2.24-.15a55.72,55.72,0,0,0-7.23-.29c-19.61,0-25.45.44-28.43,1.31-.2.07-2.32.66-2.52.66-1.67,0-4.64-4.67-4.27-8a10.17,10.17,0,0,1,1.15-3.5c1.58,5.55,3.58,5.55,10.26,5.55,4.44,0,25.34-.07,28.39-.88.39-.07,2.32-.66,2.71-.66s6.73.8,6.42,3.65C311.88,187.1,308.66,187.17,307.88,187.17Z"/><path class="cls-1" d="M369,192.94c-1,0-1.7-.95-2.59-2.19-5.11-7.44-8.17-10.07-12.4-12-.31,2.85-1.82,15.54-2,18.17-.21,1.9-.73,10.29-.91,12s-.63,5.84-3.14,5.84c-2.12,0-2.56-4.23-2.36-6.13a38.54,38.54,0,0,1,1-4.89c1.4-5.77,2.72-17.3,3.39-23.5.34-3.14,1.86-17.66,1.59-20-.21-1.61-1.55-2.34-4.75-3.65a9.3,9.3,0,0,1,4.43-1.75c1,0,7.1,1.53,6.85,3.87-.06.58-1.1,3.06-1.3,3.65-1,2.77-2,11.17-2.5,14.74,6.43,1.17,12.58,4.38,15.73,7.88a6.45,6.45,0,0,1,1.4,4.89C371.11,192.28,369.75,192.94,369,192.94Z"/><path class="cls-1" d="M458.6,171.7c-2.12,0-5.43-.88-7.53-1.09-2.35-.22-4.4-.29-6-.29-2.7,0-5.75.22-7.76.36-.31,2.26-.49,3.94-.7,5.84s-.29,3.21-.36,4.52a22.33,22.33,0,0,1,1.51,11.53c-1.2,11-8.55,21.31-20.9,26.05l-.2-.51c7.76-5.11,13.57-13,15.31-20.8-1.48,1.24-2.9,2.41-4.5,2.41-3.21,0-6.74-4.82-6.06-11.09.58-5.33,4.24-10.58,8.67-10.58a9.45,9.45,0,0,1,3.63.88c0-.36.44-5.25.73-7.88-4,.51-14.89,2.12-21.61,6-2,1.09-2.19,1.24-2.77,1.24-2.19,0-4.78-4.53-4.46-7.52a4.73,4.73,0,0,1,.74-2c1.07,2,2.26,3.43,4.32,3.43.71,0,5.9-1,8.85-1.53,6.17-1.17,11-2,15.18-2.41.82-11.68.84-11.9-4.25-14.16a6.13,6.13,0,0,1,3.91-1.68c1.67,0,6.28,2,6,4.31,0,.22-.7,2.33-.89,2.85a78.67,78.67,0,0,0-1.74,8.32L456,166c2.19,0,5.09,1.68,4.87,3.72A2.19,2.19,0,0,1,458.6,171.7Zm-29.84,9.56c-1.8,0-4.58,2.48-5,6.64s2,7.52,4.39,7.52c2.12,0,4.14-2.63,4.6-6.86C432.91,186.81,433.25,181.26,428.75,181.26Z"/><path class="cls-1" d="M504.26,213c-6.17,0-12.23-2.85-11.61-8.54.55-5,5.13-6.35,7.76-6.35,4.82,0,8,3.79,9,9.85,5.26-1,9.54-7.3,10.14-12.84.63-5.77-2.74-10.87-9.3-10.87-12.54,0-22.33,13.79-23.48,15.47-1.92,2.92-2.62,4-4,4-.77,0-2.13-.51-1.85-3.06s.84-3,5.16-7.23c5.77-5.77,24.12-29,24.42-31.82,0-.44-.11-.73-.63-.73-.84,0-5.92,1.82-9.62,3.94-.14.07-2.81,1.61-3,1.61-1.42,0-5-2.34-4.46-6.86a3.88,3.88,0,0,1,1-2.41c1.18,2.77,2.26,3.43,4.06,3.43,3.09,0,10.14-2.19,12.15-2.92.47-.15,2.67-.95,3-.95,2.44,0,4.31,3.5,4.15,5-.13,1.17-.13,1.24-2.66,3.21-1.83,1.46-15.92,17.52-19,22.26,4.13-2.48,9.31-5.18,16-5.18,10.35,0,13.64,7,12.92,13.65A19.87,19.87,0,0,1,504.26,213Zm-5.71-12a3.49,3.49,0,0,0-3.42,3.07c-.41,3.79,6,5.47,7.89,5.47a5.81,5.81,0,0,0,2.3-.44C504.56,203.74,500.67,201,498.55,201Z"/><line class="cls-2" x1="94.85" y1="0.35" x2="0.35" y2="94.85"/><line class="cls-2" x1="662.85" y1="156.35" x2="568.35" y2="250.85"/></svg>