<svg id="catch-copy" data-name="catch-copy" xmlns="http://www.w3.org/2000/svg" xmlns:xlink="http://www.w3.org/1999/xlink" viewBox="0 0 658.48 54.11"><defs><style>.cls-1,.cls-3{fill:none;}.cls-2{clip-path:url(#clip-path);}.cls-3{stroke:#5b5b5b;stroke-miterlimit:10;stroke-width:4px;}.cls-4{font-size:53px;fill:#fff;font-family:GothicBBBPro-Medium-83pv-RKSJ-H, A-OTF Gothic BBB Pro;}.cls-5{letter-spacing:0.08em;}.cls-6{letter-spacing:0.02em;}.cls-7{letter-spacing:-0.06em;}.cls-8{letter-spacing:-0.1em;}.cls-9{letter-spacing:-0.04em;}.cls-10{letter-spacing:0.02em;}.cls-11{letter-spacing:-0.22em;}.cls-12{letter-spacing:-0.08em;}.cls-13{letter-spacing:0.1em;}.cls-14{fill:#e5ff29;}.cls-15{clip-path:url(#clip-path-2);}</style><clipPath id="clip-path"><rect class="cls-1" x="-1218.52" y="-74.89" width="1200" height="1200"/></clipPath><clipPath id="clip-path-2"><rect id="BG" class="cls-1" x="732.48" y="-74.89" width="400" height="400"/></clipPath></defs><title>images</title><g class="cls-2"></g><path class="cls-3" d="M10.66,51.65a.5.5,0,0,1-.41-.21L7.71,47.78A.5.5,0,0,1,8,47c7.4-1.26,13.77-4,17.63-7.56a70.73,70.73,0,0,0-11.13-2.59c-.27.38-.57.81-.82,1.17l-.38.54a.5.5,0,0,1-.64.15l-3.76-2A.5.5,0,0,1,8.77,36,140.47,140.47,0,0,0,18.3,20.38H3a.5.5,0,0,1-.5-.5V16.17a.5.5,0,0,1,.5-.5H20.74A96.78,96.78,0,0,0,26.37,2.44l0-.11a.5.5,0,0,1,.7-.28l4.5,2.28a1.41,1.41,0,0,1,.91,1.19c0,.86-1,1.22-2,1.28C29.07,10,27.7,13,26.32,15.67H51.26a.5.5,0,0,1,.5.5v3.71a.5.5,0,0,1-.5.5H41C39.5,27.33,37,33.09,33.66,37.54a72.19,72.19,0,0,1,15.47,9,.5.5,0,0,1,0,.76l-3.34,3a.5.5,0,0,1-.64,0,66.18,66.18,0,0,0-14.49-8.92A43.18,43.18,0,0,1,10.78,51.64ZM17,32.8a72.32,72.32,0,0,1,12.1,2.92,39.35,39.35,0,0,0,6.51-15.34H23.9C21.29,25.42,19.36,28.8,17,32.8Z"/><path class="cls-3" d="M67.53,51.17a.5.5,0,0,1-.5-.5V16.14a2.94,2.94,0,0,1-1.05.69,68.66,68.66,0,0,1-2.79,13.43.5.5,0,0,1-.65.31L58.83,29.2a.5.5,0,0,1-.3-.63,57.26,57.26,0,0,0,3-14.51.5.5,0,0,1,.5-.45h.09l3.6.69a2.19,2.19,0,0,1,1.31.64V3.24a.5.5,0,0,1,.5-.5l3.75.32h.11c.48.06,1.62.19,1.62,1.17,0,.64-.6,1-1.11,1.25v7.71L75,11.59a.5.5,0,0,1,.67.2,62.81,62.81,0,0,1,3.7,7.84A61.49,61.49,0,0,0,83,7.12a.5.5,0,0,1,.49-.41l.13,0,3.87,1.06.19.06c.58.18,1.18.36,1.18,1.11s-.82,1.14-1.42,1.31l-.08.3c-.66,2.44-1,3.68-1.64,5.63h5v-13a.5.5,0,0,1,.5-.5l4,.37.13,0c.3.05,1.22.21,1.22,1.06,0,.59-.4.87-1,1.15V16.2h11.48a.5.5,0,0,1,.5.5v3.6a.5.5,0,0,1-.5.5H95.64v9.07h10.1a.5.5,0,0,1,.5.5V34a.5.5,0,0,1-.5.5H95.64v9.76h12.54a.5.5,0,0,1,.5.5v3.44a.5.5,0,0,1-.5.5H77.34a.5.5,0,0,1-.5-.5V44.74a.5.5,0,0,1,.5-.5H90.77V34.48H80.67a.5.5,0,0,1-.5-.5v-3.6a.5.5,0,0,1,.5-.5h10.1V20.81H84.18A59.8,59.8,0,0,1,81,27.44a.5.5,0,0,1-.65.2L76.86,26a.5.5,0,0,1-.22-.69c.59-1.06,1.22-2.25,1.86-3.62L75.92,23a.5.5,0,0,1-.7-.3,43.78,43.78,0,0,0-3.32-8.3V50.67a.5.5,0,0,1-.5.5Z"/><path class="cls-3" d="M147.29,47.83a.5.5,0,0,1-.42-.23l-2.33-3.55a.5.5,0,0,1,.26-.75l.25-.09a24.1,24.1,0,0,0,7.7-3.91,16.89,16.89,0,0,0,6.07-12.81,15,15,0,0,0-8.09-13.27,17.91,17.91,0,0,0-6.59-1.37A67.2,67.2,0,0,1,138,34.78c-3.05,6.47-5.89,9.61-8.67,9.61-4.91,0-9.56-7.3-9.56-15,0-10.87,8.57-22.12,22.92-22.12,12.23,0,21.11,8.1,21.11,19.26,0,6.73-2.83,15.9-16.32,21.29A.5.5,0,0,1,147.29,47.83Zm-8.24-35.76a16.61,16.61,0,0,0-11.13,7.1,16.82,16.82,0,0,0-3.56,10.09c0,5.56,3.15,9.46,4.85,9.46.86,0,2,0,5.37-8.17A61.6,61.6,0,0,0,139.06,12.07Z"/><path class="cls-3" d="M200.66,49.37a.5.5,0,0,1-.48-.37l-4.6-17.36-18.15,3.26h-.09a.5.5,0,0,1-.49-.41l-.69-3.76a.5.5,0,0,1,.41-.58l17.8-3.09-2-7.3L179.18,22h-.08a.5.5,0,0,1-.49-.4l-.69-3.55a.5.5,0,0,1,.4-.59l12.87-2.29-2.46-9.39a.5.5,0,0,1,.43-.62l4.56-.53h.44c1.24,0,1.33.76,1.33,1,0,.44-.17.68-1,1.61l1.78,7.09,12.36-2.25h.09a.5.5,0,0,1,.49.39l.85,3.6a.5.5,0,0,1-.4.61L197.52,18.9l1.82,7.19L215,23.42h.08a.5.5,0,0,1,.48.38l1,3.71a.5.5,0,0,1-.4.62L200.6,30.93l4.52,17a.5.5,0,0,1-.38.62l-4,.85Z"/><path class="cls-3" d="M234.48,46.46a.5.5,0,0,1-.31-.11L231.25,44a.5.5,0,0,1-.19-.39V9.28a.5.5,0,0,1,.5-.5h.06l4.5.53c1.45.11,1.61.83,1.61,1.13,0,.55-.27.72-1.17,1.31l-.2.13V40.06c4-1,8.25-2.29,15.74-7.61a58.39,58.39,0,0,0,12.22-11.19l.15-.17a.5.5,0,0,1,.38-.18h.08a.5.5,0,0,1,.39.3l1.8,4.29A.5.5,0,0,1,267,26l-.29.31A61.87,61.87,0,0,1,254.42,37a68,68,0,0,1-19.79,9.44Z"/><path class="cls-3" d="M294.32,48.68a.5.5,0,0,1-.5-.5V23.33a72.29,72.29,0,0,1-13.93,7.93.5.5,0,0,1-.53-.09l-3.87-3.44a.5.5,0,0,1,.18-.85l.14,0c4.49-1.48,9.14-3,17.15-9A78.59,78.59,0,0,0,306.42,5.36l.24-.27a.5.5,0,0,1,.7,0l3.57,3a1.76,1.76,0,0,1,.79,1.37c0,.34-.15.92-1.14.92a5.06,5.06,0,0,1-1-.11h-.08l-.78.74a104.58,104.58,0,0,1-9.64,8.45V48.18a.5.5,0,0,1-.5.5Z"/><path class="cls-3" d="M345.78,49.37c-3.75,0-12.48-.85-12.48-8.71,0-6.78,6-10.66,11.77-13.73-.31-1.87-.85-3.52-2.42-3.52-4.55,0-8.82,6.12-11.94,10.6a.5.5,0,0,1-.66.15l-3.44-2a.5.5,0,0,1-.13-.77c5.12-5.72,7.45-9.27,9.58-14.68-2,.17-3.68.25-5.18.25-.82,0-1.46,0-2,0h-.22a.5.5,0,0,1-.47-.41l-.79-4.13a.5.5,0,0,1,.49-.59h.06a40.94,40.94,0,0,0,6.08.42c1.52,0,2.51-.06,3.39-.11l.43,0a71.3,71.3,0,0,0,2.11-7.89.5.5,0,0,1,.49-.4h.08l4.4.69a.5.5,0,0,1,.4.64c-.4,1.26-.8,2.36-1.41,4l-.8,2.23A37.78,37.78,0,0,0,354.25,8a.5.5,0,0,1,.71.42l.27,4a.5.5,0,0,1-.37.52A137.91,137.91,0,0,1,341.33,16c-.78,2.15-1.25,3.35-1.61,4.22a6.48,6.48,0,0,1,3.31-.87c4.43,0,5.57,3.58,6,5.62,6.12-2.72,7.32-3.27,10.26-4.87a.5.5,0,0,1,.73.34l.85,4a.5.5,0,0,1-.32.57l-.73.26c-5.86,2.08-7.39,2.62-10.52,4,.23,4.78.25,6.34.29,9.68v.91a.5.5,0,0,1-.5.51h-3.76a.5.5,0,0,1-.5-.5c0-.31,0-1.29.09-2.28l.07-1.5c.07-1.48.1-2.61.12-3.78,0-.26,0-.53,0-.79-3.53,2.26-7,5-7,8.51,0,4.36,4.77,5,7.61,5,2.06,0,7.3-.17,11.32-1.77a.5.5,0,0,1,.68.41l.42,4.13a.5.5,0,0,1-.41.54A78.63,78.63,0,0,1,345.78,49.37Z"/><path class="cls-3" d="M390.3,49.1A.5.5,0,0,1,390,49l-3.71-3a.5.5,0,0,1,.15-.86c5.08-1.78,8.37-3.27,11.11-8.92,2.11-4.48,2.38-8.85,2.63-13.85H389.42V34.77a.5.5,0,0,1-.5.5h-4a.5.5,0,0,1-.5-.5V22.34H373.34a.5.5,0,0,1-.5-.5V18.08a.5.5,0,0,1,.5-.5h11.11V7.06a.5.5,0,0,1,.5-.5l4.35.48c.36.05,1.4.2,1.4,1.08,0,.57-.38.81-1.27,1.26v8.2H400c0-4.35-.16-8.61-.26-11.46a.5.5,0,0,1,.5-.52l4,.32c.74.06,1.94.15,1.94,1.19,0,.73-.6,1.1-1.11,1.4v9.07h10.1a.5.5,0,0,1,.5.5v3.76a.5.5,0,0,1-.5.5H405c-.25,5.7-.53,10.67-3,16-2.84,6.3-6.41,8.32-11.53,10.68A.5.5,0,0,1,390.3,49.1Z"/><path class="cls-3" d="M442.83,47.77c-.8,0-1.58,0-2.19,0a.5.5,0,0,1-.45-.33l-1.64-4.56a.5.5,0,0,1,.47-.67l.77.08a41,41,0,0,0,4.26.34c1.07,0,1.35-.07,1.35-1.73V21.07H428.62a.5.5,0,0,1-.5-.5V16.7a.5.5,0,0,1,.5-.5H445.4V6.53a.5.5,0,0,1,.5-.5H446l4.35.53c.38,0,1.61.11,1.61,1.08,0,.63-.31.88-1.22,1.49V16.2h15.5a.5.5,0,0,1,.5.5v3.87a.5.5,0,0,1-.5.5h-15.5V40.71c0,3,0,6.08-4.6,6.85A18.81,18.81,0,0,1,442.83,47.77Zm-12.93-6.14a.5.5,0,0,1-.28-.08l-3.76-2.49a.5.5,0,0,1,0-.83,28.5,28.5,0,0,0,6.37-5.85A19.59,19.59,0,0,0,436,26.71l.06-.14a.5.5,0,0,1,.67-.25l3.82,1.8c.34.13,1,.59,1,1.25,0,1-1.1,1.2-1.91,1.31-.8,1.17-5.14,7.33-9.46,10.84A.5.5,0,0,1,429.89,41.63Zm34.23-.79-.13,0a.5.5,0,0,1-.3-.24,45,45,0,0,0-9.44-11.48.5.5,0,0,1,0-.76l2.92-2.49a.5.5,0,0,1,.64,0,50.69,50.69,0,0,1,10.6,12,.5.5,0,0,1-.18.7l-3.87,2.23A.5.5,0,0,1,464.13,40.84ZM467,15.14A5.67,5.67,0,1,1,467,3.8a5.65,5.65,0,0,1,5.64,5.64A5.74,5.74,0,0,1,467,15.14Zm0-8a2.34,2.34,0,1,0,0,4.67,2.29,2.29,0,0,0,2.26-2.36A2.26,2.26,0,0,0,467,7.13Z"/><rect class="cls-3" x="481.28" y="25.74" width="39.37" height="4.87" rx="0.5" ry="0.5"/><path class="cls-3" d="M537.64,48.26a.5.5,0,0,1-.5-.5V6.37a.5.5,0,0,1,.5-.5l4.06.21c.93,0,2,.33,2,1.24,0,.55-.45.87-1.27,1.43V21.4l.59-1.16a.5.5,0,0,1,.65-.23c8.71,3.79,12.29,6.17,17.5,10.4a.5.5,0,0,1,.09.67l-2.6,3.71a.5.5,0,0,1-.35.21h-.06a.5.5,0,0,1-.33-.12l-.29-.25a56.83,56.83,0,0,0-6.91-5.27,42.88,42.88,0,0,0-8.29-4.45V47.76a.5.5,0,0,1-.5.5Z"/><path class="cls-3" d="M588,50.59a.5.5,0,0,1-.19,0l-4.13-1.75a.5.5,0,0,1-.12-.85,23.08,23.08,0,0,0,6.8-8.53,8.43,8.43,0,0,1-2.82.57c-3.49,0-7-3.23-7-9.4,0-7.14,4.79-10.36,8.18-10.36a7,7,0,0,1,1.88.24V17c-8.66.57-15.49,1.17-20.32,1.76h-.06a.5.5,0,0,1-.5-.47l-.27-3.87a.5.5,0,0,1,.47-.53c3.65-.2,8.59-.54,13.37-.87l7.15-.48a66.62,66.62,0,0,0-.26-8.42.5.5,0,0,1,.5-.56h.08l4.72.79a.5.5,0,0,1,.41.56,53.38,53.38,0,0,0-.42,7.14c5.09-.33,10.76-.71,15.17-1.34h.07a.5.5,0,0,1,.5.45l.42,4.4a.5.5,0,0,1-.49.55c-7.29.05-12.95.38-15.68.55,0,1.42,0,4.63,0,6.65V24.9A18.64,18.64,0,0,1,597,32.28c0,6-3.47,11.8-4.53,13.42a23.39,23.39,0,0,1-4,4.75A.5.5,0,0,1,588,50.59Zm.69-25.49c-1.81,0-3.74,2.21-3.74,5.49,0,3.44,2,4.69,3.26,4.69,1.92,0,3.32-2.26,3.32-5.38C591.57,28.77,591.37,25.1,588.73,25.1Z"/><path class="cls-3" d="M639,47.83c-5.27,0-10.94-2.31-10.94-7.39,0-3.28,2.77-6.59,8.08-6.59,6.6,0,9.62,4.86,10.82,7.11,1.57-1.2,4.47-3.77,4.47-7.94,0-3.78-2.42-7.82-9.2-7.82-9.49,0-18.29,9.95-18.38,10a.5.5,0,0,1-.7.06l-3.34-2.76a.5.5,0,0,1,0-.78A142.77,142.77,0,0,0,640.72,12a90.82,90.82,0,0,1-13.54,1.72h0a.5.5,0,0,1-.48-.35l-1.22-4a.5.5,0,0,1,.48-.65h1.32a64.56,64.56,0,0,0,20.89-3.06l.15,0a.5.5,0,0,1,.43.24l1.8,2.92a.5.5,0,0,1-.09.64l-.5.44c-.76.67-2.17,1.91-2.45,2.19l-.7.71c-3.49,3.53-5.89,6-8.38,8.28a13.7,13.7,0,0,1,4.28-.63c5,0,13.54,2.62,13.54,12.42C656.22,43.21,646.14,47.83,639,47.83Zm-3.18-9.65c-2,0-3.16,1.22-3.16,2.1,0,1.72,3.29,3.1,6,3.1a18.92,18.92,0,0,0,3.67-.39C641.45,41.21,639.63,38.19,635.8,38.19Z"/><text class="cls-4" transform="translate(0.65 47.07)"><tspan class="cls-5">女性</tspan><tspan class="cls-6" x="114.48" y="0">の</tspan><tspan class="cls-7" x="168.54" y="0">キレ</tspan><tspan class="cls-8" x="268.18" y="0">イ</tspan><tspan class="cls-9" x="315.88" y="0">を</tspan><tspan class="cls-10" x="366.76" y="0">サ</tspan><tspan x="420.82" y="0">ポ</tspan><tspan class="cls-11" x="473.82" y="0">ー</tspan><tspan class="cls-8" x="515.16" y="0">ト</tspan><tspan class="cls-12" x="562.86" y="0">す</tspan><tspan class="cls-13" x="611.62" y="0">る</tspan></text><path class="cls-14" d="M10.66,51.65a.5.5,0,0,1-.41-.21L7.71,47.78A.5.5,0,0,1,8,47c7.4-1.26,13.77-4,17.63-7.56a70.73,70.73,0,0,0-11.13-2.59c-.27.38-.57.81-.82,1.17l-.38.54a.5.5,0,0,1-.64.15l-3.76-2A.5.5,0,0,1,8.77,36,140.47,140.47,0,0,0,18.3,20.38H3a.5.5,0,0,1-.5-.5V16.17a.5.5,0,0,1,.5-.5H20.74A96.78,96.78,0,0,0,26.37,2.44l0-.11a.5.5,0,0,1,.7-.28l4.5,2.28a1.41,1.41,0,0,1,.91,1.19c0,.86-1,1.22-2,1.28C29.07,10,27.7,13,26.32,15.67H51.26a.5.5,0,0,1,.5.5v3.71a.5.5,0,0,1-.5.5H41C39.5,27.33,37,33.09,33.66,37.54a72.19,72.19,0,0,1,15.47,9,.5.5,0,0,1,0,.76l-3.34,3a.5.5,0,0,1-.64,0,66.18,66.18,0,0,0-14.49-8.92A43.18,43.18,0,0,1,10.78,51.64ZM17,32.8a72.32,72.32,0,0,1,12.1,2.92,39.35,39.35,0,0,0,6.51-15.34H23.9C21.29,25.42,19.36,28.8,17,32.8Z"/><path class="cls-14" d="M67.53,51.17a.5.5,0,0,1-.5-.5V16.14a2.94,2.94,0,0,1-1.05.69,68.66,68.66,0,0,1-2.79,13.43.5.5,0,0,1-.65.31L58.83,29.2a.5.5,0,0,1-.3-.63,57.26,57.26,0,0,0,3-14.51.5.5,0,0,1,.5-.45h.09l3.6.69a2.19,2.19,0,0,1,1.31.64V3.24a.5.5,0,0,1,.5-.5l3.75.32h.11c.48.06,1.62.19,1.62,1.17,0,.64-.6,1-1.11,1.25v7.71L75,11.59a.5.5,0,0,1,.67.2,62.81,62.81,0,0,1,3.7,7.84A61.49,61.49,0,0,0,83,7.12a.5.5,0,0,1,.49-.41l.13,0,3.87,1.06.19.06c.58.18,1.18.36,1.18,1.11s-.82,1.14-1.42,1.31l-.08.3c-.66,2.44-1,3.68-1.64,5.63h5v-13a.5.5,0,0,1,.5-.5l4,.37.13,0c.3.05,1.22.21,1.22,1.06,0,.59-.4.87-1,1.15V16.2h11.48a.5.5,0,0,1,.5.5v3.6a.5.5,0,0,1-.5.5H95.64v9.07h10.1a.5.5,0,0,1,.5.5V34a.5.5,0,0,1-.5.5H95.64v9.76h12.54a.5.5,0,0,1,.5.5v3.44a.5.5,0,0,1-.5.5H77.34a.5.5,0,0,1-.5-.5V44.74a.5.5,0,0,1,.5-.5H90.77V34.48H80.67a.5.5,0,0,1-.5-.5v-3.6a.5.5,0,0,1,.5-.5h10.1V20.81H84.18A59.8,59.8,0,0,1,81,27.44a.5.5,0,0,1-.65.2L76.86,26a.5.5,0,0,1-.22-.69c.59-1.06,1.22-2.25,1.86-3.62L75.92,23a.5.5,0,0,1-.7-.3,43.78,43.78,0,0,0-3.32-8.3V50.67a.5.5,0,0,1-.5.5Z"/><path class="cls-14" d="M147.29,47.83a.5.5,0,0,1-.42-.23l-2.33-3.55a.5.5,0,0,1,.26-.75l.25-.09a24.1,24.1,0,0,0,7.7-3.91,16.89,16.89,0,0,0,6.07-12.81,15,15,0,0,0-8.09-13.27,17.91,17.91,0,0,0-6.59-1.37A67.2,67.2,0,0,1,138,34.78c-3.05,6.47-5.89,9.61-8.67,9.61-4.91,0-9.56-7.3-9.56-15,0-10.87,8.57-22.12,22.92-22.12,12.23,0,21.11,8.1,21.11,19.26,0,6.73-2.83,15.9-16.32,21.29A.5.5,0,0,1,147.29,47.83Zm-8.24-35.76a16.61,16.61,0,0,0-11.13,7.1,16.82,16.82,0,0,0-3.56,10.09c0,5.56,3.15,9.46,4.85,9.46.86,0,2,0,5.37-8.17A61.6,61.6,0,0,0,139.06,12.07Z"/><path class="cls-14" d="M200.66,49.37a.5.5,0,0,1-.48-.37l-4.6-17.36-18.15,3.26h-.09a.5.5,0,0,1-.49-.41l-.69-3.76a.5.5,0,0,1,.41-.58l17.8-3.09-2-7.3L179.18,22h-.08a.5.5,0,0,1-.49-.4l-.69-3.55a.5.5,0,0,1,.4-.59l12.87-2.29-2.46-9.39a.5.5,0,0,1,.43-.62l4.56-.53h.44c1.24,0,1.33.76,1.33,1,0,.44-.17.68-1,1.61l1.78,7.09,12.36-2.25h.09a.5.5,0,0,1,.49.39l.85,3.6a.5.5,0,0,1-.4.61L197.52,18.9l1.82,7.19L215,23.42h.08a.5.5,0,0,1,.48.38l1,3.71a.5.5,0,0,1-.4.62L200.6,30.93l4.52,17a.5.5,0,0,1-.38.62l-4,.85Z"/><path class="cls-14" d="M234.48,46.46a.5.5,0,0,1-.31-.11L231.25,44a.5.5,0,0,1-.19-.39V9.28a.5.5,0,0,1,.5-.5h.06l4.5.53c1.45.11,1.61.83,1.61,1.13,0,.55-.27.72-1.17,1.31l-.2.13V40.06c4-1,8.25-2.29,15.74-7.61a58.39,58.39,0,0,0,12.22-11.19l.15-.17a.5.5,0,0,1,.38-.18h.08a.5.5,0,0,1,.39.3l1.8,4.29A.5.5,0,0,1,267,26l-.29.31A61.87,61.87,0,0,1,254.42,37a68,68,0,0,1-19.79,9.44Z"/><path class="cls-14" d="M294.32,48.68a.5.5,0,0,1-.5-.5V23.33a72.29,72.29,0,0,1-13.93,7.93.5.5,0,0,1-.53-.09l-3.87-3.44a.5.5,0,0,1,.18-.85l.14,0c4.49-1.48,9.14-3,17.15-9A78.59,78.59,0,0,0,306.42,5.36l.24-.27a.5.5,0,0,1,.7,0l3.57,3a1.76,1.76,0,0,1,.79,1.37c0,.34-.15.92-1.14.92a5.06,5.06,0,0,1-1-.11h-.08l-.78.74a104.58,104.58,0,0,1-9.64,8.45V48.18a.5.5,0,0,1-.5.5Z"/><path class="cls-14" d="M345.78,49.37c-3.75,0-12.48-.85-12.48-8.71,0-6.78,6-10.66,11.77-13.73-.31-1.87-.85-3.52-2.42-3.52-4.55,0-8.82,6.12-11.94,10.6a.5.5,0,0,1-.66.15l-3.44-2a.5.5,0,0,1-.13-.77c5.12-5.72,7.45-9.27,9.58-14.68-2,.17-3.68.25-5.18.25-.82,0-1.46,0-2,0h-.22a.5.5,0,0,1-.47-.41l-.79-4.13a.5.5,0,0,1,.49-.59h.06a40.94,40.94,0,0,0,6.08.42c1.52,0,2.51-.06,3.39-.11l.43,0a71.3,71.3,0,0,0,2.11-7.89.5.5,0,0,1,.49-.4h.08l4.4.69a.5.5,0,0,1,.4.64c-.4,1.26-.8,2.36-1.41,4l-.8,2.23A37.78,37.78,0,0,0,354.25,8a.5.5,0,0,1,.71.42l.27,4a.5.5,0,0,1-.37.52A137.91,137.91,0,0,1,341.33,16c-.78,2.15-1.25,3.35-1.61,4.22a6.48,6.48,0,0,1,3.31-.87c4.43,0,5.57,3.58,6,5.62,6.12-2.72,7.32-3.27,10.26-4.87a.5.5,0,0,1,.73.34l.85,4a.5.5,0,0,1-.32.57l-.73.26c-5.86,2.08-7.39,2.62-10.52,4,.23,4.78.25,6.34.29,9.68v.91a.5.5,0,0,1-.5.51h-3.76a.5.5,0,0,1-.5-.5c0-.31,0-1.29.09-2.28l.07-1.5c.07-1.48.1-2.61.12-3.78,0-.26,0-.53,0-.79-3.53,2.26-7,5-7,8.51,0,4.36,4.77,5,7.61,5,2.06,0,7.3-.17,11.32-1.77a.5.5,0,0,1,.68.41l.42,4.13a.5.5,0,0,1-.41.54A78.63,78.63,0,0,1,345.78,49.37Z"/><path class="cls-14" d="M390.3,49.1A.5.5,0,0,1,390,49l-3.71-3a.5.5,0,0,1,.15-.86c5.08-1.78,8.37-3.27,11.11-8.92,2.11-4.48,2.38-8.85,2.63-13.85H389.42V34.77a.5.5,0,0,1-.5.5h-4a.5.5,0,0,1-.5-.5V22.34H373.34a.5.5,0,0,1-.5-.5V18.08a.5.5,0,0,1,.5-.5h11.11V7.06a.5.5,0,0,1,.5-.5l4.35.48c.36.05,1.4.2,1.4,1.08,0,.57-.38.81-1.27,1.26v8.2H400c0-4.35-.16-8.61-.26-11.46a.5.5,0,0,1,.5-.52l4,.32c.74.06,1.94.15,1.94,1.19,0,.73-.6,1.1-1.11,1.4v9.07h10.1a.5.5,0,0,1,.5.5v3.76a.5.5,0,0,1-.5.5H405c-.25,5.7-.53,10.67-3,16-2.84,6.3-6.41,8.32-11.53,10.68A.5.5,0,0,1,390.3,49.1Z"/><path class="cls-14" d="M442.83,47.77c-.8,0-1.58,0-2.19,0a.5.5,0,0,1-.45-.33l-1.64-4.56a.5.5,0,0,1,.47-.67l.77.08a41,41,0,0,0,4.26.34c1.07,0,1.35-.07,1.35-1.73V21.07H428.62a.5.5,0,0,1-.5-.5V16.7a.5.5,0,0,1,.5-.5H445.4V6.53a.5.5,0,0,1,.5-.5H446l4.35.53c.38,0,1.61.11,1.61,1.08,0,.63-.31.88-1.22,1.49V16.2h15.5a.5.5,0,0,1,.5.5v3.87a.5.5,0,0,1-.5.5h-15.5V40.71c0,3,0,6.08-4.6,6.85A18.81,18.81,0,0,1,442.83,47.77Zm-12.93-6.14a.5.5,0,0,1-.28-.08l-3.76-2.49a.5.5,0,0,1,0-.83,28.5,28.5,0,0,0,6.37-5.85A19.59,19.59,0,0,0,436,26.71l.06-.14a.5.5,0,0,1,.67-.25l3.82,1.8c.34.13,1,.59,1,1.25,0,1-1.1,1.2-1.91,1.31-.8,1.17-5.14,7.33-9.46,10.84A.5.5,0,0,1,429.89,41.63Zm34.23-.79-.13,0a.5.5,0,0,1-.3-.24,45,45,0,0,0-9.44-11.48.5.5,0,0,1,0-.76l2.92-2.49a.5.5,0,0,1,.64,0,50.69,50.69,0,0,1,10.6,12,.5.5,0,0,1-.18.7l-3.87,2.23A.5.5,0,0,1,464.13,40.84ZM467,15.14A5.67,5.67,0,1,1,467,3.8a5.65,5.65,0,0,1,5.64,5.64A5.74,5.74,0,0,1,467,15.14Zm0-8a2.34,2.34,0,1,0,0,4.67,2.29,2.29,0,0,0,2.26-2.36A2.26,2.26,0,0,0,467,7.13Z"/><rect class="cls-14" x="481.28" y="25.74" width="39.37" height="4.87" rx="0.5" ry="0.5"/><path class="cls-14" d="M537.64,48.26a.5.5,0,0,1-.5-.5V6.37a.5.5,0,0,1,.5-.5l4.06.21c.93,0,2,.33,2,1.24,0,.55-.45.87-1.27,1.43V21.4l.59-1.16a.5.5,0,0,1,.65-.23c8.71,3.79,12.29,6.17,17.5,10.4a.5.5,0,0,1,.09.67l-2.6,3.71a.5.5,0,0,1-.35.21h-.06a.5.5,0,0,1-.33-.12l-.29-.25a56.83,56.83,0,0,0-6.91-5.27,42.88,42.88,0,0,0-8.29-4.45V47.76a.5.5,0,0,1-.5.5Z"/><path class="cls-14" d="M588,50.59a.5.5,0,0,1-.19,0l-4.13-1.75a.5.5,0,0,1-.12-.85,23.08,23.08,0,0,0,6.8-8.53,8.43,8.43,0,0,1-2.82.57c-3.49,0-7-3.23-7-9.4,0-7.14,4.79-10.36,8.18-10.36a7,7,0,0,1,1.88.24V17c-8.66.57-15.49,1.17-20.32,1.76h-.06a.5.5,0,0,1-.5-.47l-.27-3.87a.5.5,0,0,1,.47-.53c3.65-.2,8.59-.54,13.37-.87l7.15-.48a66.62,66.62,0,0,0-.26-8.42.5.5,0,0,1,.5-.56h.08l4.72.79a.5.5,0,0,1,.41.56,53.38,53.38,0,0,0-.42,7.14c5.09-.33,10.76-.71,15.17-1.34h.07a.5.5,0,0,1,.5.45l.42,4.4a.5.5,0,0,1-.49.55c-7.29.05-12.95.38-15.68.55,0,1.42,0,4.63,0,6.65V24.9A18.64,18.64,0,0,1,597,32.28c0,6-3.47,11.8-4.53,13.42a23.39,23.39,0,0,1-4,4.75A.5.5,0,0,1,588,50.59Zm.69-25.49c-1.81,0-3.74,2.21-3.74,5.49,0,3.44,2,4.69,3.26,4.69,1.92,0,3.32-2.26,3.32-5.38C591.57,28.77,591.37,25.1,588.73,25.1Z"/><path class="cls-14" d="M639,47.83c-5.27,0-10.94-2.31-10.94-7.39,0-3.28,2.77-6.59,8.08-6.59,6.6,0,9.62,4.86,10.82,7.11,1.57-1.2,4.47-3.77,4.47-7.94,0-3.78-2.42-7.82-9.2-7.82-9.49,0-18.29,9.95-18.38,10a.5.5,0,0,1-.7.06l-3.34-2.76a.5.5,0,0,1,0-.78A142.77,142.77,0,0,0,640.72,12a90.82,90.82,0,0,1-13.54,1.72h0a.5.5,0,0,1-.48-.35l-1.22-4a.5.5,0,0,1,.48-.65h1.32a64.56,64.56,0,0,0,20.89-3.06l.15,0a.5.5,0,0,1,.43.24l1.8,2.92a.5.5,0,0,1-.09.64l-.5.44c-.76.67-2.17,1.91-2.45,2.19l-.7.71c-3.49,3.53-5.89,6-8.38,8.28a13.7,13.7,0,0,1,4.28-.63c5,0,13.54,2.62,13.54,12.42C656.22,43.21,646.14,47.83,639,47.83Zm-3.18-9.65c-2,0-3.16,1.22-3.16,2.1,0,1.72,3.29,3.1,6,3.1a18.92,18.92,0,0,0,3.67-.39C641.45,41.21,639.63,38.19,635.8,38.19Z"/><g class="cls-15"></g></svg>