<svg id="icn_request" xmlns="http://www.w3.org/2000/svg" viewBox="0 0 120 119.957">
  <defs>
    <style>
      .cls-1 {
        fill: #ee7b48;
      }
    </style>
  </defs>
  <g id="グループ化_44" data-name="グループ化 44" transform="translate(0 51.949)">
    <g id="グループ化_43" data-name="グループ化 43">
      <path id="パス_59" data-name="パス 59" class="cls-1" d="M42.57,155.261a2.149,2.149,0,0,0-.514-.086,14.969,14.969,0,0,0,4.154-10.364V132.478a.943.943,0,0,0-.043-.343c0-.214.043-.428.043-.685v-7.794a2.349,2.349,0,0,0-2.355-2.355H28.137a12.027,12.027,0,0,0-11.991,11.991v11.478A14.969,14.969,0,0,0,20.3,155.133a2.15,2.15,0,0,0-.514.086A21.826,21.826,0,0,0,0,176.932v10.021a2.349,2.349,0,0,0,2.355,2.355H60a2.349,2.349,0,0,0,2.355-2.355V176.932A21.822,21.822,0,0,0,42.57,155.261ZM20.814,136.332v-2.955a7.348,7.348,0,0,1,7.323-7.323H41.5v5.439a4.971,4.971,0,0,1-4.968,4.968H20.814Zm0,4.839H36.531A9.708,9.708,0,0,0,41.5,139.8v5.054a10.321,10.321,0,0,1-20.642,0v-3.683Zm15.46,18.672-5.1,5.1-5.1-5.1ZM57.645,184.6H4.668V179.93H14.39a2.355,2.355,0,1,0,0-4.711H4.754a17.068,17.068,0,0,1,14.818-15.2l9.936,9.936a2.364,2.364,0,0,0,1.67.685,2.442,2.442,0,0,0,1.67-.685l9.936-9.936a17.1,17.1,0,0,1,14.9,16.916V184.6Z" transform="translate(0 -121.3)"/>
    </g>
  </g>
  <g id="グループ化_46" data-name="グループ化 46" transform="translate(57.559)">
    <g id="グループ化_45" data-name="グループ化 45">
      <path id="パス_60" data-name="パス 60" class="cls-1" d="M176.97,33.876a2.149,2.149,0,0,0-.514-.086,14.969,14.969,0,0,0,4.154-10.364V11.135a.943.943,0,0,0-.043-.343c0-.214.043-.428.043-.685V2.355A2.349,2.349,0,0,0,178.254,0H162.537a12.027,12.027,0,0,0-11.991,11.991V23.469A14.969,14.969,0,0,0,154.7,33.833a2.15,2.15,0,0,0-.514.086A21.788,21.788,0,0,0,134.4,55.589V65.61a2.349,2.349,0,0,0,2.355,2.355H155.6a2.355,2.355,0,0,0,0-4.711H139.111V55.589a17.069,17.069,0,0,1,14.9-16.916l9.936,9.936a2.378,2.378,0,0,0,3.34,0l9.936-9.936a17.1,17.1,0,0,1,14.9,16.916v7.666H174.871a2.355,2.355,0,1,0,0,4.711h19.615a2.349,2.349,0,0,0,2.355-2.355V55.589A21.969,21.969,0,0,0,176.97,33.876ZM165.578,43.6l-5.1-5.1h10.193Zm10.364-20.128a10.321,10.321,0,0,1-20.642,0V19.786h15.717a9.708,9.708,0,0,0,4.968-1.37v5.054Zm0-13.319a4.971,4.971,0,0,1-4.968,4.968H155.257V11.991a7.348,7.348,0,0,1,7.323-7.323h13.362V10.15Z" transform="translate(-134.4)"/>
    </g>
  </g>
  <g id="グループ化_48" data-name="グループ化 48" transform="translate(86.381 63.212)">
    <g id="グループ化_47" data-name="グループ化 47">
      <path id="パス_61" data-name="パス 61" class="cls-1" d="M205.726,148.285a2.364,2.364,0,0,0-1.67-.685,2.524,2.524,0,0,0-1.67.685,2.364,2.364,0,0,0-.685,1.67,2.524,2.524,0,0,0,.685,1.67,2.364,2.364,0,0,0,1.67.685,2.524,2.524,0,0,0,1.67-.685,2.378,2.378,0,0,0,0-3.34Z" transform="translate(-201.7 -147.6)"/>
    </g>
  </g>
  <g id="グループ化_50" data-name="グループ化 50">
    <g id="グループ化_49" data-name="グループ化 49">
      <path id="パス_62" data-name="パス 62" class="cls-1" d="M62.612,32.762l-9.807-9.807V11.692A11.679,11.679,0,0,0,41.113,0H11.692A11.734,11.734,0,0,0,0,11.692v20.6A11.707,11.707,0,0,0,11.692,43.983H41.113A11.628,11.628,0,0,0,51.949,36.7h8.994a2.371,2.371,0,0,0,2.184-1.456A2.2,2.2,0,0,0,62.612,32.762Zm-12.377-.685a2.341,2.341,0,0,0-2.27,1.8,6.973,6.973,0,0,1-6.852,5.439H11.692a7.055,7.055,0,0,1-7.024-7.024v-20.6a7.055,7.055,0,0,1,7.024-7.024H41.113a7.055,7.055,0,0,1,7.024,7.024V23.94a2.442,2.442,0,0,0,.685,1.67l6.467,6.467Z"/>
    </g>
  </g>
  <g id="グループ化_52" data-name="グループ化 52" transform="translate(56.617 75.889)">
    <g id="グループ化_51" data-name="グループ化 51">
      <path id="パス_63" data-name="パス 63" class="cls-1" d="M183.806,177.2H154.384a11.628,11.628,0,0,0-10.835,7.281h-8.994a2.357,2.357,0,0,0-1.67,4.026l9.807,9.807v11.263a11.707,11.707,0,0,0,11.692,11.692h29.422A11.707,11.707,0,0,0,195.5,209.577v-20.6A11.753,11.753,0,0,0,183.806,177.2Zm7.024,32.334a7.055,7.055,0,0,1-7.024,7.024H154.384a7.055,7.055,0,0,1-7.024-7.024V197.286a2.442,2.442,0,0,0-.685-1.67l-6.467-6.467h5.054a2.341,2.341,0,0,0,2.27-1.8,6.973,6.973,0,0,1,6.852-5.439h29.422a7.055,7.055,0,0,1,7.024,7.024Z" transform="translate(-132.2 -177.2)"/>
    </g>
  </g>
  <g id="グループ化_54" data-name="グループ化 54" transform="translate(87.634 90.974)">
    <g id="グループ化_53" data-name="グループ化 53">
      <path id="パス_64" data-name="パス 64" class="cls-1" d="M221.017,213.1a2.353,2.353,0,0,0-3.3,0l-6.21,6.21L208.6,216.4a2.332,2.332,0,1,0-3.3,3.3l4.54,4.54a2.378,2.378,0,0,0,3.34,0l7.88-7.88A2.341,2.341,0,0,0,221.017,213.1Z" transform="translate(-204.625 -212.425)"/>
    </g>
  </g>
  <g id="グループ化_56" data-name="グループ化 56" transform="translate(20.814 7.942)">
    <g id="グループ化_55" data-name="グループ化 55">
      <path id="パス_65" data-name="パス 65" class="cls-1" d="M64.831,26.106a8.141,8.141,0,0,0-7.537-7.537,7.944,7.944,0,0,0-6.124,2.184,8.2,8.2,0,0,0-2.57,5.953,2.355,2.355,0,1,0,4.711,0,3.445,3.445,0,0,1,1.113-2.527,3.384,3.384,0,0,1,2.612-.9,3.443,3.443,0,0,1,3.169,3.169,3.4,3.4,0,0,1-2.655,3.6A3.934,3.934,0,0,0,54.467,33.9v1.242A2.349,2.349,0,0,0,56.823,37.5a2.322,2.322,0,0,0,2.355-2.355v-.685A8.024,8.024,0,0,0,64.831,26.106Z" transform="translate(-48.6 -18.545)"/>
    </g>
  </g>
  <g id="グループ化_58" data-name="グループ化 58" transform="translate(26.595 31.178)">
    <g id="グループ化_57" data-name="グループ化 57">
      <path id="パス_66" data-name="パス 66" class="cls-1" d="M66.126,73.485a2.364,2.364,0,0,0-1.67-.685,2.524,2.524,0,0,0-1.67.685,2.364,2.364,0,0,0-.685,1.67,2.442,2.442,0,0,0,.685,1.67,2.364,2.364,0,0,0,1.67.685,2.524,2.524,0,0,0,1.67-.685,2.378,2.378,0,0,0,0-3.34Z" transform="translate(-62.1 -72.8)"/>
    </g>
  </g>
  <g id="グループ化_60" data-name="グループ化 60" transform="translate(21.413 105.867)">
    <g id="グループ化_59" data-name="グループ化 59">
      <path id="パス_67" data-name="パス 67" class="cls-1" d="M54.026,247.885a2.364,2.364,0,0,0-1.67-.685,2.524,2.524,0,0,0-1.67.685,2.364,2.364,0,0,0-.685,1.67,2.524,2.524,0,0,0,.685,1.67,2.364,2.364,0,0,0,1.67.685,2.524,2.524,0,0,0,1.67-.685,2.378,2.378,0,0,0,0-3.34Z" transform="translate(-50 -247.2)"/>
    </g>
  </g>
</svg>
