<svg xmlns="http://www.w3.org/2000/svg" viewBox="0 0 120 119.999">
  <defs>
    <style>
      .cls-1 {
        fill: #ee7b48;
      }
    </style>
  </defs>
  <g id="icn_pctopc" transform="translate(0.1)">
    <g id="グループ化_62" data-name="グループ化 62" transform="translate(-0.1)">
      <g id="グループ化_61" data-name="グループ化 61">
        <path id="パス_68" data-name="パス 68" class="cls-1" d="M117.585,31.885h-2.571V8.957A8.981,8.981,0,0,0,106.056,0H69.585a8.981,8.981,0,0,0-8.957,8.957V21.214a1.776,1.776,0,0,0-.686-.086A38.9,38.9,0,0,0,21.028,60a37.717,37.717,0,0,0,.814,7.928,2.331,2.331,0,0,0,2.271,1.886,1.758,1.758,0,0,0,.471-.043,2.294,2.294,0,0,0,1.8-2.786,42.9,42.9,0,0,1-.643-4.629H38.514v11.7H13.786a8.981,8.981,0,0,0-8.957,8.957v22.928H2.257A2.35,2.35,0,0,0-.1,108.3,11.807,11.807,0,0,0,11.643,120H52.4a11.715,11.715,0,0,0,11.7-11.7,2.35,2.35,0,0,0-2.357-2.357H59.171V98.785a2,2,0,0,0,.729.129A38.94,38.94,0,0,0,98.813,60,37.315,37.315,0,0,0,98,52.114a2.362,2.362,0,0,0-4.629.943,32.739,32.739,0,0,1,.6,4.586h-12.6v-11.7H108.2a11.715,11.715,0,0,0,11.7-11.7A2.288,2.288,0,0,0,117.585,31.885ZM65.342,8.957a4.252,4.252,0,0,1,4.243-4.243h36.471A4.252,4.252,0,0,1,110.3,8.957V31.885h-45V8.957ZM59.942,25.8a3.331,3.331,0,0,0,.686-.086v6.171H58.057A2.35,2.35,0,0,0,55.7,34.243a11.4,11.4,0,0,0,.9,4.5H43.657A16.8,16.8,0,0,1,59.942,25.8ZM43.185,43.371h14.4V57.642h-14.4Zm0,18.986h14.4V76.628h-.729a.944.944,0,0,0-.343.043A8.919,8.919,0,0,0,50.257,74.1H43.185ZM41.942,30.9A21.353,21.353,0,0,0,38.9,38.314a16.094,16.094,0,0,1-4.157-1.5A36.505,36.505,0,0,1,41.942,30.9ZM25.828,57.642a33.794,33.794,0,0,1,6-17.1,22.1,22.1,0,0,0,6.686,2.486V57.685H25.828ZM9.543,83.013a4.252,4.252,0,0,1,4.243-4.243H50.257A4.252,4.252,0,0,1,54.5,83.013v22.928H9.5V83.013Zm42.9,32.314h-40.8A7.116,7.116,0,0,1,5,110.656H59.042A7.018,7.018,0,0,1,52.442,115.327Zm7.5-21.128a2.177,2.177,0,0,0-.729.129V83.013a7.508,7.508,0,0,0-.171-1.714H76.228A16.69,16.69,0,0,1,59.942,94.2ZM76.7,76.628H62.3V62.356H76.7Zm0-18.986H62.3v-12.9a11.5,11.5,0,0,0,5.143,1.2H76.7ZM77.942,89.1a20.488,20.488,0,0,0,3-7.414,16.094,16.094,0,0,1,4.157,1.5A35.305,35.305,0,0,1,77.942,89.1ZM94.1,62.356a33.794,33.794,0,0,1-6,17.1,22.1,22.1,0,0,0-6.686-2.486V62.314H94.1Zm14.1-21.128H67.442A7.116,7.116,0,0,1,60.8,36.557h54.042A7.015,7.015,0,0,1,108.2,41.228Z" transform="translate(0.1)"/>
      </g>
    </g>
    <g id="グループ化_64" data-name="グループ化 64" transform="translate(107.256 84.471)">
      <g id="グループ化_63" data-name="グループ化 63">
        <path id="パス_69" data-name="パス 69" class="cls-1" d="M254.429,197.786a2.366,2.366,0,0,0-1.671-.686,2.526,2.526,0,0,0-1.671.686,2.366,2.366,0,0,0-.686,1.671,2.526,2.526,0,0,0,.686,1.671,2.366,2.366,0,0,0,1.671.686,2.526,2.526,0,0,0,1.671-.686,2.38,2.38,0,0,0,0-3.343Z" transform="translate(-250.4 -197.1)"/>
      </g>
    </g>
    <g id="グループ化_66" data-name="グループ化 66" transform="translate(107.256 54.857)">
      <g id="グループ化_65" data-name="グループ化 65">
        <path id="パス_70" data-name="パス 70" class="cls-1" d="M252.757,128a2.35,2.35,0,0,0-2.357,2.357v19.2a2.357,2.357,0,0,0,4.714,0v-19.2A2.35,2.35,0,0,0,252.757,128Z" transform="translate(-250.4 -128)"/>
      </g>
    </g>
    <g id="グループ化_68" data-name="グループ化 68" transform="translate(7.871 12.643)">
      <g id="グループ化_67" data-name="グループ化 67">
        <path id="パス_71" data-name="パス 71" class="cls-1" d="M38.857,29.5h-18A2.35,2.35,0,0,0,18.5,31.857V40.3a2.357,2.357,0,0,0,4.714,0V34.214H38.857a2.357,2.357,0,1,0,0-4.714Z" transform="translate(-18.5 -29.5)"/>
      </g>
    </g>
    <g id="グループ化_70" data-name="グループ化 70" transform="translate(7.871 30.085)">
      <g id="グループ化_69" data-name="グループ化 69">
        <path id="パス_72" data-name="パス 72" class="cls-1" d="M22.529,70.886a2.366,2.366,0,0,0-1.671-.686,2.444,2.444,0,0,0-1.671.686,2.366,2.366,0,0,0-.686,1.671,2.526,2.526,0,0,0,.686,1.671,2.366,2.366,0,0,0,1.671.686,2.526,2.526,0,0,0,1.671-.686,2.38,2.38,0,0,0,0-3.343Z" transform="translate(-18.5 -70.2)"/>
      </g>
    </g>
    <g id="グループ化_72" data-name="グループ化 72" transform="translate(7.871 40.2)">
      <g id="グループ化_71" data-name="グループ化 71">
        <path id="パス_73" data-name="パス 73" class="cls-1" d="M20.857,93.8A2.35,2.35,0,0,0,18.5,96.157v23.528a2.357,2.357,0,0,0,4.714,0V96.157A2.35,2.35,0,0,0,20.857,93.8Z" transform="translate(-18.5 -93.8)"/>
      </g>
    </g>
    <g id="グループ化_74" data-name="グループ化 74" transform="translate(89.299 94.199)">
      <g id="グループ化_73" data-name="グループ化 73">
        <path id="パス_74" data-name="パス 74" class="cls-1" d="M228.814,219.8a2.35,2.35,0,0,0-2.357,2.357v9.386h-15.6a2.357,2.357,0,0,0,0,4.714h17.957a2.35,2.35,0,0,0,2.357-2.357V222.2A2.387,2.387,0,0,0,228.814,219.8Z" transform="translate(-208.5 -219.8)"/>
      </g>
    </g>
  </g>
</svg>
