<svg id="icn_surport" xmlns="http://www.w3.org/2000/svg" viewBox="0 0 119.958 120">
  <defs>
    <style>
      .cls-1 {
        fill: #ee7b48;
      }
    </style>
  </defs>
  <g id="グループ化_82" data-name="グループ化 82" transform="translate(64.691)">
    <g id="グループ化_81" data-name="グループ化 81">
      <path id="パス_86" data-name="パス 86" class="cls-1" d="M196.8,0h-36.33A9.471,9.471,0,0,0,151,9.468V38.986a9.471,9.471,0,0,0,9.468,9.468h10.411l5.955,7.54a2.335,2.335,0,0,0,1.842.9h0a2.335,2.335,0,0,0,1.842-.9l5.869-7.54H196.8a9.471,9.471,0,0,0,9.468-9.468V9.468A9.471,9.471,0,0,0,196.8,0Zm0,43.827H185.273a2.335,2.335,0,0,0-1.842.9l-4.755,6.084-4.8-6.084a2.335,2.335,0,0,0-1.842-.9H160.511a4.79,4.79,0,0,1-4.8-4.8V9.468a4.79,4.79,0,0,1,4.8-4.8h36.33a4.79,4.79,0,0,1,4.8,4.8V38.986h0A4.92,4.92,0,0,1,196.8,43.827Z" transform="translate(-151)"/>
    </g>
  </g>
  <g id="グループ化_84" data-name="グループ化 84" transform="translate(50.596 22.706)">
    <g id="グループ化_83" data-name="グループ化 83">
      <path id="パス_87" data-name="パス 87" class="cls-1" d="M122.127,53.685A2.365,2.365,0,0,0,120.456,53a2.443,2.443,0,0,0-1.671.685,2.365,2.365,0,0,0-.685,1.671,2.525,2.525,0,0,0,.685,1.671,2.365,2.365,0,0,0,1.671.685,2.443,2.443,0,0,0,1.671-.685,2.365,2.365,0,0,0,.685-1.671A2.525,2.525,0,0,0,122.127,53.685Z" transform="translate(-118.1 -53)"/>
    </g>
  </g>
  <g id="グループ化_86" data-name="グループ化 86">
    <g id="グループ化_85" data-name="グループ化 85">
      <path id="パス_88" data-name="パス 88" class="cls-1" d="M52.953,17.351a2.349,2.349,0,0,0,2.356-2.356V9.468A9.471,9.471,0,0,0,45.841,0H9.468A9.471,9.471,0,0,0,0,9.468V38.986a9.471,9.471,0,0,0,9.468,9.468H19.879l5.955,7.54a2.335,2.335,0,0,0,1.842.9h0a2.335,2.335,0,0,0,1.842-.9l5.869-7.54H45.8a9.471,9.471,0,0,0,9.468-9.468V33.759A2.349,2.349,0,0,0,52.91,31.4a2.323,2.323,0,0,0-2.356,2.356v5.27a4.79,4.79,0,0,1-4.8,4.8H34.273a2.335,2.335,0,0,0-1.842.9L27.676,50.81l-4.8-6.084a2.335,2.335,0,0,0-1.842-.9H9.468a4.79,4.79,0,0,1-4.8-4.8V9.468a4.79,4.79,0,0,1,4.8-4.8H45.8a4.79,4.79,0,0,1,4.8,4.8v5.527A2.377,2.377,0,0,0,52.953,17.351Z"/>
    </g>
  </g>
  <g id="グループ化_88" data-name="グループ化 88" transform="translate(20.521 51.143)">
    <g id="グループ化_87" data-name="グループ化 87">
      <path id="パス_89" data-name="パス 89" class="cls-1" d="M126.815,159.487a7.628,7.628,0,0,0-5.012-7.155,7.591,7.591,0,0,0-6.812-11.01H99.7l2.056-6.084a11.684,11.684,0,0,0-7.669-14.909l-2.87-.857a2.326,2.326,0,0,0-2.87,1.457l-4.5,12.381a14.57,14.57,0,0,1-6.726,7.84l-2.87,1.585a2.372,2.372,0,0,0-2.142-1.371H50.256a2.349,2.349,0,0,0-2.356,2.356v42.156a2.349,2.349,0,0,0,2.356,2.356H72.106a2.331,2.331,0,0,0,2.313-2.142l.9.343a26.038,26.038,0,0,0,9.382,1.757h26.6a7.625,7.625,0,0,0,6.812-11.053,7.6,7.6,0,0,0,4.927-7.112,7.349,7.349,0,0,0-.857-3.513A7.646,7.646,0,0,0,126.815,159.487ZM69.749,183.521H52.57V146.034h7.2V169.94a2.356,2.356,0,1,0,4.713,0V146.034h5.27Zm49.482-21.078H104.28a2.356,2.356,0,1,0,0,4.713h11.139a2.913,2.913,0,0,1,0,5.827H104.28a2.356,2.356,0,0,0,0,4.713h7.026a2.913,2.913,0,1,1,0,5.826H84.7a20.337,20.337,0,0,1-7.669-1.457l-2.613-1.028V147.962l4.927-2.7A19.273,19.273,0,0,0,88.257,134.9l3.727-10.282.728.214a6.975,6.975,0,0,1,4.2,3.513,7.079,7.079,0,0,1,.428,5.441l-3.085,9.168a2.282,2.282,0,0,0,.3,2.1,2.375,2.375,0,0,0,1.885.985H114.99a2.913,2.913,0,0,1,0,5.827H104.28a2.356,2.356,0,1,0,0,4.713h14.952a2.916,2.916,0,0,1,2.913,2.913A2.953,2.953,0,0,1,119.232,162.443Z" transform="translate(-47.9 -119.377)"/>
    </g>
  </g>
  <g id="グループ化_90" data-name="グループ化 90" transform="translate(32.388 106.462)">
    <g id="グループ化_89" data-name="グループ化 89">
      <path id="パス_90" data-name="パス 90" class="cls-1" d="M77.956,248.5a2.349,2.349,0,0,0-2.356,2.356v.043a2.356,2.356,0,1,0,4.713,0v-.043A2.377,2.377,0,0,0,77.956,248.5Z" transform="translate(-75.6 -248.5)"/>
    </g>
  </g>
  <g id="グループ化_93" data-name="グループ化 93" transform="translate(77.368 9.811)">
    <g id="グループ化_92" data-name="グループ化 92">
      <g id="グループ化_91" data-name="グループ化 91">
        <path id="パス_91" data-name="パス 91" class="cls-1" d="M210.2,33.568a1.8,1.8,0,0,0-1.5-1.242l-8.011-1.157-3.6-7.24a1.807,1.807,0,0,0-1.671-1.028h0a1.9,1.9,0,0,0-1.671,1.028l-3.556,7.24-8.011,1.157a1.869,1.869,0,0,0-1.5,1.242,1.8,1.8,0,0,0,.471,1.885l5.784,5.655-1.285,7.969a1.853,1.853,0,0,0,.728,1.8,1.875,1.875,0,0,0,1.071.343,1.95,1.95,0,0,0,.857-.214l7.155-3.77L202.615,51a1.824,1.824,0,0,0,2.656-1.928L203.9,41.108l5.784-5.655A1.781,1.781,0,0,0,210.2,33.568Zm-9.511,5.569a1.777,1.777,0,0,0-.514,1.628l.9,5.27L196.36,43.55a1.745,1.745,0,0,0-1.714,0l-4.713,2.485.9-5.27a1.9,1.9,0,0,0-.514-1.628l-3.813-3.727,5.27-.771a1.837,1.837,0,0,0,1.371-.985l2.356-4.8,2.356,4.755a1.74,1.74,0,0,0,1.371.985l5.27.771Z" transform="translate(-180.589 -22.9)"/>
      </g>
    </g>
  </g>
  <g id="グループ化_94" data-name="グループ化 94" transform="translate(13.505 13.446)">
    <path id="パス_92" data-name="パス 92" class="cls-1" d="M45.951,55.983h-.086a3.142,3.142,0,0,1-2.014-.728c-.3-.257-7.369-6-9.854-8.74a8.934,8.934,0,0,1,6.426-15.123,8.785,8.785,0,0,1,5.441,1.842,8.945,8.945,0,0,1,11.91,13.281h0a117.866,117.866,0,0,1-9.854,8.74A3.028,3.028,0,0,1,45.951,55.983ZM40.468,35.59a4.627,4.627,0,0,0-3.342,1.371,4.823,4.823,0,0,0,.043,6.726c1.842,2.1,6.983,6.341,8.74,7.84a114.5,114.5,0,0,0,8.74-7.8A4.823,4.823,0,0,0,54.691,37a4.732,4.732,0,0,0-6.683,0l-.6.6a2.141,2.141,0,0,1-1.5.6,2.219,2.219,0,0,1-1.5-.6l-.6-.6A4.741,4.741,0,0,0,40.468,35.59ZM56.233,45.1Z" transform="translate(-31.524 -31.386)"/>
  </g>
</svg>
