<svg id="icn_media" xmlns="http://www.w3.org/2000/svg" viewBox="0 0 110.144 120">
  <defs>
    <style>
      .cls-1 {
        fill: #ee7b48;
      }
    </style>
  </defs>
  <path id="パス_143" data-name="パス 143" class="cls-1" d="M98.614,157.8a1.9,1.9,0,0,0-1.886,1.886v3.9h-10.2V153.557a2.151,2.151,0,0,0-.086-.514,1.851,1.851,0,0,0-1.843-1.586H39.257a1.9,1.9,0,0,0-1.886,1.886v10.286H3.771V84.986A1.9,1.9,0,0,0,1.886,83.1,1.9,1.9,0,0,0,0,84.986v80.486a1.875,1.875,0,0,0,.343,1.071,1.737,1.737,0,0,0,1.543.943H98.829a1.738,1.738,0,0,0,1.757-1.757V159.9a1.409,1.409,0,0,0-.171-.729A1.889,1.889,0,0,0,98.614,157.8Zm-15.9-2.486v8.271H41.143v-8.271Z" transform="translate(0 -47.486)"/>
  <path id="パス_144" data-name="パス 144" class="cls-1" d="M30.257,191.271a1.777,1.777,0,0,0,1.071.343h71.657a1.738,1.738,0,0,0,1.757-1.757,1.777,1.777,0,0,0-.129-.686,1.889,1.889,0,0,0-1.8-1.371H31.286a1.9,1.9,0,0,0-1.886,1.886A1.932,1.932,0,0,0,30.257,191.271Z" transform="translate(-16.8 -107.314)"/>
  <path id="パス_145" data-name="パス 145" class="cls-1" d="M30.043,210.7a1.71,1.71,0,0,0,1.286.557h71.657a1.738,1.738,0,0,0,1.757-1.757,2.509,2.509,0,0,0-.086-.557,1.923,1.923,0,0,0-1.843-1.543H31.286a1.883,1.883,0,0,0-1.243,3.3Z" transform="translate(-16.8 -118.514)"/>
  <path id="パス_146" data-name="パス 146" class="cls-1" d="M30,230.257a1.693,1.693,0,0,0,1.329.6h71.657a1.738,1.738,0,0,0,1.757-1.757,2.509,2.509,0,0,0-.086-.557A1.88,1.88,0,0,0,102.814,227H31.286a1.9,1.9,0,0,0-1.886,1.886A1.941,1.941,0,0,0,30,230.257Z" transform="translate(-16.8 -129.714)"/>
  <path id="パス_147" data-name="パス 147" class="cls-1" d="M29.957,249.914a1.819,1.819,0,0,0,1.371.643H49.586A1.749,1.749,0,0,0,51.3,249.1a2.151,2.151,0,0,0,.086-.514A1.9,1.9,0,0,0,49.5,246.7H31.286a1.9,1.9,0,0,0-1.886,1.886A1.88,1.88,0,0,0,29.957,249.914Z" transform="translate(-16.8 -140.971)"/>
  <path id="パス_148" data-name="パス 148" class="cls-1" d="M130.3,78.229a9.365,9.365,0,0,0,9.343,9.343,9.846,9.846,0,0,0,1.929-.214,9.25,9.25,0,0,0,7.457-9.086,10.263,10.263,0,0,0-.429-2.829,9.35,9.35,0,0,0-18.3,2.786Zm6.729-4.929a5.369,5.369,0,0,1,2.614-.643,5.614,5.614,0,1,1-5.614,5.657A5.789,5.789,0,0,1,137.029,73.3Z" transform="translate(-74.457 -39.314)"/>
  <path id="パス_149" data-name="パス 149" class="cls-1" d="M103.371,3.429A16.823,16.823,0,0,0,76.629,13.886H1.886A1.9,1.9,0,0,0,0,15.771V30a1.9,1.9,0,0,0,1.886,1.886A1.9,1.9,0,0,0,3.771,30V17.657H76.414a16.585,16.585,0,0,0,.471,3.257H69.943a1.886,1.886,0,0,0,0,3.771h8.4A16.7,16.7,0,0,0,89.7,33.3V46.971L66.514,61.586,35.657,44.443a1.81,1.81,0,0,0-1.929.043L10.714,59.143V24.686H62.443a1.931,1.931,0,0,0,1.286-.514,1.693,1.693,0,0,0,.6-1.329,1.186,1.186,0,0,0-.043-.386,1.88,1.88,0,0,0-1.843-1.543H8.871A1.9,1.9,0,0,0,6.986,22.8V73.243a1.817,1.817,0,0,0,.9,1.586,1.668,1.668,0,0,0,.986.3H91.757a1.738,1.738,0,0,0,1.757-1.757V33.643a15.624,15.624,0,0,0,3.171-.343v71.486a1.9,1.9,0,0,0,1.286,1.757,1.773,1.773,0,0,0,.814.214A1.738,1.738,0,0,0,100.543,105V32.014a16.775,16.775,0,0,0,9.6-15.129A16.561,16.561,0,0,0,103.371,3.429ZM89.7,51.514V71.357H84.129l-13.8-7.671ZM10.757,71.357V63.6L34.843,48.257,76.414,71.314H10.757ZM80.186,16.886A13.05,13.05,0,1,1,93.214,29.914a13.076,13.076,0,0,1-11.443-6.771A13.286,13.286,0,0,1,80.186,16.886Z"/>
  <path id="パス_150" data-name="パス 150" class="cls-1" d="M202.085,36.571a1.924,1.924,0,0,0,1.157.429,1.951,1.951,0,0,0,.857-.214,1.8,1.8,0,0,0,.686-.471L213.7,26.286a1.761,1.761,0,0,0-.129-2.486c-.043,0-.043-.043-.086-.043a.15.15,0,0,1-.043-.086A1.867,1.867,0,0,0,212.2,23.2a1.831,1.831,0,0,0-1.414.643L203.071,32.5l-5.1-4.071A1.924,1.924,0,0,0,196.813,28a1.894,1.894,0,0,0-1.457.686,1.789,1.789,0,0,0-.386,1.371,1.739,1.739,0,0,0,.686,1.243Z" transform="translate(-111.399 -13.257)"/>
</svg>
