<svg xmlns="http://www.w3.org/2000/svg" viewBox="0 0 117.937 120">
  <defs>
    <style>
      .cls-1 {
        fill: #ee7b48;
      }
    </style>
  </defs>
  <g id="icn_merch" transform="translate(0.042)">
    <g id="グループ化_101" data-name="グループ化 101" transform="translate(-0.042)">
      <path id="パス_125" data-name="パス 125" class="cls-1" d="M107.119,87.443a2.043,2.043,0,0,0-1.886-1.157H79.99V69.443A10.563,10.563,0,0,0,69.447,58.9H48.4A10.563,10.563,0,0,0,37.861,69.443V86.286H12.619a2.119,2.119,0,0,0-1.886,1.157L.19,108.486a2.09,2.09,0,0,0,1.886,3.043h8.4v31.586a10.563,10.563,0,0,0,10.543,10.543H96.833a10.563,10.563,0,0,0,10.543-10.543V111.529h8.4a2.161,2.161,0,0,0,1.8-.986,2.073,2.073,0,0,0,.086-2.057Zm-65.057-18a6.31,6.31,0,0,1,6.3-6.3H69.4a6.31,6.31,0,0,1,6.3,6.3V86.286H67.219a10.442,10.442,0,0,0,2.143-6.3,2.1,2.1,0,0,0-2.1-2.1H50.419a2.1,2.1,0,0,0-2.1,2.1,10.348,10.348,0,0,0,2.143,6.3h-8.4ZM52.947,82.086H64.861a6.325,6.325,0,0,1-11.914,0ZM13.9,90.486H76.561l-8.4,16.843H5.5Zm.814,52.629V111.529H69.447a2.119,2.119,0,0,0,1.886-1.157L77.89,97.3v52.114H56.847V126.271a2.161,2.161,0,0,0-.986-1.8,2.073,2.073,0,0,0-2.057-.086l-3.257,1.629-3.257-1.629a2.088,2.088,0,0,0-1.886,0l-3.257,1.629-3.257-1.629a2.077,2.077,0,0,0-2.057.086,2.161,2.161,0,0,0-.986,1.8v23.143H21.019A6.256,6.256,0,0,1,14.719,143.114Zm25.243,6.343V129.7l1.157.6a2.088,2.088,0,0,0,1.886,0l3.257-1.629,3.257,1.629a2.088,2.088,0,0,0,1.886,0l1.157-.6v19.757Zm63.171-6.343a6.31,6.31,0,0,1-6.3,6.3H82.09V97.3l6.557,13.071a2.043,2.043,0,0,0,1.886,1.157h12.643v31.586ZM91.819,107.329l-8.4-16.843H103.99l8.4,16.843Z" transform="translate(0.042 -33.657)"/>
      <circle id="楕円形_27" data-name="楕円形 27" class="cls-1" cx="2.1" cy="2.1" r="2.1" transform="translate(50.547 35.786)"/>
      <circle id="楕円形_28" data-name="楕円形 28" class="cls-1" cx="2.1" cy="2.1" r="2.1" transform="translate(63.19 35.786)"/>
      <path id="パス_126" data-name="パス 126" class="cls-1" d="M16.843,84.943h4.2A21.052,21.052,0,0,0,0,63.9v4.2A16.845,16.845,0,0,1,16.843,84.943Z" transform="translate(0.018 -36.514)"/>
      <path id="パス_127" data-name="パス 127" class="cls-1" d="M27.986,32.286h4.2A27.408,27.408,0,0,0,4.8,4.9V9.1A23.2,23.2,0,0,1,27.986,32.286Z" transform="translate(-2.725 -2.8)"/>
      <path id="パス_128" data-name="パス 128" class="cls-1" d="M93.343,23.843h4.2A18.949,18.949,0,0,0,78.6,4.9V9.1A14.77,14.77,0,0,1,93.343,23.843Z" transform="translate(-44.896 -2.8)"/>
      <path id="パス_129" data-name="パス 129" class="cls-1" d="M226,84.943h4.2A16.845,16.845,0,0,1,247.043,68.1V63.9A21.052,21.052,0,0,0,226,84.943Z" transform="translate(-129.125 -36.514)"/>
      <path id="パス_130" data-name="パス 130" class="cls-1" d="M233.686,9.1V4.9A27.408,27.408,0,0,0,206.3,32.286h4.2A23.229,23.229,0,0,1,233.686,9.1Z" transform="translate(-117.868 -2.8)"/>
      <path id="パス_131" data-name="パス 131" class="cls-1" d="M171.243,9.1V4.9A18.949,18.949,0,0,0,152.3,23.843h4.2A14.77,14.77,0,0,1,171.243,9.1Z" transform="translate(-87.01 -2.8)"/>
      <path id="パス_132" data-name="パス 132" class="cls-1" d="M61.1,78.6h0a2.1,2.1,0,0,1,2.1,2.1h0a2.1,2.1,0,0,1-2.1,2.1h0A2.1,2.1,0,0,1,59,80.7h0A2.05,2.05,0,0,1,61.1,78.6Z" transform="translate(-33.694 -44.914)"/>
      <path id="パス_133" data-name="パス 133" class="cls-1" d="M61.1,98.2h0a2.1,2.1,0,0,1,2.1,2.1h0a2.1,2.1,0,0,1-2.1,2.1h0a2.1,2.1,0,0,1-2.1-2.1h0A2.05,2.05,0,0,1,61.1,98.2Z" transform="translate(-33.694 -56.114)"/>
      <path id="パス_134" data-name="パス 134" class="cls-1" d="M208.4,78.6h0a2.1,2.1,0,0,1,2.1,2.1h0a2.1,2.1,0,0,1-2.1,2.1h0a2.1,2.1,0,0,1-2.1-2.1h0A2.1,2.1,0,0,1,208.4,78.6Z" transform="translate(-117.868 -44.914)"/>
      <path id="パス_135" data-name="パス 135" class="cls-1" d="M208.4,98.2h0a2.1,2.1,0,0,1,2.1,2.1h0a2.1,2.1,0,0,1-2.1,2.1h0a2.1,2.1,0,0,1-2.1-2.1h0A2.1,2.1,0,0,1,208.4,98.2Z" transform="translate(-117.868 -56.114)"/>
      <path id="パス_136" data-name="パス 136" class="cls-1" d="M61.1,4.9h0A2.1,2.1,0,0,1,63.2,7h0a2.1,2.1,0,0,1-2.1,2.1h0A2.1,2.1,0,0,1,59,7h0A2.05,2.05,0,0,1,61.1,4.9Z" transform="translate(-33.694 -2.8)"/>
      <path id="パス_137" data-name="パス 137" class="cls-1" d="M208.4,4.9h0A2.1,2.1,0,0,1,210.5,7h0a2.1,2.1,0,0,1-2.1,2.1h0A2.1,2.1,0,0,1,206.3,7h0A2.1,2.1,0,0,1,208.4,4.9Z" transform="translate(-117.868 -2.8)"/>
      <path id="パス_138" data-name="パス 138" class="cls-1" d="M134.7,39.3h0a2.1,2.1,0,0,1,2.1,2.1h0a2.1,2.1,0,0,1-2.1,2.1h0a2.1,2.1,0,0,1-2.1-2.1h0A2.1,2.1,0,0,1,134.7,39.3Z" transform="translate(-75.753 -22.457)"/>
      <path id="パス_139" data-name="パス 139" class="cls-1" d="M134.7,19.6h0a2.1,2.1,0,0,1,2.1,2.1h0a2.1,2.1,0,0,1-2.1,2.1h0a2.1,2.1,0,0,1-2.1-2.1h0A2.1,2.1,0,0,1,134.7,19.6Z" transform="translate(-75.753 -11.2)"/>
      <path id="パス_140" data-name="パス 140" class="cls-1" d="M134.7,0h0a2.1,2.1,0,0,1,2.1,2.1h0a2.1,2.1,0,0,1-2.1,2.1h0a2.1,2.1,0,0,1-2.1-2.1h0A2.1,2.1,0,0,1,134.7,0Z" transform="translate(-75.753)"/>
      <path id="パス_141" data-name="パス 141" class="cls-1" d="M85.6,39.3h0a2.1,2.1,0,0,1,2.1,2.1h0a2.1,2.1,0,0,1-2.1,2.1h0a2.1,2.1,0,0,1-2.1-2.1h0A2.1,2.1,0,0,1,85.6,39.3Z" transform="translate(-47.696 -22.457)"/>
      <path id="パス_142" data-name="パス 142" class="cls-1" d="M183.9,39.3h0a2.1,2.1,0,0,1,2.1,2.1h0a2.1,2.1,0,0,1-2.1,2.1h0a2.1,2.1,0,0,1-2.1-2.1h0A2.1,2.1,0,0,1,183.9,39.3Z" transform="translate(-103.868 -22.457)"/>
    </g>
  </g>
</svg>
