<svg id="icn_interview" xmlns="http://www.w3.org/2000/svg" viewBox="0 0 120 120">
  <defs>
    <style>
      .cls-1 {
        fill: #ee7b48;
      }
    </style>
  </defs>
  <path id="パス_121" data-name="パス 121" class="cls-1" d="M42.857,85.714A12.857,12.857,0,1,0,30,72.857,12.895,12.895,0,0,0,42.857,85.714Zm0-21.429a8.571,8.571,0,1,1-8.571,8.571A8.6,8.6,0,0,1,42.857,64.286Z" transform="translate(-17.143 -34.286)"/>
  <path id="パス_122" data-name="パス 122" class="cls-1" d="M202.857,85.714A12.857,12.857,0,1,0,190,72.857,12.895,12.895,0,0,0,202.857,85.714Zm0-21.429a8.571,8.571,0,1,1-8.571,8.571A8.6,8.6,0,0,1,202.857,64.286Z" transform="translate(-108.571 -34.286)"/>
  <path id="パス_123" data-name="パス 123" class="cls-1" d="M117.857,119.133a2.122,2.122,0,0,0-2.143,2.143v25.714a6.42,6.42,0,0,1-6.429,6.429V129.848a10.718,10.718,0,0,0-10.714-10.714H87.857a2.122,2.122,0,0,0-2.143,2.143v12.857H77.571V123.291a6.422,6.422,0,0,0,3.857-6.129,6.431,6.431,0,0,0-12.857.257,6.414,6.414,0,0,0,3.857,5.871v10.843H68.571a2.122,2.122,0,0,0-2.143,2.143V142.7H53.571v-6.429a2.122,2.122,0,0,0-2.143-2.143H34.286V121.276a2.122,2.122,0,0,0-2.143-2.143H21.429a10.718,10.718,0,0,0-10.714,10.714v23.571a6.42,6.42,0,0,1-6.429-6.429V121.276a2.122,2.122,0,0,0-2.143-2.143h0A2.122,2.122,0,0,0,0,121.276v25.714A10.768,10.768,0,0,0,6.429,156.8v24.471a2.122,2.122,0,0,0,2.143,2.143h0a2.122,2.122,0,0,0,2.143-2.143V157.7H32.143v23.571a2.122,2.122,0,0,0,2.143,2.143H45V146.991H75v36.429H85.714a2.122,2.122,0,0,0,2.143-2.143V157.7h21.429v23.571a2.122,2.122,0,0,0,2.143,2.143h0a2.122,2.122,0,0,0,2.143-2.143V156.8A10.768,10.768,0,0,0,120,146.991V121.276a2.122,2.122,0,0,0-2.143-2.143Zm-45.814-1.114a2.987,2.987,0,0,1,3.514-3.514,2.919,2.919,0,0,1,2.357,2.357,2.987,2.987,0,0,1-3.514,3.514A3.149,3.149,0,0,1,72.043,118.019ZM49.286,142.7H25.714V131.991a2.122,2.122,0,0,0-2.143-2.143h0a2.122,2.122,0,0,0-2.143,2.143v12.857a2.122,2.122,0,0,0,2.143,2.143h15a2.122,2.122,0,0,1,2.143,2.143v30H36.429V155.562a2.122,2.122,0,0,0-2.143-2.143H15V129.848a6.42,6.42,0,0,1,6.429-6.429H30v12.857a2.122,2.122,0,0,0,2.143,2.143H49.286ZM105,153.419H85.714a2.122,2.122,0,0,0-2.143,2.143v23.571H79.286v-30a2.122,2.122,0,0,1,2.143-2.143h15a2.122,2.122,0,0,0,2.143-2.143V131.991a2.122,2.122,0,0,0-2.143-2.143h0a2.122,2.122,0,0,0-2.143,2.143V142.7H70.714v-4.286H87.857A2.122,2.122,0,0,0,90,136.276V123.419h8.571A6.42,6.42,0,0,1,105,129.848Z" transform="translate(0 -63.419)"/>
  <path id="パス_124" data-name="パス 124" class="cls-1" d="M86.429,21.429v6.429a2.084,2.084,0,0,0,1.457,2.014,1.941,1.941,0,0,0,.686.129,2.171,2.171,0,0,0,1.714-.857l5.786-7.714h16.071A6.42,6.42,0,0,0,118.571,15V6.429A6.42,6.42,0,0,0,112.143,0H86.429A6.42,6.42,0,0,0,80,6.429V15A6.42,6.42,0,0,0,86.429,21.429Zm-2.143-15a2.122,2.122,0,0,1,2.143-2.143h25.714a2.122,2.122,0,0,1,2.143,2.143V15a2.122,2.122,0,0,1-2.143,2.143H95A2.054,2.054,0,0,0,93.286,18l-2.571,3.429V19.286a2.122,2.122,0,0,0-2.143-2.143H86.429A2.122,2.122,0,0,1,84.286,15Z" transform="translate(-45.714)"/>
  <rect id="長方形_32" data-name="長方形 32" class="cls-1" width="21.429" height="4.286" transform="translate(42.857 8.571)"/>
  <circle id="楕円形_24" data-name="楕円形 24" class="cls-1" cx="2.143" cy="2.143" r="2.143" transform="translate(49.714 35.143)"/>
  <circle id="楕円形_25" data-name="楕円形 25" class="cls-1" cx="2.143" cy="2.143" r="2.143" transform="translate(57.857 35.143)"/>
  <circle id="楕円形_26" data-name="楕円形 26" class="cls-1" cx="2.143" cy="2.143" r="2.143" transform="translate(66 35.143)"/>
</svg>
