<svg id="icn_trade" xmlns="http://www.w3.org/2000/svg" viewBox="0 0 119.786 120">
  <defs>
    <style>
      .cls-1 {
        fill: #ee7b48;
      }
    </style>
  </defs>
  <g id="グループ化_100" data-name="グループ化 100">
    <g id="グループ化_96" data-name="グループ化 96" transform="translate(0 35.7)">
      <path id="パス_93" data-name="パス 93" class="cls-1" d="M34.543,253.943A3.055,3.055,0,0,1,31.5,250.9V237.443a3.055,3.055,0,0,1,3.043-3.043H65.229a3.055,3.055,0,0,1,3.043,3.043V250.9a3.055,3.055,0,0,1-3.043,3.043Zm29.614-4.157V238.557h-28.5v11.229Z" transform="translate(-18 -169.643)"/>
      <path id="パス_94" data-name="パス 94" class="cls-1" d="M65.443,253.986H34.714a2.917,2.917,0,0,1-2.914-2.914V237.614a2.917,2.917,0,0,1,2.914-2.914H65.4a2.917,2.917,0,0,1,2.914,2.914v13.457A2.854,2.854,0,0,1,65.443,253.986Zm-29.743-3.9H64.457V238.6H35.7Z" transform="translate(-18.171 -169.814)"/>
      <path id="パス_95" data-name="パス 95" class="cls-1" d="M55.073,183.914V167.929a4.563,4.563,0,0,0-1.029-2.529L38.059,149.414A9.128,9.128,0,0,0,33.13,146.8a5.741,5.741,0,0,0-.857-.043,4.128,4.128,0,0,0-2.914,1.071c-1.929,1.929-1.2,5.914,1.586,8.657l12.129,12.129-2.914,2.914L28.03,159.4a12.894,12.894,0,0,1-3.814-7.586,7.885,7.885,0,0,1,8.057-9.214c.471,0,.9.043,1.371.086a13.052,13.052,0,0,1,7.329,3.771l15.986,15.986a8.634,8.634,0,0,1,2.271,5.443v16.029Z" transform="translate(-13.801 -117.186)"/>
      <path id="パス_96" data-name="パス 96" class="cls-1" d="M59.2,184.056H55.3V168.2a4.57,4.57,0,0,0-1.071-2.614L38.244,149.6a8.939,8.939,0,0,0-5.014-2.614,4.467,4.467,0,0,0-3.857,1.071c-1.971,1.971-1.243,6.043,1.586,8.871L43,168.97l-2.743,2.743L28.215,159.67c-4.371-4.371-5.1-10.843-1.586-14.357a8.266,8.266,0,0,1,7.114-2.143,12.758,12.758,0,0,1,7.243,3.729l15.986,15.986a8.5,8.5,0,0,1,2.229,5.357Z" transform="translate(-13.944 -117.456)"/>
      <path id="パス_97" data-name="パス 97" class="cls-1" d="M101.1,238.7" transform="translate(-57.771 -172.1)"/>
      <path id="パス_98" data-name="パス 98" class="cls-1" d="M101.1,238.7" transform="translate(-57.771 -172.1)"/>
      <path id="パス_99" data-name="パス 99" class="cls-1" d="M18.429,150.029V147.8a4.16,4.16,0,0,0-1.029-2.271L2.271,130.4A8.634,8.634,0,0,1,0,124.957v-6.514L.129,117.2V94.7c0-6.3,4.114-11.4,9.171-11.4s9.171,5.1,9.171,11.4v17.186H14.314V94.7c0-3.943-2.314-7.243-5.014-7.243s-5.014,3.3-5.014,7.243v22.714l-.129,1.371v6.171a4.563,4.563,0,0,0,1.029,2.529l15.129,15.129a8.275,8.275,0,0,1,2.271,5.229v2.229H18.429Z" transform="translate(0 -83.3)"/>
      <path id="パス_100" data-name="パス 100" class="cls-1" d="M22.586,150.014h-3.9v-2.1a4.343,4.343,0,0,0-1.071-2.357L2.529,130.429A8.5,8.5,0,0,1,.3,125.071v-6.514l.129-1.243V94.771C.429,88.557,4.5,83.5,9.471,83.5s9.043,5.057,9.043,11.271v17.057h-3.9V94.771c0-3.986-2.357-7.371-5.143-7.371s-5.143,3.386-5.143,7.371v22.714L4.2,118.857v6.171a4.57,4.57,0,0,0,1.071,2.614L20.4,142.771a8.223,8.223,0,0,1,2.229,5.1v2.143Z" transform="translate(-0.171 -83.414)"/>
    </g>
    <g id="グループ化_97" data-name="グループ化 97" transform="translate(69.471 35.7)">
      <path id="パス_101" data-name="パス 101" class="cls-1" d="M165.143,253.943A3.055,3.055,0,0,1,162.1,250.9V237.443a3.055,3.055,0,0,1,3.043-3.043h30.686a3.055,3.055,0,0,1,3.043,3.043V250.9a3.055,3.055,0,0,1-3.043,3.043Zm29.571-4.157V238.557h-28.5v11.229Z" transform="translate(-162.1 -169.643)"/>
      <path id="パス_102" data-name="パス 102" class="cls-1" d="M196,253.986H165.314a2.917,2.917,0,0,1-2.914-2.914V237.614a2.917,2.917,0,0,1,2.914-2.914H196a2.917,2.917,0,0,1,2.914,2.914v13.457A2.917,2.917,0,0,1,196,253.986Zm-29.7-3.9h28.757V238.6H166.3Z" transform="translate(-162.271 -169.814)"/>
      <path id="パス_103" data-name="パス 103" class="cls-1" d="M173.5,183.971V167.986a8.634,8.634,0,0,1,2.271-5.443l15.986-15.986a12.919,12.919,0,0,1,7.329-3.771c.471-.043.9-.086,1.371-.086a7.887,7.887,0,0,1,8.1,9.214,12.893,12.893,0,0,1-3.814,7.586l-12.171,12.171-2.914-2.914,12.129-12.129c2.786-2.786,3.514-6.771,1.586-8.657a4.055,4.055,0,0,0-2.914-1.071,5.188,5.188,0,0,0-.814.043,8.853,8.853,0,0,0-4.929,2.614l-15.986,15.986a4.563,4.563,0,0,0-1.029,2.529v15.9Z" transform="translate(-168.614 -117.243)"/>
      <path id="パス_104" data-name="パス 104" class="cls-1" d="M177.7,184h-3.9V168.146a8.364,8.364,0,0,1,2.229-5.357L192.014,146.8a12.758,12.758,0,0,1,7.243-3.729,8.4,8.4,0,0,1,7.114,2.143c3.514,3.514,2.829,9.943-1.586,14.357l-12.043,12.043L190,168.874l12.043-12.043c2.829-2.829,3.557-6.9,1.586-8.871a4.467,4.467,0,0,0-3.857-1.071,9.213,9.213,0,0,0-5.014,2.614l-15.986,15.986A4.57,4.57,0,0,0,177.7,168.1V184Z" transform="translate(-168.786 -117.403)"/>
      <path id="パス_105" data-name="パス 105" class="cls-1" d="M178.3,238.7" transform="translate(-171.357 -172.1)"/>
      <path id="パス_106" data-name="パス 106" class="cls-1" d="M178.3,238.7" transform="translate(-171.357 -172.1)"/>
      <path id="パス_107" data-name="パス 107" class="cls-1" d="M226.8,150.029V147.8a8.373,8.373,0,0,1,2.271-5.229L244.2,127.443a4.563,4.563,0,0,0,1.029-2.529v-6.171l-.129-1.457V94.657c0-3.943-2.314-7.243-5.014-7.243s-5.014,3.3-5.014,7.243v17.229h-4.157V94.7c0-6.3,4.114-11.4,9.171-11.4s9.171,5.1,9.171,11.4v22.543l.129,1.457V125a8.634,8.634,0,0,1-2.271,5.443l-15.129,15.129a4.16,4.16,0,0,0-1.029,2.271v2.229H226.8Z" transform="translate(-199.071 -83.3)"/>
      <path id="パス_108" data-name="パス 108" class="cls-1" d="M231,150.071h-3.9v-2.1a7.9,7.9,0,0,1,2.229-5.1l15.129-15.129a4.57,4.57,0,0,0,1.071-2.614v-6.171L245.4,117.5V94.871c0-3.986-2.357-7.371-5.143-7.371s-5.143,3.386-5.143,7.371v17.057h-3.9V94.871c0-6.214,4.071-11.271,9.043-11.271s9.043,5.057,9.043,11.271v22.543l.129,1.457v6.3a8.364,8.364,0,0,1-2.229,5.357l-15.129,15.129A4.3,4.3,0,0,0,231,148.014v2.057Z" transform="translate(-199.243 -83.471)"/>
    </g>
    <g id="グループ化_99" data-name="グループ化 99" transform="translate(23.786)">
      <path id="パス_109" data-name="パス 109" class="cls-1" d="M91.586,72.171a36.086,36.086,0,1,1,36.086-36.086A36.142,36.142,0,0,1,91.586,72.171Zm0-68.014a31.929,31.929,0,1,0,31.929,31.929A31.953,31.953,0,0,0,91.586,4.157Z" transform="translate(-55.5)"/>
      <path id="パス_110" data-name="パス 110" class="cls-1" d="M91.757,72.214a35.957,35.957,0,1,1,35.957-35.957A35.977,35.977,0,0,1,91.757,72.214Zm0-68.014a32.057,32.057,0,1,0,32.057,32.057A32.091,32.091,0,0,0,91.757,4.2Z" transform="translate(-55.671 -0.171)"/>
      <path id="パス_111" data-name="パス 111" class="cls-1" d="M105.186,75.471A25.918,25.918,0,0,1,79.3,49.586a25.6,25.6,0,0,1,4.114-13.971,2.048,2.048,0,0,1,1.757-.943,2.109,2.109,0,0,1,1.757,3.214,21.74,21.74,0,1,0,18.3-9.986,22.209,22.209,0,0,0-6.686,1.029,1.666,1.666,0,0,1-.643.086,2.019,2.019,0,0,1-1.971-1.457,2.055,2.055,0,0,1,.129-1.586,2.181,2.181,0,0,1,1.2-1.029,26.2,26.2,0,0,1,7.929-1.243,25.886,25.886,0,0,1,0,51.771Z" transform="translate(-69.1 -13.543)"/>
      <path id="パス_112" data-name="パス 112" class="cls-1" d="M105.357,75.614A25.747,25.747,0,0,1,83.671,35.971a1.956,1.956,0,1,1,3.3,2.1A21.653,21.653,0,0,0,83.5,49.857,21.787,21.787,0,1,0,98.671,29.029a1.938,1.938,0,0,1-1.2-3.686,25.755,25.755,0,1,1,7.886,50.271Z" transform="translate(-69.271 -13.771)"/>
      <path id="パス_113" data-name="パス 113" class="cls-1" d="M104.943,39.286a1.843,1.843,0,1,1,1.843-1.843A1.829,1.829,0,0,1,104.943,39.286Z" transform="translate(-82.7 -20.343)"/>
      <circle id="楕円形_14" data-name="楕円形 14" class="cls-1" cx="1.714" cy="1.714" r="1.714" transform="translate(20.529 15.429)"/>
      <g id="グループ化_98" data-name="グループ化 98" transform="translate(21.621 23.657)">
        <path id="パス_114" data-name="パス 114" class="cls-1" d="M120.414,80.014a3.378,3.378,0,0,1-2.1-.729c-.3-.257-7.329-5.957-9.857-8.743a9.106,9.106,0,0,1,.129-12.686,8.983,8.983,0,0,1,6.386-2.657,9.21,9.21,0,0,1,5.443,1.8,9.114,9.114,0,0,1,5.443-1.8,8.983,8.983,0,0,1,6.386,2.657,9.106,9.106,0,0,1,.129,12.686,125.339,125.339,0,0,1-9.857,8.743,3.349,3.349,0,0,1-2.057.729Zm-5.443-20.357a4.567,4.567,0,0,0-3.257,1.329,4.7,4.7,0,0,0,.043,6.557,112.551,112.551,0,0,0,8.657,7.714,113.673,113.673,0,0,0,8.657-7.714,4.737,4.737,0,0,0,.043-6.557,4.657,4.657,0,0,0-6.514,0l-.6.6a2.2,2.2,0,0,1-1.586.643,2.392,2.392,0,0,1-1.586-.643l-.6-.6A4.567,4.567,0,0,0,114.971,59.657Z" transform="translate(-105.949 -55.2)"/>
        <path id="パス_115" data-name="パス 115" class="cls-1" d="M120.614,80.049h-.086a3.143,3.143,0,0,1-2.014-.729c-.3-.257-7.371-5.957-9.814-8.743a8.916,8.916,0,0,1,6.429-15.086,8.788,8.788,0,0,1,5.443,1.843,8.918,8.918,0,0,1,11.871,13.243h0c-2.486,2.786-9.557,8.486-9.857,8.743A3.029,3.029,0,0,1,120.614,80.049Zm-5.486-20.357a4.7,4.7,0,0,0-3.343,1.371,4.825,4.825,0,0,0,.043,6.729c1.886,2.057,6.986,6.343,8.743,7.8a106.073,106.073,0,0,0,8.743-7.8,4.825,4.825,0,0,0,.043-6.729,4.734,4.734,0,0,0-6.686,0l-.6.6a2.142,2.142,0,0,1-1.5.6,2.219,2.219,0,0,1-1.5-.6l-.6-.6A4.809,4.809,0,0,0,115.128,59.692ZM130.9,69.206Z" transform="translate(-106.106 -55.363)"/>
      </g>
    </g>
  </g>
</svg>
