<svg id="icn_tramslate" xmlns="http://www.w3.org/2000/svg" viewBox="0 0 120.043 120">
  <defs>
    <style>
      .cls-1 {
        fill: #ee7b48;
      }
    </style>
  </defs>
  <circle id="楕円形_15" data-name="楕円形 15" class="cls-1" cx="2.143" cy="2.143" r="2.143" transform="translate(76.286 17.143)"/>
  <circle id="楕円形_16" data-name="楕円形 16" class="cls-1" cx="2.143" cy="2.143" r="2.143" transform="translate(69.214 24.214)"/>
  <circle id="楕円形_17" data-name="楕円形 17" class="cls-1" cx="2.143" cy="2.143" r="2.143" transform="translate(76.286 24)"/>
  <path id="パス_116" data-name="パス 116" class="cls-1" d="M154.286,0a34.286,34.286,0,0,0,0,68.571,33.962,33.962,0,0,0,12.729-2.443c1.543,1.114,4.5,2.914,10.157,6.386a2.076,2.076,0,0,0,1.114.3,2.542,2.542,0,0,0,.986-.214,2.055,2.055,0,0,0,1.157-1.757s.3-4.114.643-8.229c.171-2.057.3-4.114.429-5.657.043-.771.086-1.414.129-1.886v-.086a33.822,33.822,0,0,0,6.986-20.743A34.387,34.387,0,0,0,154.286,0Zm23.529,52.886a2.429,2.429,0,0,0-.343.557,1.655,1.655,0,0,0-.129.9c-.043,1.029-.514,7.286-.9,12.643-3.514-2.186-6.729-4.243-7.5-4.8a2.092,2.092,0,0,0-2.443-.514,29.689,29.689,0,0,1-12.171,2.571,30.036,30.036,0,1,1,23.486-11.357Z" transform="translate(-68.571)"/>
  <path id="パス_117" data-name="パス 117" class="cls-1" d="M165.143,19a26.143,26.143,0,1,0,26.143,26.143A26.192,26.192,0,0,0,165.143,19ZM147.786,58.429a24.633,24.633,0,0,1-2.143-3.343h38.914a19.307,19.307,0,0,1-2.143,3.343ZM144.014,50.8a23.148,23.148,0,0,1-.643-3.514h43.5a24.161,24.161,0,0,1-.643,3.514Zm23.271-18.686h15.429a26.934,26.934,0,0,1,2.057,3.343H167.286Zm0-4.286V23.371a21.731,21.731,0,0,1,11.186,4.457Zm0,15.3V39.786h19.029a21.765,21.765,0,0,1,.557,3.343ZM163,23.371V43H143.371A22,22,0,0,1,163,23.371ZM152.157,62.714h25.971a21.816,21.816,0,0,1-25.971,0Z" transform="translate(-79.429 -10.857)"/>
  <path id="パス_118" data-name="パス 118" class="cls-1" d="M34.286,114.319a33.962,33.962,0,0,0-12.729,2.443c-1.543-1.114-4.5-2.914-10.157-6.386a2.155,2.155,0,0,0-2.1-.086,2.055,2.055,0,0,0-1.157,1.757s-.343,4.071-.643,8.186c-.3,4.2-.471,6.429-.514,7.671A33.61,33.61,0,0,0,0,148.6a34.286,34.286,0,1,0,34.286-34.286Zm0,64.286a30.033,30.033,0,0,1-30-30A29.481,29.481,0,0,1,10.8,129.961a2.1,2.1,0,0,0,.471-1.5c0-.986.471-7.243.9-12.643,3.514,2.186,6.729,4.243,7.5,4.8a2.092,2.092,0,0,0,2.443.514,29.69,29.69,0,0,1,12.171-2.571,30.021,30.021,0,0,1,0,60.043Z" transform="translate(0 -62.89)"/>
  <path id="パス_119" data-name="パス 119" class="cls-1" d="M45.143,139a26.143,26.143,0,1,0,26.143,26.143A26.192,26.192,0,0,0,45.143,139Zm0,48A21.857,21.857,0,1,1,67,165.143,21.894,21.894,0,0,1,45.143,187Z" transform="translate(-10.857 -79.429)"/>
  <path id="パス_120" data-name="パス 120" class="cls-1" d="M64,172a12,12,0,1,0,12,12A12.035,12.035,0,0,0,64,172Zm0,19.714A7.714,7.714,0,1,1,71.714,184,7.737,7.737,0,0,1,64,191.714Z" transform="translate(-29.714 -98.286)"/>
  <circle id="楕円形_18" data-name="楕円形 18" class="cls-1" cx="2.143" cy="2.143" r="2.143" transform="translate(42.857 14.571)"/>
  <circle id="楕円形_19" data-name="楕円形 19" class="cls-1" cx="2.143" cy="2.143" r="2.143" transform="translate(97.286 81)"/>
  <circle id="楕円形_20" data-name="楕円形 20" class="cls-1" cx="2.143" cy="2.143" r="2.143" transform="translate(87 93.429)"/>
  <circle id="楕円形_21" data-name="楕円形 21" class="cls-1" cx="2.143" cy="2.143" r="2.143" transform="translate(73.286 101.143)"/>
  <circle id="楕円形_22" data-name="楕円形 22" class="cls-1" cx="2.143" cy="2.143" r="2.143" transform="translate(28.714 22.286)"/>
  <circle id="楕円形_23" data-name="楕円形 23" class="cls-1" cx="2.143" cy="2.143" r="2.143" transform="translate(18 33.857)"/>
</svg>
