<svg xmlns="http://www.w3.org/2000/svg" viewBox="0 0 270 50"><title>logo_defalt2</title><path d="M119.2,27.242l9.319,12.829H122.96l-8.6-12.322h-.819V40.071H109V9.968h5.323q5.966,0,8.618,2.242a8.237,8.237,0,0,1,2.925,6.59,8.553,8.553,0,0,1-1.833,5.5A8.17,8.17,0,0,1,119.2,27.242Zm-5.654-3.451h1.443q6.453,0,6.453-4.933,0-4.621-6.278-4.621h-1.618Z"/><path d="M159.135,32.76H146.247l-3.353,7.311H138L152.9,8.077l14.369,31.994h-4.972Zm-1.852-4.27-4.465-10.236L148.138,28.49Z"/><path d="M178,40.071V9.968h6.317a23,23,0,0,1,7.175.9,13.432,13.432,0,0,1,5.128,2.983,14.405,14.405,0,0,1,4.66,11.172,14.646,14.646,0,0,1-9.963,14.213,23.246,23.246,0,0,1-7.077.838Zm4.543-4.27h2.047a17.084,17.084,0,0,0,5.089-.643A10.333,10.333,0,0,0,196.7,25.019a10.46,10.46,0,0,0-3.314-8.033q-2.983-2.749-8.793-2.749h-2.047Z"/><path d="M219.543,9.968V28.1q0,3.88,1.267,5.674a6.779,6.779,0,0,0,10.665,0q1.267-1.735,1.267-5.674V9.968h4.543v19.38a10.844,10.844,0,0,1-2.964,7.838,11.463,11.463,0,0,1-16.358,0A10.843,10.843,0,0,1,215,29.348V9.968Z"/><path d="M269.022,14.452l-3.685,2.184a6.338,6.338,0,0,0-1.969-2.34,4.6,4.6,0,0,0-2.515-.624,4.646,4.646,0,0,0-3.139,1.072,3.324,3.324,0,0,0-1.248,2.652q0,2.2,3.275,3.548l3,1.228a12.821,12.821,0,0,1,5.362,3.617,8.151,8.151,0,0,1,1.7,5.235,9.2,9.2,0,0,1-2.769,6.863,9.5,9.5,0,0,1-6.921,2.73,9.258,9.258,0,0,1-6.473-2.32,10.682,10.682,0,0,1-3.139-6.531l4.6-1.014a7.82,7.82,0,0,0,1.092,3.665,5.188,5.188,0,0,0,7.623.526,4.923,4.923,0,0,0,1.4-3.607,5.064,5.064,0,0,0-.244-1.608,4.09,4.09,0,0,0-.76-1.345,6.082,6.082,0,0,0-1.336-1.15,12.9,12.9,0,0,0-1.95-1.024L258.026,25q-6.181-2.612-6.18-7.643a7.251,7.251,0,0,1,2.593-5.674,9.369,9.369,0,0,1,6.453-2.3Q266.1,9.383,269.022,14.452Z"/><path d="M85.761,24.4l-4.27,4.27h9.693A8.047,8.047,0,0,1,88.2,34.124a9.077,9.077,0,0,1-6.025,2.262,10.76,10.76,0,0,1-7.311-3.022,10.67,10.67,0,0,1-3.607-8.286A11,11,0,0,1,74.5,16.967a10.784,10.784,0,0,1,8.013-3.295c3.548,0,6.568,1.659,9.037,4.948l3.174-3.174a18.6,18.6,0,0,0-5.7-4.62,15.831,15.831,0,0,0-17.742,3.139A15.091,15.091,0,0,0,66.7,25.078a15.127,15.127,0,0,0,4.5,11,14.661,14.661,0,0,0,10.821,4.562,13.636,13.636,0,0,0,10.665-4.718,12.766,12.766,0,0,0,2.632-4.523,20.55,20.55,0,0,0,.8-6.005V24.4Z"/><path d="M2,0H14.667a2,2,0,0,1,2,2V16.667a0,0,0,0,1,0,0H0a0,0,0,0,1,0,0V2A2,2,0,0,1,2,0Z" fill="#ffab24"/><path d="M0,33.333H16.667a0,0,0,0,1,0,0V50a0,0,0,0,1,0,0H2a2,2,0,0,1-2-2V33.333a0,0,0,0,1,0,0Z" fill="#de4b6d"/><rect x="16.667" y="33.333" width="16.667" height="16.667" fill="#de4b6d"/><path d="M33.333,33.333H48a2,2,0,0,1,2,2V48a2,2,0,0,1-2,2H33.333a0,0,0,0,1,0,0V33.333A0,0,0,0,1,33.333,33.333Z" fill="#ffab24"/><rect y="16.667" width="16.667" height="16.667" fill="#de4b6d"/><rect x="16.667" y="33.333" width="16.667" height="16.667" fill="#ffab24" opacity="0.5"/><rect y="16.667" width="16.667" height="16.667" fill="#ffab24" opacity="0.5"/><path d="M16.667,16.667H31.333a2,2,0,0,1,2,2V33.333a0,0,0,0,1,0,0H16.667a0,0,0,0,1,0,0V16.667A0,0,0,0,1,16.667,16.667Z" fill="#ffab24"/></svg>