<svg id="logo" data-name="logo" xmlns="http://www.w3.org/2000/svg" xmlns:xlink="http://www.w3.org/1999/xlink" viewBox="0 0 270 50"><defs><style>.cls-1{fill:none;}.cls-2{clip-path:url(#clip-path);}.cls-3{fill:#fff;}</style><clipPath id="clip-path"><rect class="cls-1" x="-1220" width="1200" height="1200"/></clipPath></defs><title>images</title><g class="cls-2"></g><path class="cls-3" d="M119.46,27.13l9.28,12.78h-5.53l-8.56-12.27h-.82V39.91H109.3v-30h5.3q5.94,0,8.58,2.23a8.2,8.2,0,0,1,2.91,6.56,8.52,8.52,0,0,1-1.83,5.48A8.14,8.14,0,0,1,119.46,27.13Zm-5.63-3.44h1.44q6.43,0,6.43-4.91,0-4.6-6.25-4.6h-1.61Z"/><path class="cls-3" d="M158.84,32.63H146l-3.34,7.28h-4.87L152.62,8l14.31,31.86h-5ZM157,28.37l-4.45-10.19-4.66,10.19Z"/><path class="cls-3" d="M178.25,39.91v-30h6.29a22.9,22.9,0,0,1,7.15.89,13.38,13.38,0,0,1,5.11,3,14.35,14.35,0,0,1,4.64,11.13,14.59,14.59,0,0,1-9.92,14.16,23.15,23.15,0,0,1-7,.83Zm4.52-4.25h2a17,17,0,0,0,5.07-.64,10.29,10.29,0,0,0,7-10.1,10.42,10.42,0,0,0-3.3-8q-3-2.74-8.76-2.74h-2Z"/><path class="cls-3" d="M219.53,9.93V28q0,3.86,1.26,5.65a6.75,6.75,0,0,0,10.62,0q1.26-1.73,1.26-5.65V9.93h4.52v19.3a10.8,10.8,0,0,1-3,7.81A11.42,11.42,0,0,1,218,37a10.8,10.8,0,0,1-3-7.81V9.93Z"/><path class="cls-3" d="M269.22,14.39l-3.67,2.17a6.31,6.31,0,0,0-2-2.33,4.58,4.58,0,0,0-2.5-.62A4.63,4.63,0,0,0,258,14.69a3.31,3.31,0,0,0-1.24,2.64q0,2.19,3.26,3.53l3,1.22a12.77,12.77,0,0,1,5.34,3.6A8.12,8.12,0,0,1,270,30.9a9.16,9.16,0,0,1-2.76,6.84,9.46,9.46,0,0,1-6.89,2.72,9.22,9.22,0,0,1-6.45-2.31,10.64,10.64,0,0,1-3.13-6.51l4.58-1a7.79,7.79,0,0,0,1.09,3.65,5.17,5.17,0,0,0,7.59.52,4.9,4.9,0,0,0,1.4-3.59,5,5,0,0,0-.24-1.6,4.07,4.07,0,0,0-.76-1.34,6.06,6.06,0,0,0-1.33-1.15,12.85,12.85,0,0,0-1.94-1l-2.89-1.2q-6.16-2.6-6.16-7.61a7.22,7.22,0,0,1,2.58-5.65,9.33,9.33,0,0,1,6.43-2.29Q266.31,9.35,269.22,14.39Z"/><path class="cls-3" d="M85.41,24.3l-4.25,4.25h9.65a8,8,0,0,1-3,5.44,9,9,0,0,1-6,2.25,10.72,10.72,0,0,1-7.28-3A10.63,10.63,0,0,1,71,25a11,11,0,0,1,3.22-8.08,10.74,10.74,0,0,1,8-3.28c3.53,0,6.54,1.65,9,4.93l3.16-3.16a18.52,18.52,0,0,0-5.68-4.6A15.77,15.77,0,0,0,71,13.91,15,15,0,0,0,66.43,25a15.07,15.07,0,0,0,4.49,11,14.6,14.6,0,0,0,10.78,4.54,13.58,13.58,0,0,0,10.62-4.7,12.71,12.71,0,0,0,2.62-4.5,20.47,20.47,0,0,0,.8-6v-1Z"/><path class="cls-3" d="M48.35,33.2H33.2V18a1.45,1.45,0,0,0-1.45-1.45H16.6V1.45A1.45,1.45,0,0,0,15.15,0H1.45A1.45,1.45,0,0,0,0,1.45V48.35A1.45,1.45,0,0,0,1.45,49.8H48.35a1.45,1.45,0,0,0,1.45-1.45V34.64A1.45,1.45,0,0,0,48.35,33.2Z"/></svg>