<svg id="logo" xmlns="http://www.w3.org/2000/svg" viewBox="0 0 200 36.914">
  <defs>
    <style>
      .cls-1 {
        fill: #fff;
      }

      .cls-2 {
        fill: #e8e8e8;
      }
    </style>
  </defs>
  <g id="グループ化_1" data-name="グループ化 1" transform="translate(49.129 5.947)">
    <path id="パス_1" data-name="パス 1" class="cls-1" d="M158.654,26.451l6.858,9.483h-4.125l-6.322-9.108h-.589v9.108H151.1V13.7h3.911c2.947,0,5.036.536,6.376,1.661a6.044,6.044,0,0,1,2.143,4.875,6.315,6.315,0,0,1-1.339,4.072A5.772,5.772,0,0,1,158.654,26.451Zm-4.179-2.518h1.072c3.161,0,4.768-1.232,4.768-3.643,0-2.25-1.554-3.429-4.608-3.429h-1.179v7.072Z" transform="translate(-119.276 -12.307)"/>
    <path id="パス_2" data-name="パス 2" class="cls-1" d="M206.191,29.316h-9.537l-2.465,5.411H190.6L201.583,11.1l10.608,23.627h-3.7ZM204.8,26.155,201.53,18.6,198.1,26.155Z" transform="translate(-137.613 -11.1)"/>
    <path id="パス_3" data-name="パス 3" class="cls-1" d="M246.5,35.934V13.7h4.661a17.392,17.392,0,0,1,5.3.643,10.1,10.1,0,0,1,3.8,2.2A10.562,10.562,0,0,1,263.7,24.79a10.83,10.83,0,0,1-7.34,10.5,16.4,16.4,0,0,1-5.2.643Zm3.375-3.161h1.5a12.509,12.509,0,0,0,3.75-.482,6.9,6.9,0,0,0,2.679-1.607,7.571,7.571,0,0,0,2.465-5.893,7.764,7.764,0,0,0-2.465-5.947c-1.447-1.339-3.643-2.036-6.483-2.036h-1.5V32.773Z" transform="translate(-163.564 -12.307)"/>
    <path id="パス_4" data-name="パス 4" class="cls-1" d="M300.629,13.7V27.094a7.545,7.545,0,0,0,.911,4.179,4.546,4.546,0,0,0,3.911,1.929,4.642,4.642,0,0,0,3.965-1.929,7.108,7.108,0,0,0,.911-4.179V13.7H313.7V28a8.052,8.052,0,0,1-8.251,8.3,8.209,8.209,0,0,1-6.054-2.518A8.01,8.01,0,0,1,297.2,28V13.7Z" transform="translate(-187.101 -12.307)"/>
    <path id="パス_5" data-name="パス 5" class="cls-1" d="M360.462,16.65l-2.732,1.607a4.883,4.883,0,0,0-1.447-1.714,3.782,3.782,0,0,0-4.179.321,2.572,2.572,0,0,0-.911,1.982c0,1.072.8,1.982,2.411,2.625l2.2.911a9.53,9.53,0,0,1,3.965,2.679A5.946,5.946,0,0,1,361,28.919a6.947,6.947,0,0,1-2.036,5.09,7.034,7.034,0,0,1-5.09,2.036A6.845,6.845,0,0,1,349.1,34.33a7.616,7.616,0,0,1-2.3-4.822l3.375-.75a5.849,5.849,0,0,0,.8,2.679,3.5,3.5,0,0,0,3,1.447,3.553,3.553,0,0,0,2.625-1.072,3.635,3.635,0,0,0,1.018-2.679,4.179,4.179,0,0,0-.161-1.179,3.705,3.705,0,0,0-.536-1.018,5.007,5.007,0,0,0-.964-.857,7.281,7.281,0,0,0-1.447-.75l-2.143-.911c-3.054-1.286-4.554-3.161-4.554-5.626a5.333,5.333,0,0,1,1.929-4.179,6.938,6.938,0,0,1,4.768-1.714A6.633,6.633,0,0,1,360.462,16.65Z" transform="translate(-210.127 -11.936)"/>
    <path id="パス_6" data-name="パス 6" class="cls-1" d="M105.844,23.944,102.683,27.1h7.179a6.08,6.08,0,0,1-2.2,4.018,6.657,6.657,0,0,1-4.447,1.661,8.412,8.412,0,0,1-8.09-8.358,8.157,8.157,0,0,1,14.948-4.768l2.357-2.357a14.2,14.2,0,0,0-4.233-3.429,11.721,11.721,0,0,0-13.126,2.3,11.16,11.16,0,0,0-3.375,8.2,11.167,11.167,0,0,0,3.322,8.09A10.771,10.771,0,0,0,103,35.838a10.206,10.206,0,0,0,7.876-3.482,9.136,9.136,0,0,0,1.929-3.322,15.962,15.962,0,0,0,.589-4.447v-.75h-7.554Z" transform="translate(-91.7 -11.889)"/>
  </g>
  <g id="マーク_1_">
    <path id="パス_7" data-name="パス 7" class="cls-2" d="M12.323,12.323H0V1.072A1.075,1.075,0,0,1,1.072,0H11.251a1.075,1.075,0,0,1,1.072,1.072Z"/>
    <path id="パス_8" data-name="パス 8" class="cls-2" d="M12.323,58.223H1.072A1.075,1.075,0,0,1,0,57.151V45.9H12.323Z" transform="translate(0 -21.309)"/>
    <rect id="長方形_1" data-name="長方形 1" class="cls-1" width="12.323" height="12.323" transform="translate(12.323 24.591)"/>
    <path id="パス_9" data-name="パス 9" class="cls-2" d="M57.151,58.223H45.9V45.9H57.151a1.075,1.075,0,0,1,1.072,1.072V57.151A1.075,1.075,0,0,1,57.151,58.223Z" transform="translate(-21.309 -21.309)"/>
    <rect id="長方形_2" data-name="長方形 2" class="cls-1" width="12.323" height="12.323" transform="translate(0 12.323)"/>
    <path id="パス_10" data-name="パス 10" class="cls-2" d="M35.269,35.269H23V23H34.251a1.075,1.075,0,0,1,1.072,1.072v11.2Z" transform="translate(-10.677 -10.677)"/>
  </g>
</svg>
