<svg id="mt_logo" data-name="mt logo" xmlns="http://www.w3.org/2000/svg" viewBox="0 0 280 43.843">
  <defs>
    <style>
      .cls-1 {
        fill: #fff;
      }
    </style>
  </defs>
  <g id="グループ化_8" data-name="グループ化 8" transform="translate(0 14.133)">
    <g id="グループ化_3" data-name="グループ化 3" transform="translate(0 0.076)">
      <path id="パス_20" data-name="パス 20" class="cls-1" d="M15.121,47.726V37.088a.987.987,0,0,0-.608-.912.457.457,0,0,0-.3-.076.963.963,0,0,0-.684.3L10.41,40.051,7.294,36.4a.825.825,0,0,0-.684-.3.457.457,0,0,0-.3.076.916.916,0,0,0-.608.912V47.726H0V18.7L9.65,30.022a.825.825,0,0,0,.684.3,1.132,1.132,0,0,0,.684-.3l9.574-11.246v28.95Z" transform="translate(0 -18.7)"/>
    </g>
    <g id="グループ化_4" data-name="グループ化 4" transform="translate(24.315)">
      <path id="パス_21" data-name="パス 21" class="cls-1" d="M32,47.626,43.17,18.6l11.17,29.026h-6l-.608-1.748a.916.916,0,0,0-.912-.608H39.522a.987.987,0,0,0-.912.608L38,47.626ZM43.17,35.62a.824.824,0,0,0-.836.608L40.89,39.951a1.045,1.045,0,0,0,.076.836.935.935,0,0,0,.76.38h2.811a.935.935,0,0,0,.76-.38.832.832,0,0,0,.076-.836l-1.444-3.723a.75.75,0,0,0-.76-.608Z" transform="translate(-32 -18.6)"/>
    </g>
    <g id="グループ化_5" data-name="グループ化 5" transform="translate(49.389 0.076)">
      <path id="パス_22" data-name="パス 22" class="cls-1" d="M72.218,36.4a.825.825,0,0,0-.684-.3.457.457,0,0,0-.3.076.916.916,0,0,0-.608.912V47.65H65V18.7L75.258,30.705a.825.825,0,0,0,.684.3.457.457,0,0,0,.3-.076.916.916,0,0,0,.608-.912V19.384h5.623v28.95Z" transform="translate(-65 -18.7)"/>
    </g>
    <g id="グループ化_6" data-name="グループ化 6" transform="translate(70.057 0.228)">
      <path id="パス_23" data-name="パス 23" class="cls-1" d="M106.865,48.23a14.665,14.665,0,1,1,0-29.33A15.072,15.072,0,0,1,117.2,23.155l-3.951,3.951a9.1,9.1,0,1,0-6.383,15.577,8.809,8.809,0,0,0,5.927-2.2.971.971,0,0,0-.684-1.672h-5.319V33.565h14.665A14.609,14.609,0,0,1,106.865,48.23Z" transform="translate(-92.2 -18.9)"/>
    </g>
    <g id="グループ化_7" data-name="グループ化 7" transform="translate(99.235)">
      <path id="パス_24" data-name="パス 24" class="cls-1" d="M130.6,47.626,141.77,18.6l11.17,29.026h-6.079l-.608-1.748a.916.916,0,0,0-.912-.608h-7.294a.987.987,0,0,0-.912.608l-.608,1.748ZM141.77,35.62a.824.824,0,0,0-.836.608l-1.444,3.723a1.045,1.045,0,0,0,.076.836.935.935,0,0,0,.76.38h2.811a.935.935,0,0,0,.76-.38.832.832,0,0,0,.076-.836l-1.444-3.723a.818.818,0,0,0-.76-.608Z" transform="translate(-130.6 -18.6)"/>
    </g>
  </g>
  <g id="グループ化_14" data-name="グループ化 14" transform="translate(156.147 14.361)">
    <g id="グループ化_9" data-name="グループ化 9" transform="translate(0 0.608)">
      <path id="パス_25" data-name="パス 25" class="cls-1" d="M210.135,47.89V26.235a.924.924,0,0,0-.912-.912H205.5V19.7h15.045v5.623h-3.8a.924.924,0,0,0-.912.912V47.89Z" transform="translate(-205.5 -19.7)"/>
    </g>
    <g id="グループ化_10" data-name="グループ化 10" transform="translate(16.412)">
      <path id="パス_26" data-name="パス 26" class="cls-1" d="M241.765,48.23A14.665,14.665,0,1,1,256.43,33.565,14.625,14.625,0,0,1,241.765,48.23Zm0-23.631a9.042,9.042,0,1,0,9.042,9.042A9.113,9.113,0,0,0,241.765,24.6Z" transform="translate(-227.1 -18.9)"/>
    </g>
    <g id="グループ化_11" data-name="グループ化 11" transform="translate(49.541 0.608)">
      <path id="パス_27" data-name="パス 27" class="cls-1" d="M284.833,47.89l-5.015-8.358a.873.873,0,0,0-.836-.456h0a1.05,1.05,0,0,0-.836.456l-1.672,2.887a1.08,1.08,0,0,0-.152.456v4.939H270.7V19.7h5.623v8.662a.982.982,0,0,0,.684.912h.228a1.05,1.05,0,0,0,.836-.456l5.395-9.118H290l-7.522,12.537a1.127,1.127,0,0,0,0,.988l8.814,14.665h-6.459Z" transform="translate(-270.7 -19.7)"/>
    </g>
    <g id="グループ化_12" data-name="グループ化 12" transform="translate(70.437 0.608)">
      <path id="パス_28" data-name="パス 28" class="cls-1" d="M307.85,47.89V35.885a1.08,1.08,0,0,0-.152-.456L298.2,19.7h6.611l5.015,8.358a.873.873,0,0,0,.836.456h0a1.05,1.05,0,0,0,.836-.456l5.015-8.358h6.611l-9.5,15.729a1.08,1.08,0,0,0-.152.456V47.89Z" transform="translate(-298.2 -19.7)"/>
    </g>
    <g id="グループ化_13" data-name="グループ化 13" transform="translate(94.524)">
      <path id="パス_29" data-name="パス 29" class="cls-1" d="M344.565,48.23A14.665,14.665,0,1,1,359.23,33.565,14.625,14.625,0,0,1,344.565,48.23Zm0-23.631a9.042,9.042,0,1,0,9.042,9.042A9.015,9.015,0,0,0,344.565,24.6Z" transform="translate(-329.9 -18.9)"/>
    </g>
  </g>
  <g id="グループ化_16" data-name="グループ化 16" transform="translate(121.954 0)">
    <circle id="楕円形_1" data-name="楕円形 1" class="cls-1" cx="8.89" cy="8.89" r="8.89" transform="translate(6.99 25.379)"/>
    <g id="グループ化_15" data-name="グループ化 15">
      <path id="パス_30" data-name="パス 30" class="cls-1" d="M171.8,18.863l2.659,2.659a6.635,6.635,0,0,1,4.559-1.824,6.933,6.933,0,0,1,4.559,1.748l2.659-2.659a10.637,10.637,0,0,0-7.218-2.887A10.855,10.855,0,0,0,171.8,18.863Z" transform="translate(-163.214 -3.819)"/>
      <path id="パス_31" data-name="パス 31" class="cls-1" d="M160.5,6.459l2.659,2.659a18.8,18.8,0,0,1,13.221-5.395,19.016,19.016,0,0,1,13.145,5.319l2.659-2.659a22.756,22.756,0,0,0-31.685.076Z" transform="translate(-160.5 0)"/>
      <path id="パス_32" data-name="パス 32" class="cls-1" d="M166.2,12.734l2.659,2.659a12.848,12.848,0,0,1,8.89-3.571,12.664,12.664,0,0,1,8.814,3.571l2.659-2.659a16.612,16.612,0,0,0-23.023,0Z" transform="translate(-161.869 -1.945)"/>
    </g>
  </g>
</svg>
