<svg xmlns="http://www.w3.org/2000/svg" viewBox="0 0 368.5 57.81"><defs><style>.cls-1{fill:#595857;}.cls-2{fill:#d9333f;}</style></defs><title>mtlogo</title><g id="レイヤー_2" data-name="レイヤー 2"><g id="LOGO"><g id="horizontal_default"><path class="cls-1" d="M19.92,56.88v-14a1.23,1.23,0,0,0-.81-1.15,1.2,1.2,0,0,0-.42-.08,1.28,1.28,0,0,0-.94.43l-4.11,4.83L9.53,42.06a1.28,1.28,0,0,0-.94-.43,1.25,1.25,0,0,0-.42.08,1.23,1.23,0,0,0-.81,1.15v14H0V18.69L12.7,33.61a1.24,1.24,0,0,0,1.88,0L27.2,18.77V56.88Z"/><path class="cls-1" d="M32,56.79,46.71,18.58,61.38,56.79h-7.9l-.84-2.28a1.24,1.24,0,0,0-1.16-.8H41.89a1.24,1.24,0,0,0-1.16.8l-.84,2.28ZM46.7,41a1.23,1.23,0,0,0-1.14.79l-1.89,4.9a1.25,1.25,0,0,0,.14,1.14,1.24,1.24,0,0,0,1,.53h3.74a1.23,1.23,0,0,0,1.15-1.66l-1.86-4.9a1.23,1.23,0,0,0-1.14-.8Z"/><path class="cls-1" d="M74.51,42a1.26,1.26,0,0,0-1.36-.36,1.24,1.24,0,0,0-.81,1.16V56.78H65V18.68L78.52,34.49a1.22,1.22,0,0,0,.93.44,1.31,1.31,0,0,0,.43-.08,1.23,1.23,0,0,0,.8-1.15v-14H88V57.81Z"/><path class="cls-1" d="M111.45,57.55a19.3,19.3,0,1,1,0-38.59,19.59,19.59,0,0,1,13.64,5.63l-5.19,5.19a12,12,0,1,0-.6,17.53,1.22,1.22,0,0,0,.35-1.36,1.24,1.24,0,0,0-1.16-.8h-7V38.28h19.27A19.29,19.29,0,0,1,111.45,57.55Z"/><path class="cls-1" d="M130.56,56.79l14.72-38.21L160,56.79h-7.9l-.84-2.28a1.24,1.24,0,0,0-1.16-.8h-9.59a1.24,1.24,0,0,0-1.16.8l-.84,2.28ZM145.27,41a1.23,1.23,0,0,0-1.14.79l-1.89,4.9a1.25,1.25,0,0,0,.14,1.14,1.24,1.24,0,0,0,1,.53h3.74a1.23,1.23,0,0,0,1.15-1.66l-1.86-4.9a1.23,1.23,0,0,0-1.14-.8Z"/><path class="cls-1" d="M211.58,56.79V28.31a1.23,1.23,0,0,0-1.23-1.23h-4.94V19.71h19.76v7.37h-5A1.23,1.23,0,0,0,219,28.31V56.79Z"/><path class="cls-1" d="M246.39,57.55a19.3,19.3,0,1,1,19.27-19.27A19.32,19.32,0,0,1,246.39,57.55Zm0-31.12a11.85,11.85,0,1,0,11.85,11.85A11.89,11.89,0,0,0,246.39,26.43Z"/><path class="cls-1" d="M289.26,56.79l-6.57-10.95a1.23,1.23,0,0,0-1.06-.6h0a1.24,1.24,0,0,0-1.06.61l-2.24,3.78a1.23,1.23,0,0,0-.17.62v6.54H270.8V19.71h7.36V31.13a1.23,1.23,0,0,0,.91,1.19,1.17,1.17,0,0,0,.32,0,1.22,1.22,0,0,0,1.06-.6l7.13-12h8.61l-9.85,16.48a1.19,1.19,0,0,0,0,1.26l11.58,19.34Z"/><path class="cls-1" d="M310.91,56.79V41a1.18,1.18,0,0,0-.18-.63L298.24,19.71h8.67l6.62,11a1.25,1.25,0,0,0,1.06.6h0a1.23,1.23,0,0,0,1.05-.6l6.58-11h8.66L318.4,40.37a1.18,1.18,0,0,0-.18.63V56.79Z"/><path class="cls-1" d="M349.23,57.55A19.3,19.3,0,1,1,368.5,38.28,19.32,19.32,0,0,1,349.23,57.55Zm0-31.12a11.85,11.85,0,1,0,11.86,11.85A11.89,11.89,0,0,0,349.23,26.43Z"/><circle class="cls-2" cx="181.36" cy="45.1" r="11.69"/><path class="cls-1" d="M171.82,19.82l3.49,3.47a8.87,8.87,0,0,1,12.06,0l3.47-3.5a13.8,13.8,0,0,0-19,.06Z"/><path class="cls-1" d="M160.5,8.53,164,12a24.85,24.85,0,0,1,34.64-.1l3.46-3.49a29.76,29.76,0,0,0-41.59.12Z"/><path class="cls-1" d="M166.16,14.17l3.49,3.47A16.88,16.88,0,0,1,193,17.58l3.46-3.49a21.79,21.79,0,0,0-30.3.08Z"/></g></g></g></svg>