<svg id="otsukai_logo" data-name="otsukai logo" xmlns="http://www.w3.org/2000/svg" viewBox="0 0 146.687 35.5">
  <defs>
    <style>
      .cls-1 {
        fill: #fff;
      }
    </style>
  </defs>
  <g id="グループ化_2" data-name="グループ化 2">
    <path id="パス_11" data-name="パス 11" class="cls-1" d="M17.738,35.477A17.738,17.738,0,1,1,35.477,17.738,17.771,17.771,0,0,1,17.738,35.477Zm0-29.267A11.529,11.529,0,1,0,29.267,17.738,11.551,11.551,0,0,0,17.738,6.21Z"/>
  </g>
  <path id="パス_12" data-name="パス 12" class="cls-1" d="M600.221,27.142a3.421,3.421,0,1,0-3.421-3.421A3.425,3.425,0,0,0,600.221,27.142Z" transform="translate(-456.956 -15.543)"/>
  <path id="パス_13" data-name="パス 13" class="cls-1" d="M169.15,51.618h-1.8a1.341,1.341,0,0,1-1.265-1.265V41.379h3.07a3.07,3.07,0,1,0,0-6.139h-3.07V32.545a3.45,3.45,0,0,0-3.445-3.445h-2.015a3.423,3.423,0,0,0-.7,6.772V50.4a7.205,7.205,0,0,0,7.5,7.381s2.039,0,2.132-.047a3.073,3.073,0,0,0-.4-6.116Z" transform="translate(-120.364 -22.281)"/>
  <path id="パス_14" data-name="パス 14" class="cls-1" d="M241.178,61.357c-1.359,0-2.039-.68-2.039-1.359s.68-1.359,2.039-1.359h5.46a2.454,2.454,0,0,0,1.383-.328,3.046,3.046,0,0,0,1.687-2.742,3.08,3.08,0,0,0-3.07-3.07H240.5A7.262,7.262,0,0,0,233,60c0,4.5,3.281,7.5,8.178,7.5,1.242,0,2.718-.351,2.718,1.031,0,1.031-1.8,1.031-2.718,1.031H236.07A3.07,3.07,0,0,0,236,75.7h5.882c4.968,0,8.178-2.671,8.178-6.819C250.035,64.5,246.052,61.357,241.178,61.357Z" transform="translate(-178.403 -40.198)"/>
  <path id="パス_15" data-name="パス 15" class="cls-1" d="M414.693,34.13l-5.225-5.3a.313.313,0,0,1,0-.469l5.155-5.108c1.054-1.054,1.734-1.547,1.734-2.765a3.08,3.08,0,0,0-3.07-3.07c-1.148,0-1.711.68-2.648,1.547l-5.3,4.874a.348.348,0,0,1-.586-.234V9.245A3.45,3.45,0,0,0,401.313,5.8h-1.289a1.342,1.342,0,0,1-.7,0,3.423,3.423,0,0,0-.7,6.772V37.2a.122.122,0,0,0,.047.094,3.062,3.062,0,0,0,6.092-.445c0-.094-.023-.187-.023-.281a.082.082,0,0,1,.023-.047V33.8a.343.343,0,0,1,.586-.234l5.858,5.858c.375.492,1.757.492,2.46.469a3.081,3.081,0,0,0,2.718-3.023C416.38,35.653,415.7,35.137,414.693,34.13Z" transform="translate(-303.131 -4.441)"/>
  <path id="パス_16" data-name="パス 16" class="cls-1" d="M331.694,52.4h-2.015a3.423,3.423,0,0,0-.7,6.772v6.889c0,3-1.312,3.421-2.718,3.421s-2.718-.422-2.718-3.421V55.329A2.93,2.93,0,0,0,320.61,52.4h-.141a3.08,3.08,0,0,0-3.07,3.07V66.717a8.881,8.881,0,1,0,17.762,0V55.845A3.486,3.486,0,0,0,331.694,52.4Z" transform="translate(-243.026 -40.121)"/>
  <path id="パス_17" data-name="パス 17" class="cls-1" d="M407.6,145.6" transform="translate(-312.09 -111.482)"/>
  <path id="パス_18" data-name="パス 18" class="cls-1" d="M590.888,55.3h-2.367a3.421,3.421,0,1,0,0,6.842v12.63a3.07,3.07,0,1,0,6.139,0V59.1A3.76,3.76,0,0,0,590.888,55.3Z" transform="translate(-447.997 -42.342)"/>
  <path id="パス_19" data-name="パス 19" class="cls-1" d="M509.283,71.281V59.776a4.475,4.475,0,0,0-4.476-4.476v.023c-.234-.023-2.32-.023-4.405-.023a10.8,10.8,0,0,0-10.8,11.037c0,6.327,4.85,11.482,10.8,11.482h7.5a3.413,3.413,0,0,0,1.383-6.538Zm-6.139.4h-2.039a5.069,5.069,0,0,1-5.249-5.343,4.979,4.979,0,0,1,5.249-4.9h2.039Z" transform="translate(-374.875 -42.342)"/>
</svg>
