<svg xmlns="http://www.w3.org/2000/svg" xmlns:xlink="http://www.w3.org/1999/xlink" viewBox="0 0 626 151.4"><defs><style>.cls-1{fill:url(#名称未設定グラデーション_514);}.cls-2{fill:url(#名称未設定グラデーション_514-2);}.cls-3{fill:url(#名称未設定グラデーション_514-3);}.cls-4{fill:url(#名称未設定グラデーション_514-4);}.cls-5{fill:url(#名称未設定グラデーション_514-5);}.cls-6{fill:url(#名称未設定グラデーション_514-6);}.cls-7{fill:url(#名称未設定グラデーション_514-7);}.cls-8{fill:url(#名称未設定グラデーション_514-8);}</style><linearGradient id="名称未設定グラデーション_514" x1="-1.74" y1="92.09" x2="617.26" y2="-38.91" gradientUnits="userSpaceOnUse"><stop offset="0" stop-color="#de4b6d"/><stop offset="1" stop-color="#f3af2b"/></linearGradient><linearGradient id="名称未設定グラデーション_514-2" x1="12.97" y1="161.59" x2="631.97" y2="30.59" xlink:href="#名称未設定グラデーション_514"/><linearGradient id="名称未設定グラデーション_514-3" x1="6.1" y1="129.13" x2="625.1" y2="-1.87" xlink:href="#名称未設定グラデーション_514"/><linearGradient id="名称未設定グラデーション_514-4" x1="11.84" y1="156.26" x2="630.84" y2="25.26" xlink:href="#名称未設定グラデーション_514"/><linearGradient id="名称未設定グラデーション_514-5" x1="14.48" y1="168.7" x2="633.48" y2="37.7" xlink:href="#名称未設定グラデーション_514"/><linearGradient id="名称未設定グラデーション_514-6" x1="15.08" y1="171.56" x2="634.08" y2="40.56" xlink:href="#名称未設定グラデーション_514"/><linearGradient id="名称未設定グラデーション_514-7" x1="26.61" y1="226.04" x2="645.61" y2="95.04" xlink:href="#名称未設定グラデーション_514"/><linearGradient id="名称未設定グラデーション_514-8" x1="24.2" y1="214.65" x2="643.2" y2="83.65" xlink:href="#名称未設定グラデーション_514"/></defs><title>アセット 1</title><g id="レイヤー_2" data-name="レイヤー 2"><g id="レイヤー_1-2" data-name="レイヤー 1"><path class="cls-1" d="M75.7,151.4a75.7,75.7,0,1,1,75.7-75.7A75.79,75.79,0,0,1,75.7,151.4Zm0-124.89A49.19,49.19,0,1,0,124.89,75.7,49.25,49.25,0,0,0,75.7,26.51Z"/><path class="cls-2" d="M611.44,49.5a14.56,14.56,0,1,0-14.56-14.56A14.57,14.57,0,0,0,611.44,49.5Z"/><path class="cls-3" d="M208.18,125.2H200.5a5.76,5.76,0,0,1-5.42-5.42V81.53h13.1a13.11,13.11,0,0,0,0-26.21h-13.1V43.82a14.71,14.71,0,0,0-14.71-14.7h-8.58a14.56,14.56,0,0,0-2.92,28.82v62c0,20.69,16.12,31.51,32,31.51,0,0,8.74,0,9.07-.18a13.07,13.07,0,0,0-1.79-26Z"/><path class="cls-4" d="M267.87,90.26c-5.82,0-8.74-2.91-8.74-5.82s2.92-5.83,8.74-5.83h23.29A10.1,10.1,0,0,0,297,77.17a13.06,13.06,0,0,0-5.86-24.76H265c-21,0-32,16.11-32,32,0,19.15,14,32,34.94,32,5.31,0,11.65-1.46,11.65,4.36,0,4.37-7.67,4.37-11.65,4.37H246a13.09,13.09,0,0,0-.32,26.17v0h25.06c21.23,0,34.94-11.42,34.94-29.11C305.72,103.73,288.68,90.27,267.87,90.26Z"/><path class="cls-5" d="M476.14,126.68l-22.26-22.62a1.46,1.46,0,0,1,0-2l22-21.84c4.51-4.48,7.42-6.58,7.42-11.76a13.12,13.12,0,0,0-13.1-13.1c-4.86,0-7.28,2.91-11.32,6.63l-22.6,20.77a1.46,1.46,0,0,1-2.48-1V20.54A14.72,14.72,0,0,0,419.12,5.82h-5.53a13,13,0,0,0-1.53.16,12.62,12.62,0,0,0-1.52-.16,14.56,14.56,0,0,0-2.91,28.83V139.76a.92.92,0,0,0,.19.43,13.07,13.07,0,0,0,26-1.89c0-.42-.08-.81-.12-1.22,0-.08.12-.16.12-.23V125.3a1.46,1.46,0,0,1,2.49-1l25,25c1.63,2.13,7.45,2.13,10.45,2a13.08,13.08,0,0,0,11.56-12.95C483.33,133.21,480.42,131,476.14,126.68Z"/><path class="cls-6" d="M378.38,52.41h-8.6a14.56,14.56,0,0,0-2.91,28.82v29.41c0,12.8-5.6,14.56-11.65,14.56s-11.65-1.76-11.65-14.56V64.91a12.5,12.5,0,0,0-12.5-12.5h-.6a13.12,13.12,0,0,0-13.1,13.1v48c0,24.59,19.5,37.85,37.85,37.85s37.85-13.26,37.85-37.85V67.1A14.69,14.69,0,0,0,378.38,52.41Z"/><path class="cls-7" d="M609.85,55.32H599.8a14.56,14.56,0,1,0,0,29.12V138.3a13.1,13.1,0,0,0,26.2,0V71.47A16.15,16.15,0,0,0,609.85,55.32Z"/><path class="cls-8" d="M573.59,123.52V74.44a19.07,19.07,0,0,0-19.07-19.07v.09c-1-.11-9.9-.14-18.78-.14-25.86,0-46.11,20.68-46.11,47.09,0,27,20.68,49,46.11,49h32a14.54,14.54,0,0,0,5.82-27.88Zm-26.2,1.68h-8.74c-13.18,0-22.39-9.37-22.39-22.79s11.54-20.88,22.39-20.88h8.74Z"/></g></g></svg>